%TF.GenerationSoftware,KiCad,Pcbnew,(5.1.6)-1*%
%TF.CreationDate,2021-11-13T00:29:39-05:00*%
%TF.ProjectId,ArduinoLearningBoard,41726475-696e-46f4-9c65-61726e696e67,rev?*%
%TF.SameCoordinates,Original*%
%TF.FileFunction,Paste,Top*%
%TF.FilePolarity,Positive*%
%FSLAX46Y46*%
G04 Gerber Fmt 4.6, Leading zero omitted, Abs format (unit mm)*
G04 Created by KiCad (PCBNEW (5.1.6)-1) date 2021-11-13 00:29:39*
%MOMM*%
%LPD*%
G01*
G04 APERTURE LIST*
%ADD10R,1.500000X1.000000*%
%ADD11R,1.000000X1.500000*%
G04 APERTURE END LIST*
D10*
%TO.C,D17*%
X70150000Y-75160000D03*
X70150000Y-78360000D03*
X75050000Y-75160000D03*
X75050000Y-78360000D03*
%TD*%
%TO.C,D16*%
X83880000Y-75200000D03*
X83880000Y-78400000D03*
X88780000Y-75200000D03*
X88780000Y-78400000D03*
%TD*%
%TO.C,D15*%
X96810000Y-75170000D03*
X96810000Y-78370000D03*
X101710000Y-75170000D03*
X101710000Y-78370000D03*
%TD*%
%TO.C,C10*%
G36*
G01*
X77592500Y-77090000D02*
X78067500Y-77090000D01*
G75*
G02*
X78305000Y-77327500I0J-237500D01*
G01*
X78305000Y-77902500D01*
G75*
G02*
X78067500Y-78140000I-237500J0D01*
G01*
X77592500Y-78140000D01*
G75*
G02*
X77355000Y-77902500I0J237500D01*
G01*
X77355000Y-77327500D01*
G75*
G02*
X77592500Y-77090000I237500J0D01*
G01*
G37*
G36*
G01*
X77592500Y-75340000D02*
X78067500Y-75340000D01*
G75*
G02*
X78305000Y-75577500I0J-237500D01*
G01*
X78305000Y-76152500D01*
G75*
G02*
X78067500Y-76390000I-237500J0D01*
G01*
X77592500Y-76390000D01*
G75*
G02*
X77355000Y-76152500I0J237500D01*
G01*
X77355000Y-75577500D01*
G75*
G02*
X77592500Y-75340000I237500J0D01*
G01*
G37*
%TD*%
%TO.C,C9*%
G36*
G01*
X104002500Y-76935000D02*
X104477500Y-76935000D01*
G75*
G02*
X104715000Y-77172500I0J-237500D01*
G01*
X104715000Y-77747500D01*
G75*
G02*
X104477500Y-77985000I-237500J0D01*
G01*
X104002500Y-77985000D01*
G75*
G02*
X103765000Y-77747500I0J237500D01*
G01*
X103765000Y-77172500D01*
G75*
G02*
X104002500Y-76935000I237500J0D01*
G01*
G37*
G36*
G01*
X104002500Y-75185000D02*
X104477500Y-75185000D01*
G75*
G02*
X104715000Y-75422500I0J-237500D01*
G01*
X104715000Y-75997500D01*
G75*
G02*
X104477500Y-76235000I-237500J0D01*
G01*
X104002500Y-76235000D01*
G75*
G02*
X103765000Y-75997500I0J237500D01*
G01*
X103765000Y-75422500D01*
G75*
G02*
X104002500Y-75185000I237500J0D01*
G01*
G37*
%TD*%
%TO.C,C8*%
G36*
G01*
X91472500Y-77155000D02*
X91947500Y-77155000D01*
G75*
G02*
X92185000Y-77392500I0J-237500D01*
G01*
X92185000Y-77967500D01*
G75*
G02*
X91947500Y-78205000I-237500J0D01*
G01*
X91472500Y-78205000D01*
G75*
G02*
X91235000Y-77967500I0J237500D01*
G01*
X91235000Y-77392500D01*
G75*
G02*
X91472500Y-77155000I237500J0D01*
G01*
G37*
G36*
G01*
X91472500Y-75405000D02*
X91947500Y-75405000D01*
G75*
G02*
X92185000Y-75642500I0J-237500D01*
G01*
X92185000Y-76217500D01*
G75*
G02*
X91947500Y-76455000I-237500J0D01*
G01*
X91472500Y-76455000D01*
G75*
G02*
X91235000Y-76217500I0J237500D01*
G01*
X91235000Y-75642500D01*
G75*
G02*
X91472500Y-75405000I237500J0D01*
G01*
G37*
%TD*%
%TO.C,C7*%
G36*
G01*
X72215000Y-39272500D02*
X72215000Y-39747500D01*
G75*
G02*
X71977500Y-39985000I-237500J0D01*
G01*
X71402500Y-39985000D01*
G75*
G02*
X71165000Y-39747500I0J237500D01*
G01*
X71165000Y-39272500D01*
G75*
G02*
X71402500Y-39035000I237500J0D01*
G01*
X71977500Y-39035000D01*
G75*
G02*
X72215000Y-39272500I0J-237500D01*
G01*
G37*
G36*
G01*
X73965000Y-39272500D02*
X73965000Y-39747500D01*
G75*
G02*
X73727500Y-39985000I-237500J0D01*
G01*
X73152500Y-39985000D01*
G75*
G02*
X72915000Y-39747500I0J237500D01*
G01*
X72915000Y-39272500D01*
G75*
G02*
X73152500Y-39035000I237500J0D01*
G01*
X73727500Y-39035000D01*
G75*
G02*
X73965000Y-39272500I0J-237500D01*
G01*
G37*
%TD*%
%TO.C,C6*%
G36*
G01*
X72385000Y-55662500D02*
X72385000Y-56137500D01*
G75*
G02*
X72147500Y-56375000I-237500J0D01*
G01*
X71572500Y-56375000D01*
G75*
G02*
X71335000Y-56137500I0J237500D01*
G01*
X71335000Y-55662500D01*
G75*
G02*
X71572500Y-55425000I237500J0D01*
G01*
X72147500Y-55425000D01*
G75*
G02*
X72385000Y-55662500I0J-237500D01*
G01*
G37*
G36*
G01*
X74135000Y-55662500D02*
X74135000Y-56137500D01*
G75*
G02*
X73897500Y-56375000I-237500J0D01*
G01*
X73322500Y-56375000D01*
G75*
G02*
X73085000Y-56137500I0J237500D01*
G01*
X73085000Y-55662500D01*
G75*
G02*
X73322500Y-55425000I237500J0D01*
G01*
X73897500Y-55425000D01*
G75*
G02*
X74135000Y-55662500I0J-237500D01*
G01*
G37*
%TD*%
%TO.C,C5*%
G36*
G01*
X72255000Y-70272500D02*
X72255000Y-70747500D01*
G75*
G02*
X72017500Y-70985000I-237500J0D01*
G01*
X71442500Y-70985000D01*
G75*
G02*
X71205000Y-70747500I0J237500D01*
G01*
X71205000Y-70272500D01*
G75*
G02*
X71442500Y-70035000I237500J0D01*
G01*
X72017500Y-70035000D01*
G75*
G02*
X72255000Y-70272500I0J-237500D01*
G01*
G37*
G36*
G01*
X74005000Y-70272500D02*
X74005000Y-70747500D01*
G75*
G02*
X73767500Y-70985000I-237500J0D01*
G01*
X73192500Y-70985000D01*
G75*
G02*
X72955000Y-70747500I0J237500D01*
G01*
X72955000Y-70272500D01*
G75*
G02*
X73192500Y-70035000I237500J0D01*
G01*
X73767500Y-70035000D01*
G75*
G02*
X74005000Y-70272500I0J-237500D01*
G01*
G37*
%TD*%
%TO.C,C4*%
G36*
G01*
X118492500Y-76895000D02*
X118967500Y-76895000D01*
G75*
G02*
X119205000Y-77132500I0J-237500D01*
G01*
X119205000Y-77707500D01*
G75*
G02*
X118967500Y-77945000I-237500J0D01*
G01*
X118492500Y-77945000D01*
G75*
G02*
X118255000Y-77707500I0J237500D01*
G01*
X118255000Y-77132500D01*
G75*
G02*
X118492500Y-76895000I237500J0D01*
G01*
G37*
G36*
G01*
X118492500Y-75145000D02*
X118967500Y-75145000D01*
G75*
G02*
X119205000Y-75382500I0J-237500D01*
G01*
X119205000Y-75957500D01*
G75*
G02*
X118967500Y-76195000I-237500J0D01*
G01*
X118492500Y-76195000D01*
G75*
G02*
X118255000Y-75957500I0J237500D01*
G01*
X118255000Y-75382500D01*
G75*
G02*
X118492500Y-75145000I237500J0D01*
G01*
G37*
%TD*%
%TO.C,C3*%
G36*
G01*
X114445000Y-60247500D02*
X114445000Y-59772500D01*
G75*
G02*
X114682500Y-59535000I237500J0D01*
G01*
X115257500Y-59535000D01*
G75*
G02*
X115495000Y-59772500I0J-237500D01*
G01*
X115495000Y-60247500D01*
G75*
G02*
X115257500Y-60485000I-237500J0D01*
G01*
X114682500Y-60485000D01*
G75*
G02*
X114445000Y-60247500I0J237500D01*
G01*
G37*
G36*
G01*
X112695000Y-60247500D02*
X112695000Y-59772500D01*
G75*
G02*
X112932500Y-59535000I237500J0D01*
G01*
X113507500Y-59535000D01*
G75*
G02*
X113745000Y-59772500I0J-237500D01*
G01*
X113745000Y-60247500D01*
G75*
G02*
X113507500Y-60485000I-237500J0D01*
G01*
X112932500Y-60485000D01*
G75*
G02*
X112695000Y-60247500I0J237500D01*
G01*
G37*
%TD*%
%TO.C,C2*%
G36*
G01*
X114705000Y-45477500D02*
X114705000Y-45002500D01*
G75*
G02*
X114942500Y-44765000I237500J0D01*
G01*
X115517500Y-44765000D01*
G75*
G02*
X115755000Y-45002500I0J-237500D01*
G01*
X115755000Y-45477500D01*
G75*
G02*
X115517500Y-45715000I-237500J0D01*
G01*
X114942500Y-45715000D01*
G75*
G02*
X114705000Y-45477500I0J237500D01*
G01*
G37*
G36*
G01*
X112955000Y-45477500D02*
X112955000Y-45002500D01*
G75*
G02*
X113192500Y-44765000I237500J0D01*
G01*
X113767500Y-44765000D01*
G75*
G02*
X114005000Y-45002500I0J-237500D01*
G01*
X114005000Y-45477500D01*
G75*
G02*
X113767500Y-45715000I-237500J0D01*
G01*
X113192500Y-45715000D01*
G75*
G02*
X112955000Y-45477500I0J237500D01*
G01*
G37*
%TD*%
%TO.C,C1*%
G36*
G01*
X114455000Y-29987500D02*
X114455000Y-29512500D01*
G75*
G02*
X114692500Y-29275000I237500J0D01*
G01*
X115267500Y-29275000D01*
G75*
G02*
X115505000Y-29512500I0J-237500D01*
G01*
X115505000Y-29987500D01*
G75*
G02*
X115267500Y-30225000I-237500J0D01*
G01*
X114692500Y-30225000D01*
G75*
G02*
X114455000Y-29987500I0J237500D01*
G01*
G37*
G36*
G01*
X112705000Y-29987500D02*
X112705000Y-29512500D01*
G75*
G02*
X112942500Y-29275000I237500J0D01*
G01*
X113517500Y-29275000D01*
G75*
G02*
X113755000Y-29512500I0J-237500D01*
G01*
X113755000Y-29987500D01*
G75*
G02*
X113517500Y-30225000I-237500J0D01*
G01*
X112942500Y-30225000D01*
G75*
G02*
X112705000Y-29987500I0J237500D01*
G01*
G37*
%TD*%
D11*
%TO.C,D1*%
X115700000Y-32150000D03*
X112500000Y-32150000D03*
X115700000Y-37050000D03*
X112500000Y-37050000D03*
%TD*%
%TO.C,D2*%
X112630000Y-52850000D03*
X115830000Y-52850000D03*
X112630000Y-47950000D03*
X115830000Y-47950000D03*
%TD*%
%TO.C,D3*%
X115770000Y-63020000D03*
X112570000Y-63020000D03*
X115770000Y-67920000D03*
X112570000Y-67920000D03*
%TD*%
D10*
%TO.C,D4*%
X116320000Y-78400000D03*
X116320000Y-75200000D03*
X111420000Y-78400000D03*
X111420000Y-75200000D03*
%TD*%
D11*
%TO.C,D5*%
X74290000Y-63050000D03*
X71090000Y-63050000D03*
X74290000Y-67950000D03*
X71090000Y-67950000D03*
%TD*%
%TO.C,D6*%
X71090000Y-53240000D03*
X74290000Y-53240000D03*
X71090000Y-48340000D03*
X74290000Y-48340000D03*
%TD*%
%TO.C,D7*%
X74260000Y-32100000D03*
X71060000Y-32100000D03*
X74260000Y-37000000D03*
X71060000Y-37000000D03*
%TD*%
M02*
