%TF.GenerationSoftware,KiCad,Pcbnew,(5.1.6)-1*%
%TF.CreationDate,2021-11-13T00:29:39-05:00*%
%TF.ProjectId,ArduinoLearningBoard,41726475-696e-46f4-9c65-61726e696e67,rev?*%
%TF.SameCoordinates,Original*%
%TF.FileFunction,Legend,Top*%
%TF.FilePolarity,Positive*%
%FSLAX46Y46*%
G04 Gerber Fmt 4.6, Leading zero omitted, Abs format (unit mm)*
G04 Created by KiCad (PCBNEW (5.1.6)-1) date 2021-11-13 00:29:39*
%MOMM*%
%LPD*%
G01*
G04 APERTURE LIST*
%ADD10C,0.350000*%
%ADD11C,0.120000*%
%ADD12C,0.010000*%
%ADD13C,0.150000*%
G04 APERTURE END LIST*
D10*
X59911904Y-101556666D02*
X61102380Y-101556666D01*
X59673809Y-102270952D02*
X60507142Y-99770952D01*
X61340476Y-102270952D01*
X63602380Y-102270952D02*
X62769047Y-101080476D01*
X62173809Y-102270952D02*
X62173809Y-99770952D01*
X63126190Y-99770952D01*
X63364285Y-99890000D01*
X63483333Y-100009047D01*
X63602380Y-100247142D01*
X63602380Y-100604285D01*
X63483333Y-100842380D01*
X63364285Y-100961428D01*
X63126190Y-101080476D01*
X62173809Y-101080476D01*
X64673809Y-102270952D02*
X64673809Y-99770952D01*
X65269047Y-99770952D01*
X65626190Y-99890000D01*
X65864285Y-100128095D01*
X65983333Y-100366190D01*
X66102380Y-100842380D01*
X66102380Y-101199523D01*
X65983333Y-101675714D01*
X65864285Y-101913809D01*
X65626190Y-102151904D01*
X65269047Y-102270952D01*
X64673809Y-102270952D01*
X67173809Y-99770952D02*
X67173809Y-101794761D01*
X67292857Y-102032857D01*
X67411904Y-102151904D01*
X67650000Y-102270952D01*
X68126190Y-102270952D01*
X68364285Y-102151904D01*
X68483333Y-102032857D01*
X68602380Y-101794761D01*
X68602380Y-99770952D01*
X69792857Y-102270952D02*
X69792857Y-99770952D01*
X70983333Y-102270952D02*
X70983333Y-99770952D01*
X72411904Y-102270952D01*
X72411904Y-99770952D01*
X74078571Y-99770952D02*
X74554761Y-99770952D01*
X74792857Y-99890000D01*
X75030952Y-100128095D01*
X75150000Y-100604285D01*
X75150000Y-101437619D01*
X75030952Y-101913809D01*
X74792857Y-102151904D01*
X74554761Y-102270952D01*
X74078571Y-102270952D01*
X73840476Y-102151904D01*
X73602380Y-101913809D01*
X73483333Y-101437619D01*
X73483333Y-100604285D01*
X73602380Y-100128095D01*
X73840476Y-99890000D01*
X74078571Y-99770952D01*
X78126190Y-102270952D02*
X78126190Y-99770952D01*
X78721428Y-99770952D01*
X79078571Y-99890000D01*
X79316666Y-100128095D01*
X79435714Y-100366190D01*
X79554761Y-100842380D01*
X79554761Y-101199523D01*
X79435714Y-101675714D01*
X79316666Y-101913809D01*
X79078571Y-102151904D01*
X78721428Y-102270952D01*
X78126190Y-102270952D01*
X80626190Y-100961428D02*
X81459523Y-100961428D01*
X81816666Y-102270952D02*
X80626190Y-102270952D01*
X80626190Y-99770952D01*
X81816666Y-99770952D01*
X82888095Y-102270952D02*
X82888095Y-99770952D01*
X83721428Y-101556666D01*
X84554761Y-99770952D01*
X84554761Y-102270952D01*
X86221428Y-99770952D02*
X86697619Y-99770952D01*
X86935714Y-99890000D01*
X87173809Y-100128095D01*
X87292857Y-100604285D01*
X87292857Y-101437619D01*
X87173809Y-101913809D01*
X86935714Y-102151904D01*
X86697619Y-102270952D01*
X86221428Y-102270952D01*
X85983333Y-102151904D01*
X85745238Y-101913809D01*
X85626190Y-101437619D01*
X85626190Y-100604285D01*
X85745238Y-100128095D01*
X85983333Y-99890000D01*
X86221428Y-99770952D01*
X91102380Y-100961428D02*
X91459523Y-101080476D01*
X91578571Y-101199523D01*
X91697619Y-101437619D01*
X91697619Y-101794761D01*
X91578571Y-102032857D01*
X91459523Y-102151904D01*
X91221428Y-102270952D01*
X90269047Y-102270952D01*
X90269047Y-99770952D01*
X91102380Y-99770952D01*
X91340476Y-99890000D01*
X91459523Y-100009047D01*
X91578571Y-100247142D01*
X91578571Y-100485238D01*
X91459523Y-100723333D01*
X91340476Y-100842380D01*
X91102380Y-100961428D01*
X90269047Y-100961428D01*
X93245238Y-99770952D02*
X93721428Y-99770952D01*
X93959523Y-99890000D01*
X94197619Y-100128095D01*
X94316666Y-100604285D01*
X94316666Y-101437619D01*
X94197619Y-101913809D01*
X93959523Y-102151904D01*
X93721428Y-102270952D01*
X93245238Y-102270952D01*
X93007142Y-102151904D01*
X92769047Y-101913809D01*
X92650000Y-101437619D01*
X92650000Y-100604285D01*
X92769047Y-100128095D01*
X93007142Y-99890000D01*
X93245238Y-99770952D01*
X95269047Y-101556666D02*
X96459523Y-101556666D01*
X95030952Y-102270952D02*
X95864285Y-99770952D01*
X96697619Y-102270952D01*
X98959523Y-102270952D02*
X98126190Y-101080476D01*
X97530952Y-102270952D02*
X97530952Y-99770952D01*
X98483333Y-99770952D01*
X98721428Y-99890000D01*
X98840476Y-100009047D01*
X98959523Y-100247142D01*
X98959523Y-100604285D01*
X98840476Y-100842380D01*
X98721428Y-100961428D01*
X98483333Y-101080476D01*
X97530952Y-101080476D01*
X100030952Y-102270952D02*
X100030952Y-99770952D01*
X100626190Y-99770952D01*
X100983333Y-99890000D01*
X101221428Y-100128095D01*
X101340476Y-100366190D01*
X101459523Y-100842380D01*
X101459523Y-101199523D01*
X101340476Y-101675714D01*
X101221428Y-101913809D01*
X100983333Y-102151904D01*
X100626190Y-102270952D01*
X100030952Y-102270952D01*
X104078571Y-99770952D02*
X104911904Y-102270952D01*
X105745238Y-99770952D01*
X107888095Y-102270952D02*
X106459523Y-102270952D01*
X107173809Y-102270952D02*
X107173809Y-99770952D01*
X106935714Y-100128095D01*
X106697619Y-100366190D01*
X106459523Y-100485238D01*
X59918095Y-107730952D02*
X59918095Y-105230952D01*
X60751428Y-107016666D01*
X61584761Y-105230952D01*
X61584761Y-107730952D01*
X62656190Y-107016666D02*
X63846666Y-107016666D01*
X62418095Y-107730952D02*
X63251428Y-105230952D01*
X64084761Y-107730952D01*
X64560952Y-105230952D02*
X65989523Y-105230952D01*
X65275238Y-107730952D02*
X65275238Y-105230952D01*
X66465714Y-105230952D02*
X67894285Y-105230952D01*
X67180000Y-107730952D02*
X67180000Y-105230952D01*
X68727619Y-107730952D02*
X68727619Y-105230952D01*
X68727619Y-106421428D02*
X70156190Y-106421428D01*
X70156190Y-107730952D02*
X70156190Y-105230952D01*
X71346666Y-106421428D02*
X72180000Y-106421428D01*
X72537142Y-107730952D02*
X71346666Y-107730952D01*
X71346666Y-105230952D01*
X72537142Y-105230952D01*
X73370476Y-105230952D02*
X73965714Y-107730952D01*
X74441904Y-105945238D01*
X74918095Y-107730952D01*
X75513333Y-105230952D01*
X79799047Y-107730952D02*
X78965714Y-106540476D01*
X78370476Y-107730952D02*
X78370476Y-105230952D01*
X79322857Y-105230952D01*
X79560952Y-105350000D01*
X79680000Y-105469047D01*
X79799047Y-105707142D01*
X79799047Y-106064285D01*
X79680000Y-106302380D01*
X79560952Y-106421428D01*
X79322857Y-106540476D01*
X78370476Y-106540476D01*
X80751428Y-107016666D02*
X81941904Y-107016666D01*
X80513333Y-107730952D02*
X81346666Y-105230952D01*
X82180000Y-107730952D01*
X83013333Y-107730952D02*
X83013333Y-105230952D01*
X83846666Y-107016666D01*
X84680000Y-105230952D01*
X84680000Y-107730952D01*
X85870476Y-107730952D02*
X85870476Y-105230952D01*
X86822857Y-105230952D01*
X87060952Y-105350000D01*
X87180000Y-105469047D01*
X87299047Y-105707142D01*
X87299047Y-106064285D01*
X87180000Y-106302380D01*
X87060952Y-106421428D01*
X86822857Y-106540476D01*
X85870476Y-106540476D01*
X88251428Y-107016666D02*
X89441904Y-107016666D01*
X88013333Y-107730952D02*
X88846666Y-105230952D01*
X89680000Y-107730952D01*
X90513333Y-107730952D02*
X90513333Y-105230952D01*
X91108571Y-105230952D01*
X91465714Y-105350000D01*
X91703809Y-105588095D01*
X91822857Y-105826190D01*
X91941904Y-106302380D01*
X91941904Y-106659523D01*
X91822857Y-107135714D01*
X91703809Y-107373809D01*
X91465714Y-107611904D01*
X91108571Y-107730952D01*
X90513333Y-107730952D01*
X93489523Y-105230952D02*
X93965714Y-105230952D01*
X94203809Y-105350000D01*
X94441904Y-105588095D01*
X94560952Y-106064285D01*
X94560952Y-106897619D01*
X94441904Y-107373809D01*
X94203809Y-107611904D01*
X93965714Y-107730952D01*
X93489523Y-107730952D01*
X93251428Y-107611904D01*
X93013333Y-107373809D01*
X92894285Y-106897619D01*
X92894285Y-106064285D01*
X93013333Y-105588095D01*
X93251428Y-105350000D01*
X93489523Y-105230952D01*
D11*
%TO.C,D17*%
X76250000Y-79510000D02*
X76250000Y-78360000D01*
X68950000Y-79510000D02*
X76250000Y-79510000D01*
X68950000Y-74010000D02*
X76250000Y-74010000D01*
%TO.C,D16*%
X89980000Y-79550000D02*
X89980000Y-78400000D01*
X82680000Y-79550000D02*
X89980000Y-79550000D01*
X82680000Y-74050000D02*
X89980000Y-74050000D01*
%TO.C,D15*%
X102910000Y-79520000D02*
X102910000Y-78370000D01*
X95610000Y-79520000D02*
X102910000Y-79520000D01*
X95610000Y-74020000D02*
X102910000Y-74020000D01*
%TO.C,C10*%
X77320000Y-76568733D02*
X77320000Y-76911267D01*
X78340000Y-76568733D02*
X78340000Y-76911267D01*
%TO.C,C9*%
X103730000Y-76413733D02*
X103730000Y-76756267D01*
X104750000Y-76413733D02*
X104750000Y-76756267D01*
%TO.C,C8*%
X91200000Y-76633733D02*
X91200000Y-76976267D01*
X92220000Y-76633733D02*
X92220000Y-76976267D01*
%TO.C,A1*%
X99270000Y-63770000D02*
X99270000Y-66310000D01*
X99270000Y-66310000D02*
X101940000Y-66310000D01*
X101940000Y-63770000D02*
X101940000Y-25540000D01*
X101940000Y-68980000D02*
X101940000Y-66310000D01*
X86570000Y-66310000D02*
X83900000Y-66310000D01*
X86570000Y-66310000D02*
X86570000Y-28210000D01*
X86570000Y-28210000D02*
X83900000Y-28210000D01*
X99270000Y-63770000D02*
X101940000Y-63770000D01*
X99270000Y-63770000D02*
X99270000Y-28210000D01*
X99270000Y-28210000D02*
X101940000Y-28210000D01*
X101940000Y-25540000D02*
X83900000Y-25540000D01*
X83900000Y-25540000D02*
X83900000Y-68980000D01*
X83900000Y-68980000D02*
X101940000Y-68980000D01*
%TO.C,C7*%
X72736267Y-39000000D02*
X72393733Y-39000000D01*
X72736267Y-40020000D02*
X72393733Y-40020000D01*
%TO.C,C6*%
X72906267Y-55390000D02*
X72563733Y-55390000D01*
X72906267Y-56410000D02*
X72563733Y-56410000D01*
%TO.C,C5*%
X72776267Y-70000000D02*
X72433733Y-70000000D01*
X72776267Y-71020000D02*
X72433733Y-71020000D01*
%TO.C,C4*%
X118220000Y-76373733D02*
X118220000Y-76716267D01*
X119240000Y-76373733D02*
X119240000Y-76716267D01*
%TO.C,C3*%
X113923733Y-60520000D02*
X114266267Y-60520000D01*
X113923733Y-59500000D02*
X114266267Y-59500000D01*
%TO.C,C2*%
X114183733Y-45750000D02*
X114526267Y-45750000D01*
X114183733Y-44730000D02*
X114526267Y-44730000D01*
%TO.C,C1*%
X113933733Y-30260000D02*
X114276267Y-30260000D01*
X113933733Y-29240000D02*
X114276267Y-29240000D01*
D12*
%TO.C,G\u002A\u002A\u002A*%
G36*
X132639753Y-86466547D02*
G01*
X132675943Y-86549262D01*
X132703399Y-86695728D01*
X132709583Y-86741847D01*
X132769510Y-87001520D01*
X132883819Y-87240355D01*
X133059447Y-87468897D01*
X133303331Y-87697692D01*
X133377918Y-87757847D01*
X133454729Y-87850040D01*
X133505337Y-87993626D01*
X133516245Y-88046488D01*
X133534031Y-88178989D01*
X133546308Y-88341967D01*
X133552936Y-88516899D01*
X133553777Y-88685264D01*
X133548690Y-88828539D01*
X133537536Y-88928203D01*
X133523159Y-88964807D01*
X133494494Y-88940441D01*
X133443881Y-88858755D01*
X133379840Y-88734398D01*
X133342243Y-88653706D01*
X133228806Y-88430967D01*
X133118728Y-88271122D01*
X133015739Y-88178216D01*
X132923571Y-88156293D01*
X132893153Y-88166878D01*
X132833393Y-88213169D01*
X132740948Y-88300372D01*
X132634637Y-88410619D01*
X132622446Y-88423887D01*
X132488256Y-88594542D01*
X132423178Y-88736491D01*
X132427849Y-88847918D01*
X132457895Y-88893031D01*
X132492256Y-88959068D01*
X132530830Y-89078639D01*
X132567950Y-89227752D01*
X132597950Y-89382412D01*
X132615165Y-89518627D01*
X132617230Y-89567776D01*
X132614910Y-89636085D01*
X132600755Y-89690500D01*
X132563971Y-89742990D01*
X132493766Y-89805525D01*
X132379347Y-89890075D01*
X132236230Y-89990302D01*
X132120856Y-90069677D01*
X131949617Y-90186244D01*
X131731669Y-90333829D01*
X131476164Y-90506259D01*
X131192258Y-90697359D01*
X130889105Y-90900956D01*
X130575858Y-91110874D01*
X130434273Y-91205602D01*
X129853954Y-91599694D01*
X129255347Y-92017392D01*
X128662039Y-92441891D01*
X128097617Y-92856383D01*
X127747734Y-93119840D01*
X126482153Y-94083885D01*
X126481935Y-94437789D01*
X126476070Y-94680709D01*
X126455806Y-94860820D01*
X126416626Y-94992838D01*
X126354013Y-95091478D01*
X126263450Y-95171459D01*
X126254904Y-95177464D01*
X126156320Y-95239310D01*
X126079952Y-95275896D01*
X126060721Y-95280154D01*
X126042424Y-95279180D01*
X126027281Y-95269181D01*
X126012336Y-95239544D01*
X125994636Y-95179654D01*
X125971226Y-95078898D01*
X125939153Y-94926660D01*
X125895460Y-94712328D01*
X125876099Y-94616846D01*
X125809476Y-94317787D01*
X125744851Y-94091509D01*
X125679955Y-93932757D01*
X125612517Y-93836275D01*
X125540269Y-93796806D01*
X125521283Y-93795231D01*
X125471202Y-93799682D01*
X125442198Y-93820398D01*
X125435340Y-93868427D01*
X125451696Y-93954818D01*
X125492334Y-94090617D01*
X125558321Y-94286873D01*
X125572913Y-94329298D01*
X125638247Y-94525391D01*
X125680614Y-94677474D01*
X125704961Y-94814536D01*
X125716235Y-94965566D01*
X125719383Y-95159553D01*
X125719452Y-95188039D01*
X125719507Y-95371906D01*
X125713242Y-95506824D01*
X125692041Y-95609691D01*
X125647289Y-95697402D01*
X125570373Y-95786854D01*
X125452678Y-95894943D01*
X125285993Y-96038219D01*
X124970950Y-96272466D01*
X124605896Y-96483509D01*
X124218516Y-96656601D01*
X123961692Y-96743583D01*
X123791672Y-96793932D01*
X123637227Y-96840927D01*
X123522948Y-96877037D01*
X123492769Y-96887173D01*
X123354527Y-96934873D01*
X123276379Y-96953200D01*
X123243873Y-96936250D01*
X123242558Y-96878119D01*
X123255425Y-96790218D01*
X123303090Y-96573332D01*
X123383090Y-96318378D01*
X123485767Y-96053203D01*
X123587443Y-95833046D01*
X123656799Y-95684088D01*
X123686223Y-95593938D01*
X123680652Y-95557419D01*
X123645027Y-95569350D01*
X123584285Y-95624552D01*
X123503365Y-95717846D01*
X123407207Y-95844053D01*
X123300749Y-95997992D01*
X123188930Y-96174486D01*
X123076689Y-96368353D01*
X123076269Y-96369114D01*
X122977512Y-96541266D01*
X122884552Y-96690949D01*
X122807218Y-96803137D01*
X122755338Y-96862800D01*
X122751645Y-96865486D01*
X122658355Y-96890618D01*
X122501748Y-96890453D01*
X122292072Y-96866084D01*
X122039573Y-96818602D01*
X121818533Y-96765979D01*
X121602845Y-96707292D01*
X121455069Y-96659192D01*
X121366268Y-96618034D01*
X121327507Y-96580170D01*
X121324000Y-96564125D01*
X121342591Y-96505631D01*
X121394846Y-96389119D01*
X121475490Y-96224331D01*
X121579246Y-96021010D01*
X121700837Y-95788899D01*
X121834989Y-95537741D01*
X121976424Y-95277279D01*
X122119866Y-95017256D01*
X122260039Y-94767414D01*
X122391667Y-94537497D01*
X122509474Y-94337247D01*
X122608183Y-94176408D01*
X122660182Y-94096759D01*
X122806809Y-93891231D01*
X122938081Y-93736010D01*
X123068421Y-93616892D01*
X125605377Y-93616892D01*
X125643150Y-93676271D01*
X125739092Y-93736248D01*
X125900917Y-93808184D01*
X125918549Y-93815458D01*
X126081652Y-93877124D01*
X126202020Y-93903924D01*
X126306278Y-93897009D01*
X126421049Y-93857532D01*
X126462615Y-93839005D01*
X126580541Y-93772165D01*
X126738421Y-93665197D01*
X126919173Y-93531408D01*
X127105715Y-93384100D01*
X127280966Y-93236579D01*
X127427842Y-93102149D01*
X127490536Y-93038404D01*
X127582740Y-92944274D01*
X127655893Y-92878815D01*
X127690955Y-92857385D01*
X127747762Y-92836413D01*
X127848373Y-92781663D01*
X127973429Y-92705385D01*
X128103570Y-92619828D01*
X128219438Y-92537241D01*
X128298089Y-92473219D01*
X128401508Y-92390520D01*
X128503382Y-92327858D01*
X128518500Y-92320917D01*
X128595077Y-92275896D01*
X128630418Y-92215106D01*
X128623096Y-92127484D01*
X128571682Y-92001969D01*
X128474752Y-91827498D01*
X128449372Y-91785083D01*
X128364949Y-91639493D01*
X128301630Y-91519290D01*
X128266895Y-91439398D01*
X128263929Y-91415065D01*
X128299094Y-91430046D01*
X128365712Y-91492530D01*
X128430276Y-91566193D01*
X128564607Y-91729827D01*
X128659640Y-91841226D01*
X128725734Y-91908507D01*
X128773248Y-91939786D01*
X128812541Y-91943177D01*
X128853972Y-91926798D01*
X128875834Y-91915267D01*
X128950719Y-91870787D01*
X129077650Y-91790432D01*
X129244190Y-91682489D01*
X129437903Y-91555244D01*
X129646353Y-91416983D01*
X129857104Y-91275993D01*
X130057720Y-91140559D01*
X130235765Y-91018967D01*
X130378802Y-90919505D01*
X130474395Y-90850457D01*
X130477769Y-90847904D01*
X130570224Y-90773608D01*
X130628091Y-90707298D01*
X130654400Y-90631543D01*
X130652184Y-90528911D01*
X130624474Y-90381970D01*
X130586476Y-90222795D01*
X130535025Y-90031865D01*
X130486101Y-89907974D01*
X130430044Y-89840967D01*
X130357192Y-89820685D01*
X130257885Y-89836971D01*
X130227726Y-89845586D01*
X130030860Y-89920323D01*
X129790334Y-90036334D01*
X129521770Y-90183964D01*
X129240790Y-90353560D01*
X128963017Y-90535466D01*
X128704071Y-90720028D01*
X128479575Y-90897592D01*
X128373560Y-90991462D01*
X128259148Y-91094297D01*
X128164078Y-91172391D01*
X128104073Y-91213086D01*
X128094445Y-91216154D01*
X128050962Y-91238328D01*
X127957155Y-91299351D01*
X127825071Y-91390980D01*
X127666756Y-91504970D01*
X127591425Y-91560430D01*
X127354007Y-91742565D01*
X127157343Y-91906036D01*
X127007566Y-92045115D01*
X126910807Y-92154070D01*
X126873197Y-92227173D01*
X126872923Y-92231867D01*
X126903845Y-92270867D01*
X126982645Y-92330069D01*
X127039355Y-92365473D01*
X127146340Y-92437513D01*
X127256652Y-92526466D01*
X127355089Y-92617837D01*
X127426448Y-92697133D01*
X127455525Y-92749857D01*
X127452701Y-92759555D01*
X127413743Y-92748634D01*
X127334471Y-92699014D01*
X127259988Y-92643252D01*
X127100922Y-92535837D01*
X126937244Y-92457299D01*
X126787995Y-92414411D01*
X126672217Y-92413944D01*
X126644442Y-92424338D01*
X126586514Y-92469940D01*
X126488676Y-92562040D01*
X126362516Y-92688345D01*
X126219619Y-92836562D01*
X126071572Y-92994399D01*
X125929961Y-93149563D01*
X125806373Y-93289761D01*
X125712392Y-93402701D01*
X125673491Y-93454485D01*
X125618062Y-93546750D01*
X125605377Y-93616892D01*
X123068421Y-93616892D01*
X123074064Y-93611735D01*
X123234828Y-93499051D01*
X123353898Y-93427583D01*
X123472410Y-93356012D01*
X123574464Y-93284439D01*
X123672451Y-93201118D01*
X123778762Y-93094298D01*
X123905788Y-92952233D01*
X124065920Y-92763174D01*
X124108384Y-92712230D01*
X124312221Y-92473981D01*
X124560182Y-92195007D01*
X124839827Y-91888513D01*
X125138714Y-91567704D01*
X125444403Y-91245784D01*
X125744451Y-90935958D01*
X126026417Y-90651429D01*
X126277861Y-90405403D01*
X126317765Y-90367322D01*
X126477601Y-90212148D01*
X126583182Y-90100941D01*
X126639900Y-90027170D01*
X126653147Y-89984301D01*
X126644262Y-89971794D01*
X126611151Y-89957197D01*
X126563513Y-89953751D01*
X126491630Y-89963889D01*
X126385785Y-89990043D01*
X126236260Y-90034645D01*
X126033339Y-90100129D01*
X125767302Y-90188926D01*
X125739692Y-90198225D01*
X125485659Y-90288903D01*
X125211867Y-90395078D01*
X124947291Y-90505014D01*
X124720907Y-90606973D01*
X124671537Y-90630896D01*
X124468386Y-90726401D01*
X124306032Y-90793014D01*
X124190009Y-90829616D01*
X124125851Y-90835089D01*
X124119090Y-90808316D01*
X124175260Y-90748179D01*
X124202434Y-90725676D01*
X124280408Y-90655437D01*
X124292650Y-90622961D01*
X124241647Y-90627877D01*
X124129888Y-90669816D01*
X123959860Y-90748407D01*
X123920850Y-90767613D01*
X123710096Y-90867689D01*
X123557464Y-90928175D01*
X123454679Y-90950705D01*
X123393464Y-90936913D01*
X123365544Y-90888432D01*
X123363622Y-90877621D01*
X123376911Y-90782079D01*
X123429886Y-90644967D01*
X123512628Y-90485108D01*
X123615219Y-90321328D01*
X123727743Y-90172451D01*
X123746715Y-90150467D01*
X123931698Y-89959005D01*
X124132830Y-89789940D01*
X124361556Y-89636649D01*
X124629325Y-89492513D01*
X124947582Y-89350913D01*
X125327773Y-89205228D01*
X125466153Y-89156045D01*
X125747800Y-89060383D01*
X126048022Y-88963528D01*
X126357430Y-88868035D01*
X126666632Y-88776456D01*
X126966237Y-88691345D01*
X127246853Y-88615254D01*
X127499091Y-88550737D01*
X127713557Y-88500348D01*
X127880862Y-88466639D01*
X127991614Y-88452164D01*
X128035103Y-88457617D01*
X128032516Y-88501931D01*
X128003765Y-88593845D01*
X127972400Y-88672440D01*
X127913894Y-88819034D01*
X127893142Y-88918153D01*
X127918595Y-88978806D01*
X127998705Y-89009998D01*
X128141923Y-89020736D01*
X128299230Y-89020748D01*
X128430673Y-89021981D01*
X128620562Y-89027323D01*
X128849342Y-89036051D01*
X129097455Y-89047444D01*
X129276153Y-89056838D01*
X129610752Y-89074727D01*
X129877816Y-89086525D01*
X130087779Y-89091480D01*
X130251079Y-89088837D01*
X130378151Y-89077843D01*
X130479430Y-89057746D01*
X130565353Y-89027793D01*
X130646354Y-88987229D01*
X130702854Y-88953872D01*
X130849170Y-88858657D01*
X131016810Y-88741292D01*
X131151846Y-88640628D01*
X131299292Y-88530373D01*
X131453932Y-88421251D01*
X131573159Y-88342724D01*
X131706324Y-88244180D01*
X131773183Y-88143795D01*
X131781502Y-88019981D01*
X131744245Y-87867187D01*
X131687721Y-87677806D01*
X131636360Y-87483390D01*
X131595113Y-87304988D01*
X131568932Y-87163649D01*
X131562153Y-87092999D01*
X131596013Y-87012227D01*
X131688339Y-86911368D01*
X131825250Y-86799901D01*
X131992866Y-86687302D01*
X132177306Y-86583048D01*
X132364689Y-86496616D01*
X132509842Y-86445963D01*
X132586997Y-86435981D01*
X132639753Y-86466547D01*
G37*
X132639753Y-86466547D02*
X132675943Y-86549262D01*
X132703399Y-86695728D01*
X132709583Y-86741847D01*
X132769510Y-87001520D01*
X132883819Y-87240355D01*
X133059447Y-87468897D01*
X133303331Y-87697692D01*
X133377918Y-87757847D01*
X133454729Y-87850040D01*
X133505337Y-87993626D01*
X133516245Y-88046488D01*
X133534031Y-88178989D01*
X133546308Y-88341967D01*
X133552936Y-88516899D01*
X133553777Y-88685264D01*
X133548690Y-88828539D01*
X133537536Y-88928203D01*
X133523159Y-88964807D01*
X133494494Y-88940441D01*
X133443881Y-88858755D01*
X133379840Y-88734398D01*
X133342243Y-88653706D01*
X133228806Y-88430967D01*
X133118728Y-88271122D01*
X133015739Y-88178216D01*
X132923571Y-88156293D01*
X132893153Y-88166878D01*
X132833393Y-88213169D01*
X132740948Y-88300372D01*
X132634637Y-88410619D01*
X132622446Y-88423887D01*
X132488256Y-88594542D01*
X132423178Y-88736491D01*
X132427849Y-88847918D01*
X132457895Y-88893031D01*
X132492256Y-88959068D01*
X132530830Y-89078639D01*
X132567950Y-89227752D01*
X132597950Y-89382412D01*
X132615165Y-89518627D01*
X132617230Y-89567776D01*
X132614910Y-89636085D01*
X132600755Y-89690500D01*
X132563971Y-89742990D01*
X132493766Y-89805525D01*
X132379347Y-89890075D01*
X132236230Y-89990302D01*
X132120856Y-90069677D01*
X131949617Y-90186244D01*
X131731669Y-90333829D01*
X131476164Y-90506259D01*
X131192258Y-90697359D01*
X130889105Y-90900956D01*
X130575858Y-91110874D01*
X130434273Y-91205602D01*
X129853954Y-91599694D01*
X129255347Y-92017392D01*
X128662039Y-92441891D01*
X128097617Y-92856383D01*
X127747734Y-93119840D01*
X126482153Y-94083885D01*
X126481935Y-94437789D01*
X126476070Y-94680709D01*
X126455806Y-94860820D01*
X126416626Y-94992838D01*
X126354013Y-95091478D01*
X126263450Y-95171459D01*
X126254904Y-95177464D01*
X126156320Y-95239310D01*
X126079952Y-95275896D01*
X126060721Y-95280154D01*
X126042424Y-95279180D01*
X126027281Y-95269181D01*
X126012336Y-95239544D01*
X125994636Y-95179654D01*
X125971226Y-95078898D01*
X125939153Y-94926660D01*
X125895460Y-94712328D01*
X125876099Y-94616846D01*
X125809476Y-94317787D01*
X125744851Y-94091509D01*
X125679955Y-93932757D01*
X125612517Y-93836275D01*
X125540269Y-93796806D01*
X125521283Y-93795231D01*
X125471202Y-93799682D01*
X125442198Y-93820398D01*
X125435340Y-93868427D01*
X125451696Y-93954818D01*
X125492334Y-94090617D01*
X125558321Y-94286873D01*
X125572913Y-94329298D01*
X125638247Y-94525391D01*
X125680614Y-94677474D01*
X125704961Y-94814536D01*
X125716235Y-94965566D01*
X125719383Y-95159553D01*
X125719452Y-95188039D01*
X125719507Y-95371906D01*
X125713242Y-95506824D01*
X125692041Y-95609691D01*
X125647289Y-95697402D01*
X125570373Y-95786854D01*
X125452678Y-95894943D01*
X125285993Y-96038219D01*
X124970950Y-96272466D01*
X124605896Y-96483509D01*
X124218516Y-96656601D01*
X123961692Y-96743583D01*
X123791672Y-96793932D01*
X123637227Y-96840927D01*
X123522948Y-96877037D01*
X123492769Y-96887173D01*
X123354527Y-96934873D01*
X123276379Y-96953200D01*
X123243873Y-96936250D01*
X123242558Y-96878119D01*
X123255425Y-96790218D01*
X123303090Y-96573332D01*
X123383090Y-96318378D01*
X123485767Y-96053203D01*
X123587443Y-95833046D01*
X123656799Y-95684088D01*
X123686223Y-95593938D01*
X123680652Y-95557419D01*
X123645027Y-95569350D01*
X123584285Y-95624552D01*
X123503365Y-95717846D01*
X123407207Y-95844053D01*
X123300749Y-95997992D01*
X123188930Y-96174486D01*
X123076689Y-96368353D01*
X123076269Y-96369114D01*
X122977512Y-96541266D01*
X122884552Y-96690949D01*
X122807218Y-96803137D01*
X122755338Y-96862800D01*
X122751645Y-96865486D01*
X122658355Y-96890618D01*
X122501748Y-96890453D01*
X122292072Y-96866084D01*
X122039573Y-96818602D01*
X121818533Y-96765979D01*
X121602845Y-96707292D01*
X121455069Y-96659192D01*
X121366268Y-96618034D01*
X121327507Y-96580170D01*
X121324000Y-96564125D01*
X121342591Y-96505631D01*
X121394846Y-96389119D01*
X121475490Y-96224331D01*
X121579246Y-96021010D01*
X121700837Y-95788899D01*
X121834989Y-95537741D01*
X121976424Y-95277279D01*
X122119866Y-95017256D01*
X122260039Y-94767414D01*
X122391667Y-94537497D01*
X122509474Y-94337247D01*
X122608183Y-94176408D01*
X122660182Y-94096759D01*
X122806809Y-93891231D01*
X122938081Y-93736010D01*
X123068421Y-93616892D01*
X125605377Y-93616892D01*
X125643150Y-93676271D01*
X125739092Y-93736248D01*
X125900917Y-93808184D01*
X125918549Y-93815458D01*
X126081652Y-93877124D01*
X126202020Y-93903924D01*
X126306278Y-93897009D01*
X126421049Y-93857532D01*
X126462615Y-93839005D01*
X126580541Y-93772165D01*
X126738421Y-93665197D01*
X126919173Y-93531408D01*
X127105715Y-93384100D01*
X127280966Y-93236579D01*
X127427842Y-93102149D01*
X127490536Y-93038404D01*
X127582740Y-92944274D01*
X127655893Y-92878815D01*
X127690955Y-92857385D01*
X127747762Y-92836413D01*
X127848373Y-92781663D01*
X127973429Y-92705385D01*
X128103570Y-92619828D01*
X128219438Y-92537241D01*
X128298089Y-92473219D01*
X128401508Y-92390520D01*
X128503382Y-92327858D01*
X128518500Y-92320917D01*
X128595077Y-92275896D01*
X128630418Y-92215106D01*
X128623096Y-92127484D01*
X128571682Y-92001969D01*
X128474752Y-91827498D01*
X128449372Y-91785083D01*
X128364949Y-91639493D01*
X128301630Y-91519290D01*
X128266895Y-91439398D01*
X128263929Y-91415065D01*
X128299094Y-91430046D01*
X128365712Y-91492530D01*
X128430276Y-91566193D01*
X128564607Y-91729827D01*
X128659640Y-91841226D01*
X128725734Y-91908507D01*
X128773248Y-91939786D01*
X128812541Y-91943177D01*
X128853972Y-91926798D01*
X128875834Y-91915267D01*
X128950719Y-91870787D01*
X129077650Y-91790432D01*
X129244190Y-91682489D01*
X129437903Y-91555244D01*
X129646353Y-91416983D01*
X129857104Y-91275993D01*
X130057720Y-91140559D01*
X130235765Y-91018967D01*
X130378802Y-90919505D01*
X130474395Y-90850457D01*
X130477769Y-90847904D01*
X130570224Y-90773608D01*
X130628091Y-90707298D01*
X130654400Y-90631543D01*
X130652184Y-90528911D01*
X130624474Y-90381970D01*
X130586476Y-90222795D01*
X130535025Y-90031865D01*
X130486101Y-89907974D01*
X130430044Y-89840967D01*
X130357192Y-89820685D01*
X130257885Y-89836971D01*
X130227726Y-89845586D01*
X130030860Y-89920323D01*
X129790334Y-90036334D01*
X129521770Y-90183964D01*
X129240790Y-90353560D01*
X128963017Y-90535466D01*
X128704071Y-90720028D01*
X128479575Y-90897592D01*
X128373560Y-90991462D01*
X128259148Y-91094297D01*
X128164078Y-91172391D01*
X128104073Y-91213086D01*
X128094445Y-91216154D01*
X128050962Y-91238328D01*
X127957155Y-91299351D01*
X127825071Y-91390980D01*
X127666756Y-91504970D01*
X127591425Y-91560430D01*
X127354007Y-91742565D01*
X127157343Y-91906036D01*
X127007566Y-92045115D01*
X126910807Y-92154070D01*
X126873197Y-92227173D01*
X126872923Y-92231867D01*
X126903845Y-92270867D01*
X126982645Y-92330069D01*
X127039355Y-92365473D01*
X127146340Y-92437513D01*
X127256652Y-92526466D01*
X127355089Y-92617837D01*
X127426448Y-92697133D01*
X127455525Y-92749857D01*
X127452701Y-92759555D01*
X127413743Y-92748634D01*
X127334471Y-92699014D01*
X127259988Y-92643252D01*
X127100922Y-92535837D01*
X126937244Y-92457299D01*
X126787995Y-92414411D01*
X126672217Y-92413944D01*
X126644442Y-92424338D01*
X126586514Y-92469940D01*
X126488676Y-92562040D01*
X126362516Y-92688345D01*
X126219619Y-92836562D01*
X126071572Y-92994399D01*
X125929961Y-93149563D01*
X125806373Y-93289761D01*
X125712392Y-93402701D01*
X125673491Y-93454485D01*
X125618062Y-93546750D01*
X125605377Y-93616892D01*
X123068421Y-93616892D01*
X123074064Y-93611735D01*
X123234828Y-93499051D01*
X123353898Y-93427583D01*
X123472410Y-93356012D01*
X123574464Y-93284439D01*
X123672451Y-93201118D01*
X123778762Y-93094298D01*
X123905788Y-92952233D01*
X124065920Y-92763174D01*
X124108384Y-92712230D01*
X124312221Y-92473981D01*
X124560182Y-92195007D01*
X124839827Y-91888513D01*
X125138714Y-91567704D01*
X125444403Y-91245784D01*
X125744451Y-90935958D01*
X126026417Y-90651429D01*
X126277861Y-90405403D01*
X126317765Y-90367322D01*
X126477601Y-90212148D01*
X126583182Y-90100941D01*
X126639900Y-90027170D01*
X126653147Y-89984301D01*
X126644262Y-89971794D01*
X126611151Y-89957197D01*
X126563513Y-89953751D01*
X126491630Y-89963889D01*
X126385785Y-89990043D01*
X126236260Y-90034645D01*
X126033339Y-90100129D01*
X125767302Y-90188926D01*
X125739692Y-90198225D01*
X125485659Y-90288903D01*
X125211867Y-90395078D01*
X124947291Y-90505014D01*
X124720907Y-90606973D01*
X124671537Y-90630896D01*
X124468386Y-90726401D01*
X124306032Y-90793014D01*
X124190009Y-90829616D01*
X124125851Y-90835089D01*
X124119090Y-90808316D01*
X124175260Y-90748179D01*
X124202434Y-90725676D01*
X124280408Y-90655437D01*
X124292650Y-90622961D01*
X124241647Y-90627877D01*
X124129888Y-90669816D01*
X123959860Y-90748407D01*
X123920850Y-90767613D01*
X123710096Y-90867689D01*
X123557464Y-90928175D01*
X123454679Y-90950705D01*
X123393464Y-90936913D01*
X123365544Y-90888432D01*
X123363622Y-90877621D01*
X123376911Y-90782079D01*
X123429886Y-90644967D01*
X123512628Y-90485108D01*
X123615219Y-90321328D01*
X123727743Y-90172451D01*
X123746715Y-90150467D01*
X123931698Y-89959005D01*
X124132830Y-89789940D01*
X124361556Y-89636649D01*
X124629325Y-89492513D01*
X124947582Y-89350913D01*
X125327773Y-89205228D01*
X125466153Y-89156045D01*
X125747800Y-89060383D01*
X126048022Y-88963528D01*
X126357430Y-88868035D01*
X126666632Y-88776456D01*
X126966237Y-88691345D01*
X127246853Y-88615254D01*
X127499091Y-88550737D01*
X127713557Y-88500348D01*
X127880862Y-88466639D01*
X127991614Y-88452164D01*
X128035103Y-88457617D01*
X128032516Y-88501931D01*
X128003765Y-88593845D01*
X127972400Y-88672440D01*
X127913894Y-88819034D01*
X127893142Y-88918153D01*
X127918595Y-88978806D01*
X127998705Y-89009998D01*
X128141923Y-89020736D01*
X128299230Y-89020748D01*
X128430673Y-89021981D01*
X128620562Y-89027323D01*
X128849342Y-89036051D01*
X129097455Y-89047444D01*
X129276153Y-89056838D01*
X129610752Y-89074727D01*
X129877816Y-89086525D01*
X130087779Y-89091480D01*
X130251079Y-89088837D01*
X130378151Y-89077843D01*
X130479430Y-89057746D01*
X130565353Y-89027793D01*
X130646354Y-88987229D01*
X130702854Y-88953872D01*
X130849170Y-88858657D01*
X131016810Y-88741292D01*
X131151846Y-88640628D01*
X131299292Y-88530373D01*
X131453932Y-88421251D01*
X131573159Y-88342724D01*
X131706324Y-88244180D01*
X131773183Y-88143795D01*
X131781502Y-88019981D01*
X131744245Y-87867187D01*
X131687721Y-87677806D01*
X131636360Y-87483390D01*
X131595113Y-87304988D01*
X131568932Y-87163649D01*
X131562153Y-87092999D01*
X131596013Y-87012227D01*
X131688339Y-86911368D01*
X131825250Y-86799901D01*
X131992866Y-86687302D01*
X132177306Y-86583048D01*
X132364689Y-86496616D01*
X132509842Y-86445963D01*
X132586997Y-86435981D01*
X132639753Y-86466547D01*
G36*
X138883890Y-90800966D02*
G01*
X139013684Y-90814254D01*
X139119204Y-90822828D01*
X139153813Y-90824436D01*
X139217507Y-90858264D01*
X139262143Y-90927906D01*
X139322580Y-91028484D01*
X139397945Y-91106588D01*
X139477322Y-91200020D01*
X139482295Y-91300557D01*
X139412323Y-91413243D01*
X139359230Y-91466532D01*
X139223691Y-91590681D01*
X139188451Y-92680363D01*
X139177827Y-93048272D01*
X139172453Y-93345513D01*
X139172724Y-93579422D01*
X139179032Y-93757332D01*
X139191769Y-93886579D01*
X139211327Y-93974497D01*
X139238099Y-94028421D01*
X139261754Y-94050125D01*
X139293964Y-94108877D01*
X139294692Y-94198827D01*
X139265243Y-94280229D01*
X139253742Y-94294166D01*
X139233139Y-94340977D01*
X139239911Y-94424942D01*
X139275615Y-94562671D01*
X139280395Y-94578585D01*
X139318855Y-94729809D01*
X139319063Y-94823172D01*
X139275824Y-94871633D01*
X139183943Y-94888149D01*
X139156042Y-94888787D01*
X139062319Y-94896629D01*
X139019273Y-94905828D01*
X138936907Y-94908281D01*
X138908615Y-94901121D01*
X138822935Y-94841082D01*
X138749221Y-94744636D01*
X138714399Y-94647790D01*
X138714099Y-94641026D01*
X138737595Y-94564896D01*
X138796633Y-94470186D01*
X138810923Y-94452412D01*
X138889295Y-94344174D01*
X138911908Y-94280274D01*
X138883612Y-94267352D01*
X138809261Y-94312046D01*
X138747852Y-94366115D01*
X138654985Y-94432263D01*
X138588852Y-94433249D01*
X138558088Y-94369949D01*
X138556923Y-94346739D01*
X138571093Y-94276810D01*
X138608197Y-94160628D01*
X138658786Y-94026942D01*
X138717116Y-93838506D01*
X138762834Y-93589367D01*
X138796325Y-93275629D01*
X138817972Y-92893397D01*
X138828158Y-92438775D01*
X138829009Y-92297582D01*
X138830215Y-92094264D01*
X138827992Y-91951800D01*
X138815667Y-91852955D01*
X138786562Y-91780497D01*
X138734002Y-91717192D01*
X138651312Y-91645808D01*
X138542440Y-91557819D01*
X138451253Y-91437574D01*
X138428177Y-91286674D01*
X138473008Y-91112426D01*
X138559044Y-90959071D01*
X138683318Y-90778444D01*
X138883890Y-90800966D01*
G37*
X138883890Y-90800966D02*
X139013684Y-90814254D01*
X139119204Y-90822828D01*
X139153813Y-90824436D01*
X139217507Y-90858264D01*
X139262143Y-90927906D01*
X139322580Y-91028484D01*
X139397945Y-91106588D01*
X139477322Y-91200020D01*
X139482295Y-91300557D01*
X139412323Y-91413243D01*
X139359230Y-91466532D01*
X139223691Y-91590681D01*
X139188451Y-92680363D01*
X139177827Y-93048272D01*
X139172453Y-93345513D01*
X139172724Y-93579422D01*
X139179032Y-93757332D01*
X139191769Y-93886579D01*
X139211327Y-93974497D01*
X139238099Y-94028421D01*
X139261754Y-94050125D01*
X139293964Y-94108877D01*
X139294692Y-94198827D01*
X139265243Y-94280229D01*
X139253742Y-94294166D01*
X139233139Y-94340977D01*
X139239911Y-94424942D01*
X139275615Y-94562671D01*
X139280395Y-94578585D01*
X139318855Y-94729809D01*
X139319063Y-94823172D01*
X139275824Y-94871633D01*
X139183943Y-94888149D01*
X139156042Y-94888787D01*
X139062319Y-94896629D01*
X139019273Y-94905828D01*
X138936907Y-94908281D01*
X138908615Y-94901121D01*
X138822935Y-94841082D01*
X138749221Y-94744636D01*
X138714399Y-94647790D01*
X138714099Y-94641026D01*
X138737595Y-94564896D01*
X138796633Y-94470186D01*
X138810923Y-94452412D01*
X138889295Y-94344174D01*
X138911908Y-94280274D01*
X138883612Y-94267352D01*
X138809261Y-94312046D01*
X138747852Y-94366115D01*
X138654985Y-94432263D01*
X138588852Y-94433249D01*
X138558088Y-94369949D01*
X138556923Y-94346739D01*
X138571093Y-94276810D01*
X138608197Y-94160628D01*
X138658786Y-94026942D01*
X138717116Y-93838506D01*
X138762834Y-93589367D01*
X138796325Y-93275629D01*
X138817972Y-92893397D01*
X138828158Y-92438775D01*
X138829009Y-92297582D01*
X138830215Y-92094264D01*
X138827992Y-91951800D01*
X138815667Y-91852955D01*
X138786562Y-91780497D01*
X138734002Y-91717192D01*
X138651312Y-91645808D01*
X138542440Y-91557819D01*
X138451253Y-91437574D01*
X138428177Y-91286674D01*
X138473008Y-91112426D01*
X138559044Y-90959071D01*
X138683318Y-90778444D01*
X138883890Y-90800966D01*
G36*
X133063076Y-88524205D02*
G01*
X133116994Y-88627773D01*
X133131345Y-88666908D01*
X133184597Y-88816958D01*
X133245992Y-88986882D01*
X133273565Y-89062138D01*
X133351056Y-89272275D01*
X133243711Y-89433368D01*
X133176673Y-89537956D01*
X133085088Y-89686096D01*
X132983698Y-89853783D01*
X132928795Y-89946154D01*
X132769635Y-90204845D01*
X132628044Y-90405870D01*
X132490482Y-90563258D01*
X132343412Y-90691038D01*
X132173295Y-90803239D01*
X132021948Y-90885858D01*
X131608412Y-91115372D01*
X131154742Y-91399330D01*
X130658963Y-91739113D01*
X130119102Y-92136105D01*
X129533184Y-92591689D01*
X129178663Y-92877453D01*
X128831744Y-93159796D01*
X128536078Y-93399057D01*
X128282876Y-93602188D01*
X128063352Y-93776138D01*
X127868716Y-93927859D01*
X127690183Y-94064301D01*
X127518963Y-94192415D01*
X127477113Y-94223336D01*
X127301718Y-94354464D01*
X127128307Y-94487277D01*
X126978052Y-94605383D01*
X126880355Y-94685357D01*
X126778985Y-94765463D01*
X126702604Y-94814594D01*
X126667808Y-94822126D01*
X126662478Y-94771391D01*
X126662101Y-94663103D01*
X126666607Y-94517700D01*
X126669031Y-94467388D01*
X126685988Y-94143083D01*
X127277686Y-93703049D01*
X127509758Y-93529503D01*
X127762771Y-93338696D01*
X128013214Y-93148460D01*
X128237575Y-92976625D01*
X128344296Y-92894123D01*
X128550548Y-92735433D01*
X128774554Y-92565584D01*
X128991164Y-92403503D01*
X129175230Y-92268117D01*
X129197909Y-92251693D01*
X129360136Y-92133680D01*
X129511165Y-92022326D01*
X129632715Y-91931193D01*
X129699921Y-91879186D01*
X129797027Y-91808101D01*
X129932151Y-91717598D01*
X130073170Y-91629037D01*
X130216256Y-91540777D01*
X130396388Y-91427219D01*
X130585429Y-91306186D01*
X130688128Y-91239544D01*
X130867960Y-91123385D01*
X131086616Y-90984032D01*
X131316279Y-90839123D01*
X131526136Y-90708154D01*
X131723290Y-90585113D01*
X131921251Y-90460048D01*
X132098391Y-90346715D01*
X132233082Y-90258872D01*
X132245120Y-90250860D01*
X132379918Y-90166513D01*
X132503405Y-90098918D01*
X132590320Y-90061824D01*
X132594613Y-90060666D01*
X132698047Y-89996780D01*
X132772606Y-89872778D01*
X132816614Y-89701812D01*
X132828395Y-89497034D01*
X132806272Y-89271595D01*
X132748569Y-89038648D01*
X132731243Y-88988546D01*
X132641185Y-88741553D01*
X132792026Y-88611161D01*
X132913559Y-88518030D01*
X132999587Y-88488334D01*
X133063076Y-88524205D01*
G37*
X133063076Y-88524205D02*
X133116994Y-88627773D01*
X133131345Y-88666908D01*
X133184597Y-88816958D01*
X133245992Y-88986882D01*
X133273565Y-89062138D01*
X133351056Y-89272275D01*
X133243711Y-89433368D01*
X133176673Y-89537956D01*
X133085088Y-89686096D01*
X132983698Y-89853783D01*
X132928795Y-89946154D01*
X132769635Y-90204845D01*
X132628044Y-90405870D01*
X132490482Y-90563258D01*
X132343412Y-90691038D01*
X132173295Y-90803239D01*
X132021948Y-90885858D01*
X131608412Y-91115372D01*
X131154742Y-91399330D01*
X130658963Y-91739113D01*
X130119102Y-92136105D01*
X129533184Y-92591689D01*
X129178663Y-92877453D01*
X128831744Y-93159796D01*
X128536078Y-93399057D01*
X128282876Y-93602188D01*
X128063352Y-93776138D01*
X127868716Y-93927859D01*
X127690183Y-94064301D01*
X127518963Y-94192415D01*
X127477113Y-94223336D01*
X127301718Y-94354464D01*
X127128307Y-94487277D01*
X126978052Y-94605383D01*
X126880355Y-94685357D01*
X126778985Y-94765463D01*
X126702604Y-94814594D01*
X126667808Y-94822126D01*
X126662478Y-94771391D01*
X126662101Y-94663103D01*
X126666607Y-94517700D01*
X126669031Y-94467388D01*
X126685988Y-94143083D01*
X127277686Y-93703049D01*
X127509758Y-93529503D01*
X127762771Y-93338696D01*
X128013214Y-93148460D01*
X128237575Y-92976625D01*
X128344296Y-92894123D01*
X128550548Y-92735433D01*
X128774554Y-92565584D01*
X128991164Y-92403503D01*
X129175230Y-92268117D01*
X129197909Y-92251693D01*
X129360136Y-92133680D01*
X129511165Y-92022326D01*
X129632715Y-91931193D01*
X129699921Y-91879186D01*
X129797027Y-91808101D01*
X129932151Y-91717598D01*
X130073170Y-91629037D01*
X130216256Y-91540777D01*
X130396388Y-91427219D01*
X130585429Y-91306186D01*
X130688128Y-91239544D01*
X130867960Y-91123385D01*
X131086616Y-90984032D01*
X131316279Y-90839123D01*
X131526136Y-90708154D01*
X131723290Y-90585113D01*
X131921251Y-90460048D01*
X132098391Y-90346715D01*
X132233082Y-90258872D01*
X132245120Y-90250860D01*
X132379918Y-90166513D01*
X132503405Y-90098918D01*
X132590320Y-90061824D01*
X132594613Y-90060666D01*
X132698047Y-89996780D01*
X132772606Y-89872778D01*
X132816614Y-89701812D01*
X132828395Y-89497034D01*
X132806272Y-89271595D01*
X132748569Y-89038648D01*
X132731243Y-88988546D01*
X132641185Y-88741553D01*
X132792026Y-88611161D01*
X132913559Y-88518030D01*
X132999587Y-88488334D01*
X133063076Y-88524205D01*
G36*
X124185173Y-90988127D02*
G01*
X124207858Y-91023145D01*
X124195386Y-91108693D01*
X124155186Y-91237754D01*
X124102310Y-91352680D01*
X124049479Y-91424965D01*
X123977761Y-91467582D01*
X123860621Y-91494591D01*
X123824011Y-91500139D01*
X123671189Y-91534744D01*
X123544643Y-91599568D01*
X123435290Y-91686396D01*
X123352879Y-91757888D01*
X123222341Y-91869859D01*
X123055292Y-92012403D01*
X122863351Y-92175614D01*
X122658135Y-92349585D01*
X122583116Y-92413049D01*
X122386193Y-92581213D01*
X122208493Y-92736124D01*
X122059143Y-92869571D01*
X121947270Y-92973339D01*
X121881999Y-93039214D01*
X121869962Y-93054852D01*
X121842266Y-93145296D01*
X121832000Y-93247526D01*
X121801662Y-93424858D01*
X121718162Y-93564325D01*
X121592769Y-93652768D01*
X121463338Y-93678000D01*
X121386774Y-93661196D01*
X121369398Y-93605798D01*
X121409617Y-93504329D01*
X121421692Y-93482616D01*
X121470567Y-93383069D01*
X121471519Y-93334722D01*
X121446157Y-93326308D01*
X121411204Y-93356922D01*
X121345685Y-93439067D01*
X121260776Y-93558199D01*
X121211394Y-93631879D01*
X121069129Y-93841344D01*
X120957501Y-93987324D01*
X120870536Y-94075378D01*
X120802257Y-94111070D01*
X120746691Y-94099961D01*
X120726370Y-94083345D01*
X120723505Y-94025944D01*
X120768625Y-93908967D01*
X120861012Y-93733960D01*
X120985984Y-93524884D01*
X121074724Y-93374857D01*
X121151009Y-93233119D01*
X121201554Y-93124727D01*
X121209288Y-93103753D01*
X121260267Y-93006628D01*
X121352892Y-92926928D01*
X121445909Y-92874553D01*
X121864580Y-92630686D01*
X122267858Y-92334965D01*
X122314308Y-92296462D01*
X122458216Y-92177457D01*
X122606656Y-92057778D01*
X122728111Y-91962827D01*
X122730769Y-91960808D01*
X122833307Y-91876105D01*
X122969744Y-91753992D01*
X123119569Y-91613161D01*
X123219230Y-91515644D01*
X123445460Y-91311327D01*
X123667781Y-91150425D01*
X123874916Y-91039689D01*
X124055587Y-90985867D01*
X124111335Y-90981724D01*
X124185173Y-90988127D01*
G37*
X124185173Y-90988127D02*
X124207858Y-91023145D01*
X124195386Y-91108693D01*
X124155186Y-91237754D01*
X124102310Y-91352680D01*
X124049479Y-91424965D01*
X123977761Y-91467582D01*
X123860621Y-91494591D01*
X123824011Y-91500139D01*
X123671189Y-91534744D01*
X123544643Y-91599568D01*
X123435290Y-91686396D01*
X123352879Y-91757888D01*
X123222341Y-91869859D01*
X123055292Y-92012403D01*
X122863351Y-92175614D01*
X122658135Y-92349585D01*
X122583116Y-92413049D01*
X122386193Y-92581213D01*
X122208493Y-92736124D01*
X122059143Y-92869571D01*
X121947270Y-92973339D01*
X121881999Y-93039214D01*
X121869962Y-93054852D01*
X121842266Y-93145296D01*
X121832000Y-93247526D01*
X121801662Y-93424858D01*
X121718162Y-93564325D01*
X121592769Y-93652768D01*
X121463338Y-93678000D01*
X121386774Y-93661196D01*
X121369398Y-93605798D01*
X121409617Y-93504329D01*
X121421692Y-93482616D01*
X121470567Y-93383069D01*
X121471519Y-93334722D01*
X121446157Y-93326308D01*
X121411204Y-93356922D01*
X121345685Y-93439067D01*
X121260776Y-93558199D01*
X121211394Y-93631879D01*
X121069129Y-93841344D01*
X120957501Y-93987324D01*
X120870536Y-94075378D01*
X120802257Y-94111070D01*
X120746691Y-94099961D01*
X120726370Y-94083345D01*
X120723505Y-94025944D01*
X120768625Y-93908967D01*
X120861012Y-93733960D01*
X120985984Y-93524884D01*
X121074724Y-93374857D01*
X121151009Y-93233119D01*
X121201554Y-93124727D01*
X121209288Y-93103753D01*
X121260267Y-93006628D01*
X121352892Y-92926928D01*
X121445909Y-92874553D01*
X121864580Y-92630686D01*
X122267858Y-92334965D01*
X122314308Y-92296462D01*
X122458216Y-92177457D01*
X122606656Y-92057778D01*
X122728111Y-91962827D01*
X122730769Y-91960808D01*
X122833307Y-91876105D01*
X122969744Y-91753992D01*
X123119569Y-91613161D01*
X123219230Y-91515644D01*
X123445460Y-91311327D01*
X123667781Y-91150425D01*
X123874916Y-91039689D01*
X124055587Y-90985867D01*
X124111335Y-90981724D01*
X124185173Y-90988127D01*
G36*
X133713010Y-90889954D02*
G01*
X133913923Y-90894928D01*
X134130426Y-90903557D01*
X134346940Y-90915174D01*
X134547890Y-90929117D01*
X134717696Y-90944720D01*
X134840782Y-90961319D01*
X134873923Y-90968207D01*
X134946859Y-91013108D01*
X134959592Y-91089021D01*
X134918872Y-91186642D01*
X134831450Y-91296672D01*
X134704076Y-91409807D01*
X134543502Y-91516747D01*
X134434307Y-91573937D01*
X134245303Y-91651000D01*
X134091399Y-91678046D01*
X133947154Y-91654486D01*
X133787129Y-91579730D01*
X133750147Y-91558077D01*
X133599402Y-91451136D01*
X133485957Y-91324152D01*
X133409952Y-91202218D01*
X133345182Y-91084861D01*
X133299033Y-90997573D01*
X133281538Y-90959362D01*
X133311321Y-90932443D01*
X133359577Y-90903600D01*
X133420259Y-90893625D01*
X133543263Y-90889298D01*
X133713010Y-90889954D01*
G37*
X133713010Y-90889954D02*
X133913923Y-90894928D01*
X134130426Y-90903557D01*
X134346940Y-90915174D01*
X134547890Y-90929117D01*
X134717696Y-90944720D01*
X134840782Y-90961319D01*
X134873923Y-90968207D01*
X134946859Y-91013108D01*
X134959592Y-91089021D01*
X134918872Y-91186642D01*
X134831450Y-91296672D01*
X134704076Y-91409807D01*
X134543502Y-91516747D01*
X134434307Y-91573937D01*
X134245303Y-91651000D01*
X134091399Y-91678046D01*
X133947154Y-91654486D01*
X133787129Y-91579730D01*
X133750147Y-91558077D01*
X133599402Y-91451136D01*
X133485957Y-91324152D01*
X133409952Y-91202218D01*
X133345182Y-91084861D01*
X133299033Y-90997573D01*
X133281538Y-90959362D01*
X133311321Y-90932443D01*
X133359577Y-90903600D01*
X133420259Y-90893625D01*
X133543263Y-90889298D01*
X133713010Y-90889954D01*
G36*
X138270711Y-89488795D02*
G01*
X138534038Y-89584741D01*
X138791622Y-89676928D01*
X139028093Y-89759981D01*
X139228083Y-89828524D01*
X139376225Y-89877183D01*
X139416615Y-89889606D01*
X139574486Y-89939526D01*
X139717092Y-89989809D01*
X139815849Y-90030317D01*
X139822233Y-90033450D01*
X139934774Y-90090184D01*
X139907707Y-90428477D01*
X139888808Y-90594082D01*
X139862231Y-90738355D01*
X139832806Y-90836837D01*
X139823573Y-90854693D01*
X139735584Y-90926245D01*
X139616071Y-90945410D01*
X139491081Y-90912654D01*
X139402574Y-90847162D01*
X139342932Y-90797515D01*
X139258370Y-90759072D01*
X139131361Y-90725936D01*
X138944378Y-90692214D01*
X138939618Y-90691447D01*
X138764765Y-90660978D01*
X138608670Y-90629611D01*
X138494740Y-90602229D01*
X138460788Y-90591516D01*
X138352400Y-90565223D01*
X138218546Y-90551125D01*
X138192917Y-90550474D01*
X138064955Y-90540922D01*
X137901824Y-90517598D01*
X137775384Y-90493231D01*
X137623060Y-90468793D01*
X137424582Y-90449466D01*
X137211916Y-90437974D01*
X137103613Y-90435989D01*
X136930723Y-90432349D01*
X136788432Y-90423573D01*
X136693861Y-90411074D01*
X136664258Y-90399690D01*
X136666660Y-90339638D01*
X136706230Y-90229857D01*
X136774945Y-90084383D01*
X136864782Y-89917251D01*
X136967715Y-89742495D01*
X137075722Y-89574151D01*
X137180779Y-89426254D01*
X137274863Y-89312837D01*
X137300323Y-89287087D01*
X137417884Y-89175096D01*
X138270711Y-89488795D01*
G37*
X138270711Y-89488795D02*
X138534038Y-89584741D01*
X138791622Y-89676928D01*
X139028093Y-89759981D01*
X139228083Y-89828524D01*
X139376225Y-89877183D01*
X139416615Y-89889606D01*
X139574486Y-89939526D01*
X139717092Y-89989809D01*
X139815849Y-90030317D01*
X139822233Y-90033450D01*
X139934774Y-90090184D01*
X139907707Y-90428477D01*
X139888808Y-90594082D01*
X139862231Y-90738355D01*
X139832806Y-90836837D01*
X139823573Y-90854693D01*
X139735584Y-90926245D01*
X139616071Y-90945410D01*
X139491081Y-90912654D01*
X139402574Y-90847162D01*
X139342932Y-90797515D01*
X139258370Y-90759072D01*
X139131361Y-90725936D01*
X138944378Y-90692214D01*
X138939618Y-90691447D01*
X138764765Y-90660978D01*
X138608670Y-90629611D01*
X138494740Y-90602229D01*
X138460788Y-90591516D01*
X138352400Y-90565223D01*
X138218546Y-90551125D01*
X138192917Y-90550474D01*
X138064955Y-90540922D01*
X137901824Y-90517598D01*
X137775384Y-90493231D01*
X137623060Y-90468793D01*
X137424582Y-90449466D01*
X137211916Y-90437974D01*
X137103613Y-90435989D01*
X136930723Y-90432349D01*
X136788432Y-90423573D01*
X136693861Y-90411074D01*
X136664258Y-90399690D01*
X136666660Y-90339638D01*
X136706230Y-90229857D01*
X136774945Y-90084383D01*
X136864782Y-89917251D01*
X136967715Y-89742495D01*
X137075722Y-89574151D01*
X137180779Y-89426254D01*
X137274863Y-89312837D01*
X137300323Y-89287087D01*
X137417884Y-89175096D01*
X138270711Y-89488795D01*
G36*
X134257304Y-89876569D02*
G01*
X134449653Y-89942432D01*
X134622997Y-90070412D01*
X134766635Y-90257428D01*
X134842813Y-90419231D01*
X134882225Y-90543361D01*
X134901449Y-90643178D01*
X134899517Y-90684203D01*
X134849623Y-90722438D01*
X134739958Y-90759918D01*
X134633430Y-90782790D01*
X134487068Y-90808107D01*
X134398725Y-90820110D01*
X134349247Y-90817833D01*
X134319483Y-90800307D01*
X134290277Y-90766567D01*
X134289309Y-90765414D01*
X134199858Y-90664769D01*
X134134688Y-90612241D01*
X134071781Y-90592978D01*
X134030978Y-90591181D01*
X133925662Y-90613110D01*
X133814026Y-90665859D01*
X133809077Y-90669077D01*
X133711903Y-90711118D01*
X133584248Y-90739202D01*
X133454359Y-90750345D01*
X133350484Y-90741565D01*
X133308359Y-90721949D01*
X133310013Y-90673617D01*
X133347624Y-90579678D01*
X133411158Y-90457718D01*
X133490582Y-90325319D01*
X133575861Y-90200065D01*
X133656963Y-90099541D01*
X133673245Y-90082493D01*
X133858399Y-89943519D01*
X134056652Y-89875904D01*
X134257304Y-89876569D01*
G37*
X134257304Y-89876569D02*
X134449653Y-89942432D01*
X134622997Y-90070412D01*
X134766635Y-90257428D01*
X134842813Y-90419231D01*
X134882225Y-90543361D01*
X134901449Y-90643178D01*
X134899517Y-90684203D01*
X134849623Y-90722438D01*
X134739958Y-90759918D01*
X134633430Y-90782790D01*
X134487068Y-90808107D01*
X134398725Y-90820110D01*
X134349247Y-90817833D01*
X134319483Y-90800307D01*
X134290277Y-90766567D01*
X134289309Y-90765414D01*
X134199858Y-90664769D01*
X134134688Y-90612241D01*
X134071781Y-90592978D01*
X134030978Y-90591181D01*
X133925662Y-90613110D01*
X133814026Y-90665859D01*
X133809077Y-90669077D01*
X133711903Y-90711118D01*
X133584248Y-90739202D01*
X133454359Y-90750345D01*
X133350484Y-90741565D01*
X133308359Y-90721949D01*
X133310013Y-90673617D01*
X133347624Y-90579678D01*
X133411158Y-90457718D01*
X133490582Y-90325319D01*
X133575861Y-90200065D01*
X133656963Y-90099541D01*
X133673245Y-90082493D01*
X133858399Y-89943519D01*
X134056652Y-89875904D01*
X134257304Y-89876569D01*
G36*
X135494049Y-88475627D02*
G01*
X135787256Y-88601782D01*
X136066279Y-88719315D01*
X136320786Y-88824062D01*
X136540445Y-88911863D01*
X136714923Y-88978557D01*
X136833890Y-89019983D01*
X136871511Y-89030402D01*
X136983944Y-89060657D01*
X137056691Y-89092023D01*
X137072000Y-89108859D01*
X137051282Y-89156156D01*
X136996524Y-89248708D01*
X136918815Y-89367965D01*
X136904552Y-89388928D01*
X136815620Y-89533896D01*
X136714520Y-89722012D01*
X136616864Y-89923374D01*
X136569629Y-90030469D01*
X136402152Y-90427399D01*
X135984845Y-90583309D01*
X135816537Y-90643720D01*
X135675121Y-90689850D01*
X135576423Y-90716837D01*
X135537181Y-90720731D01*
X135506957Y-90679505D01*
X135452329Y-90585318D01*
X135383124Y-90455470D01*
X135353808Y-90397912D01*
X135179817Y-90110452D01*
X134975499Y-89873384D01*
X134751612Y-89698395D01*
X134667837Y-89652626D01*
X134453092Y-89588702D01*
X134209597Y-89581459D01*
X133956998Y-89626214D01*
X133714942Y-89718284D01*
X133503075Y-89852983D01*
X133395379Y-89955986D01*
X133323226Y-90053573D01*
X133234734Y-90195234D01*
X133146420Y-90354131D01*
X133126715Y-90392585D01*
X133029476Y-90570601D01*
X132947886Y-90682752D01*
X132874520Y-90737846D01*
X132827731Y-90747231D01*
X132800476Y-90716674D01*
X132788192Y-90689979D01*
X132797942Y-90628041D01*
X132847275Y-90515566D01*
X132928635Y-90364353D01*
X133034464Y-90186199D01*
X133157205Y-89992902D01*
X133289299Y-89796262D01*
X133423189Y-89608076D01*
X133551317Y-89440143D01*
X133666126Y-89304260D01*
X133696833Y-89271518D01*
X133905267Y-89056317D01*
X133896249Y-88582928D01*
X133887230Y-88109539D01*
X134102153Y-88036693D01*
X134317077Y-87963848D01*
X135494049Y-88475627D01*
G37*
X135494049Y-88475627D02*
X135787256Y-88601782D01*
X136066279Y-88719315D01*
X136320786Y-88824062D01*
X136540445Y-88911863D01*
X136714923Y-88978557D01*
X136833890Y-89019983D01*
X136871511Y-89030402D01*
X136983944Y-89060657D01*
X137056691Y-89092023D01*
X137072000Y-89108859D01*
X137051282Y-89156156D01*
X136996524Y-89248708D01*
X136918815Y-89367965D01*
X136904552Y-89388928D01*
X136815620Y-89533896D01*
X136714520Y-89722012D01*
X136616864Y-89923374D01*
X136569629Y-90030469D01*
X136402152Y-90427399D01*
X135984845Y-90583309D01*
X135816537Y-90643720D01*
X135675121Y-90689850D01*
X135576423Y-90716837D01*
X135537181Y-90720731D01*
X135506957Y-90679505D01*
X135452329Y-90585318D01*
X135383124Y-90455470D01*
X135353808Y-90397912D01*
X135179817Y-90110452D01*
X134975499Y-89873384D01*
X134751612Y-89698395D01*
X134667837Y-89652626D01*
X134453092Y-89588702D01*
X134209597Y-89581459D01*
X133956998Y-89626214D01*
X133714942Y-89718284D01*
X133503075Y-89852983D01*
X133395379Y-89955986D01*
X133323226Y-90053573D01*
X133234734Y-90195234D01*
X133146420Y-90354131D01*
X133126715Y-90392585D01*
X133029476Y-90570601D01*
X132947886Y-90682752D01*
X132874520Y-90737846D01*
X132827731Y-90747231D01*
X132800476Y-90716674D01*
X132788192Y-90689979D01*
X132797942Y-90628041D01*
X132847275Y-90515566D01*
X132928635Y-90364353D01*
X133034464Y-90186199D01*
X133157205Y-89992902D01*
X133289299Y-89796262D01*
X133423189Y-89608076D01*
X133551317Y-89440143D01*
X133666126Y-89304260D01*
X133696833Y-89271518D01*
X133905267Y-89056317D01*
X133896249Y-88582928D01*
X133887230Y-88109539D01*
X134102153Y-88036693D01*
X134317077Y-87963848D01*
X135494049Y-88475627D01*
G36*
X130101270Y-87159967D02*
G01*
X130321125Y-87170414D01*
X130517029Y-87185495D01*
X130673952Y-87204752D01*
X130776866Y-87227726D01*
X130806508Y-87243176D01*
X130799712Y-87285346D01*
X130749404Y-87356882D01*
X130728920Y-87379392D01*
X130661331Y-87459341D01*
X130625863Y-87519638D01*
X130624307Y-87528042D01*
X130595932Y-87596223D01*
X130518117Y-87703249D01*
X130401831Y-87838376D01*
X130258040Y-87990862D01*
X130097713Y-88149961D01*
X129931817Y-88304932D01*
X129771319Y-88445029D01*
X129627188Y-88559510D01*
X129510391Y-88637631D01*
X129471538Y-88657268D01*
X129309920Y-88703465D01*
X129107718Y-88729006D01*
X128900428Y-88731131D01*
X128750744Y-88713301D01*
X128642412Y-88688756D01*
X128568611Y-88659365D01*
X128528264Y-88613881D01*
X128520292Y-88541057D01*
X128543619Y-88429648D01*
X128597166Y-88268407D01*
X128679857Y-88046087D01*
X128685410Y-88031385D01*
X128784524Y-87771120D01*
X128862479Y-87574506D01*
X128924907Y-87431774D01*
X128977441Y-87333158D01*
X129025716Y-87268890D01*
X129075363Y-87229203D01*
X129132015Y-87204328D01*
X129168754Y-87193269D01*
X129282925Y-87173677D01*
X129448291Y-87161008D01*
X129649823Y-87154806D01*
X129872493Y-87154611D01*
X130101270Y-87159967D01*
G37*
X130101270Y-87159967D02*
X130321125Y-87170414D01*
X130517029Y-87185495D01*
X130673952Y-87204752D01*
X130776866Y-87227726D01*
X130806508Y-87243176D01*
X130799712Y-87285346D01*
X130749404Y-87356882D01*
X130728920Y-87379392D01*
X130661331Y-87459341D01*
X130625863Y-87519638D01*
X130624307Y-87528042D01*
X130595932Y-87596223D01*
X130518117Y-87703249D01*
X130401831Y-87838376D01*
X130258040Y-87990862D01*
X130097713Y-88149961D01*
X129931817Y-88304932D01*
X129771319Y-88445029D01*
X129627188Y-88559510D01*
X129510391Y-88637631D01*
X129471538Y-88657268D01*
X129309920Y-88703465D01*
X129107718Y-88729006D01*
X128900428Y-88731131D01*
X128750744Y-88713301D01*
X128642412Y-88688756D01*
X128568611Y-88659365D01*
X128528264Y-88613881D01*
X128520292Y-88541057D01*
X128543619Y-88429648D01*
X128597166Y-88268407D01*
X128679857Y-88046087D01*
X128685410Y-88031385D01*
X128784524Y-87771120D01*
X128862479Y-87574506D01*
X128924907Y-87431774D01*
X128977441Y-87333158D01*
X129025716Y-87268890D01*
X129075363Y-87229203D01*
X129132015Y-87204328D01*
X129168754Y-87193269D01*
X129282925Y-87173677D01*
X129448291Y-87161008D01*
X129649823Y-87154806D01*
X129872493Y-87154611D01*
X130101270Y-87159967D01*
G36*
X131397116Y-87453605D02*
G01*
X131406525Y-87465869D01*
X131434169Y-87547631D01*
X131454681Y-87674724D01*
X131465942Y-87817925D01*
X131465835Y-87948009D01*
X131452241Y-88035755D01*
X131448456Y-88044322D01*
X131391237Y-88100141D01*
X131277081Y-88175321D01*
X131122334Y-88262062D01*
X130943342Y-88352567D01*
X130756451Y-88439036D01*
X130578007Y-88513671D01*
X130424355Y-88568673D01*
X130311843Y-88596243D01*
X130287947Y-88598000D01*
X130250362Y-88589893D01*
X130261788Y-88555826D01*
X130317633Y-88490539D01*
X130407493Y-88383324D01*
X130497943Y-88261848D01*
X130508578Y-88246308D01*
X130593447Y-88135104D01*
X130712114Y-87998409D01*
X130849508Y-87851564D01*
X130990558Y-87709908D01*
X131120194Y-87588783D01*
X131223344Y-87503528D01*
X131264493Y-87476873D01*
X131350633Y-87441913D01*
X131397116Y-87453605D01*
G37*
X131397116Y-87453605D02*
X131406525Y-87465869D01*
X131434169Y-87547631D01*
X131454681Y-87674724D01*
X131465942Y-87817925D01*
X131465835Y-87948009D01*
X131452241Y-88035755D01*
X131448456Y-88044322D01*
X131391237Y-88100141D01*
X131277081Y-88175321D01*
X131122334Y-88262062D01*
X130943342Y-88352567D01*
X130756451Y-88439036D01*
X130578007Y-88513671D01*
X130424355Y-88568673D01*
X130311843Y-88596243D01*
X130287947Y-88598000D01*
X130250362Y-88589893D01*
X130261788Y-88555826D01*
X130317633Y-88490539D01*
X130407493Y-88383324D01*
X130497943Y-88261848D01*
X130508578Y-88246308D01*
X130593447Y-88135104D01*
X130712114Y-87998409D01*
X130849508Y-87851564D01*
X130990558Y-87709908D01*
X131120194Y-87588783D01*
X131223344Y-87503528D01*
X131264493Y-87476873D01*
X131350633Y-87441913D01*
X131397116Y-87453605D01*
G36*
X124365665Y-84095668D02*
G01*
X124462687Y-84166107D01*
X124559078Y-84257371D01*
X124630761Y-84348853D01*
X124639179Y-84363747D01*
X124660924Y-84440553D01*
X124628082Y-84516633D01*
X124610976Y-84539593D01*
X124526696Y-84676475D01*
X124512537Y-84783085D01*
X124557063Y-84853836D01*
X124638002Y-84904304D01*
X124780604Y-84973541D01*
X124972009Y-85056767D01*
X125199360Y-85149199D01*
X125449796Y-85246055D01*
X125710460Y-85342555D01*
X125968493Y-85433917D01*
X126211035Y-85515358D01*
X126425230Y-85582098D01*
X126598217Y-85629354D01*
X126697603Y-85649814D01*
X126807341Y-85668956D01*
X126857184Y-85693911D01*
X126864622Y-85741441D01*
X126853500Y-85799223D01*
X126841158Y-85886718D01*
X126828085Y-86031272D01*
X126815945Y-86211828D01*
X126807391Y-86382889D01*
X126794147Y-86611877D01*
X126776479Y-86765833D01*
X126753961Y-86847776D01*
X126739884Y-86863053D01*
X126691103Y-86853782D01*
X126584120Y-86817790D01*
X126431988Y-86760458D01*
X126247762Y-86687162D01*
X126044498Y-86603282D01*
X125835249Y-86514197D01*
X125633071Y-86425285D01*
X125451019Y-86341924D01*
X125314877Y-86275945D01*
X125213811Y-86229137D01*
X125058034Y-86161998D01*
X124865807Y-86082183D01*
X124655390Y-85997346D01*
X124567384Y-85962607D01*
X124349053Y-85876790D01*
X124135543Y-85792486D01*
X123947035Y-85717687D01*
X123803708Y-85660389D01*
X123766307Y-85645280D01*
X123531846Y-85550105D01*
X123339608Y-85647745D01*
X123103089Y-85730808D01*
X122948229Y-85745385D01*
X122786773Y-85761275D01*
X122646502Y-85802503D01*
X122623490Y-85813770D01*
X122558884Y-85858800D01*
X122446182Y-85947801D01*
X122295369Y-86072446D01*
X122116430Y-86224411D01*
X121919349Y-86395371D01*
X121803485Y-86497452D01*
X121560759Y-86714742D01*
X121368021Y-86893588D01*
X121214953Y-87045256D01*
X121091238Y-87181014D01*
X120986557Y-87312129D01*
X120890593Y-87449867D01*
X120801348Y-87591770D01*
X120718129Y-87679068D01*
X120620245Y-87689689D01*
X120527295Y-87640888D01*
X120474402Y-87611555D01*
X120416783Y-87615996D01*
X120328647Y-87658584D01*
X120289401Y-87681208D01*
X120166839Y-87747808D01*
X120086731Y-87772213D01*
X120027369Y-87756852D01*
X119978637Y-87715978D01*
X119929918Y-87660840D01*
X119917230Y-87638238D01*
X119941530Y-87603541D01*
X120005732Y-87526857D01*
X120096788Y-87423684D01*
X120112615Y-87406154D01*
X120233269Y-87265302D01*
X120296336Y-87171961D01*
X120303639Y-87122866D01*
X120276291Y-87113077D01*
X120227691Y-87088905D01*
X120158686Y-87033053D01*
X120101282Y-86962535D01*
X120103441Y-86898166D01*
X120113616Y-86876745D01*
X120181216Y-86821570D01*
X120308633Y-86801802D01*
X120499978Y-86817125D01*
X120619652Y-86837604D01*
X120794534Y-86871342D01*
X121297368Y-86474441D01*
X121492876Y-86320470D01*
X121691351Y-86164774D01*
X121874004Y-86022048D01*
X122022046Y-85906994D01*
X122069257Y-85870556D01*
X122283133Y-85701445D01*
X122437828Y-85567534D01*
X122540013Y-85461933D01*
X122596359Y-85377754D01*
X122613538Y-85308467D01*
X122646399Y-85208556D01*
X122729889Y-85104713D01*
X122841366Y-85020199D01*
X122929861Y-84983457D01*
X122992356Y-84952809D01*
X123105258Y-84882604D01*
X123256857Y-84780715D01*
X123435443Y-84655013D01*
X123629308Y-84513371D01*
X123631490Y-84511747D01*
X123822007Y-84372308D01*
X123994006Y-84250819D01*
X124136704Y-84154544D01*
X124239318Y-84090747D01*
X124291066Y-84066695D01*
X124292090Y-84066665D01*
X124365665Y-84095668D01*
G37*
X124365665Y-84095668D02*
X124462687Y-84166107D01*
X124559078Y-84257371D01*
X124630761Y-84348853D01*
X124639179Y-84363747D01*
X124660924Y-84440553D01*
X124628082Y-84516633D01*
X124610976Y-84539593D01*
X124526696Y-84676475D01*
X124512537Y-84783085D01*
X124557063Y-84853836D01*
X124638002Y-84904304D01*
X124780604Y-84973541D01*
X124972009Y-85056767D01*
X125199360Y-85149199D01*
X125449796Y-85246055D01*
X125710460Y-85342555D01*
X125968493Y-85433917D01*
X126211035Y-85515358D01*
X126425230Y-85582098D01*
X126598217Y-85629354D01*
X126697603Y-85649814D01*
X126807341Y-85668956D01*
X126857184Y-85693911D01*
X126864622Y-85741441D01*
X126853500Y-85799223D01*
X126841158Y-85886718D01*
X126828085Y-86031272D01*
X126815945Y-86211828D01*
X126807391Y-86382889D01*
X126794147Y-86611877D01*
X126776479Y-86765833D01*
X126753961Y-86847776D01*
X126739884Y-86863053D01*
X126691103Y-86853782D01*
X126584120Y-86817790D01*
X126431988Y-86760458D01*
X126247762Y-86687162D01*
X126044498Y-86603282D01*
X125835249Y-86514197D01*
X125633071Y-86425285D01*
X125451019Y-86341924D01*
X125314877Y-86275945D01*
X125213811Y-86229137D01*
X125058034Y-86161998D01*
X124865807Y-86082183D01*
X124655390Y-85997346D01*
X124567384Y-85962607D01*
X124349053Y-85876790D01*
X124135543Y-85792486D01*
X123947035Y-85717687D01*
X123803708Y-85660389D01*
X123766307Y-85645280D01*
X123531846Y-85550105D01*
X123339608Y-85647745D01*
X123103089Y-85730808D01*
X122948229Y-85745385D01*
X122786773Y-85761275D01*
X122646502Y-85802503D01*
X122623490Y-85813770D01*
X122558884Y-85858800D01*
X122446182Y-85947801D01*
X122295369Y-86072446D01*
X122116430Y-86224411D01*
X121919349Y-86395371D01*
X121803485Y-86497452D01*
X121560759Y-86714742D01*
X121368021Y-86893588D01*
X121214953Y-87045256D01*
X121091238Y-87181014D01*
X120986557Y-87312129D01*
X120890593Y-87449867D01*
X120801348Y-87591770D01*
X120718129Y-87679068D01*
X120620245Y-87689689D01*
X120527295Y-87640888D01*
X120474402Y-87611555D01*
X120416783Y-87615996D01*
X120328647Y-87658584D01*
X120289401Y-87681208D01*
X120166839Y-87747808D01*
X120086731Y-87772213D01*
X120027369Y-87756852D01*
X119978637Y-87715978D01*
X119929918Y-87660840D01*
X119917230Y-87638238D01*
X119941530Y-87603541D01*
X120005732Y-87526857D01*
X120096788Y-87423684D01*
X120112615Y-87406154D01*
X120233269Y-87265302D01*
X120296336Y-87171961D01*
X120303639Y-87122866D01*
X120276291Y-87113077D01*
X120227691Y-87088905D01*
X120158686Y-87033053D01*
X120101282Y-86962535D01*
X120103441Y-86898166D01*
X120113616Y-86876745D01*
X120181216Y-86821570D01*
X120308633Y-86801802D01*
X120499978Y-86817125D01*
X120619652Y-86837604D01*
X120794534Y-86871342D01*
X121297368Y-86474441D01*
X121492876Y-86320470D01*
X121691351Y-86164774D01*
X121874004Y-86022048D01*
X122022046Y-85906994D01*
X122069257Y-85870556D01*
X122283133Y-85701445D01*
X122437828Y-85567534D01*
X122540013Y-85461933D01*
X122596359Y-85377754D01*
X122613538Y-85308467D01*
X122646399Y-85208556D01*
X122729889Y-85104713D01*
X122841366Y-85020199D01*
X122929861Y-84983457D01*
X122992356Y-84952809D01*
X123105258Y-84882604D01*
X123256857Y-84780715D01*
X123435443Y-84655013D01*
X123629308Y-84513371D01*
X123631490Y-84511747D01*
X123822007Y-84372308D01*
X123994006Y-84250819D01*
X124136704Y-84154544D01*
X124239318Y-84090747D01*
X124291066Y-84066695D01*
X124292090Y-84066665D01*
X124365665Y-84095668D01*
G36*
X134571077Y-86817653D02*
G01*
X134568941Y-86986488D01*
X134559139Y-87099692D01*
X134536577Y-87179746D01*
X134496163Y-87249132D01*
X134463615Y-87291985D01*
X134325020Y-87410399D01*
X134137213Y-87493509D01*
X133923310Y-87535616D01*
X133706429Y-87531019D01*
X133593900Y-87506412D01*
X133403573Y-87426381D01*
X133246508Y-87317807D01*
X133136527Y-87193318D01*
X133087452Y-87065539D01*
X133086153Y-87042625D01*
X133102006Y-86995739D01*
X133158540Y-86951901D01*
X133269220Y-86902735D01*
X133369461Y-86866417D01*
X133543588Y-86805818D01*
X133752654Y-86732777D01*
X133957894Y-86660844D01*
X134004461Y-86644482D01*
X134171083Y-86587645D01*
X134321216Y-86539538D01*
X134431804Y-86507420D01*
X134463615Y-86499902D01*
X134571077Y-86478976D01*
X134571077Y-86817653D01*
G37*
X134571077Y-86817653D02*
X134568941Y-86986488D01*
X134559139Y-87099692D01*
X134536577Y-87179746D01*
X134496163Y-87249132D01*
X134463615Y-87291985D01*
X134325020Y-87410399D01*
X134137213Y-87493509D01*
X133923310Y-87535616D01*
X133706429Y-87531019D01*
X133593900Y-87506412D01*
X133403573Y-87426381D01*
X133246508Y-87317807D01*
X133136527Y-87193318D01*
X133087452Y-87065539D01*
X133086153Y-87042625D01*
X133102006Y-86995739D01*
X133158540Y-86951901D01*
X133269220Y-86902735D01*
X133369461Y-86866417D01*
X133543588Y-86805818D01*
X133752654Y-86732777D01*
X133957894Y-86660844D01*
X134004461Y-86644482D01*
X134171083Y-86587645D01*
X134321216Y-86539538D01*
X134431804Y-86507420D01*
X134463615Y-86499902D01*
X134571077Y-86478976D01*
X134571077Y-86817653D01*
G36*
X127048088Y-86359188D02*
G01*
X127143252Y-86389022D01*
X127237461Y-86418294D01*
X127390766Y-86461415D01*
X127586308Y-86513837D01*
X127807226Y-86571008D01*
X127961105Y-86609720D01*
X128178368Y-86665218D01*
X128370701Y-86717173D01*
X128524544Y-86761696D01*
X128626343Y-86794903D01*
X128660692Y-86810283D01*
X128705040Y-86876190D01*
X128688701Y-86961018D01*
X128608804Y-87071246D01*
X128495130Y-87183962D01*
X128346858Y-87306575D01*
X128216039Y-87381266D01*
X128082898Y-87422344D01*
X127923714Y-87452255D01*
X127812407Y-87459713D01*
X127722053Y-87444903D01*
X127666153Y-87425186D01*
X127586563Y-87384492D01*
X127472624Y-87316347D01*
X127388199Y-87261586D01*
X127272089Y-87184400D01*
X127174456Y-87120932D01*
X127130634Y-87093539D01*
X127073685Y-87026191D01*
X127018430Y-86906518D01*
X126971165Y-86758566D01*
X126938187Y-86606377D01*
X126925795Y-86473996D01*
X126940286Y-86385468D01*
X126943655Y-86379646D01*
X126980023Y-86353319D01*
X127048088Y-86359188D01*
G37*
X127048088Y-86359188D02*
X127143252Y-86389022D01*
X127237461Y-86418294D01*
X127390766Y-86461415D01*
X127586308Y-86513837D01*
X127807226Y-86571008D01*
X127961105Y-86609720D01*
X128178368Y-86665218D01*
X128370701Y-86717173D01*
X128524544Y-86761696D01*
X128626343Y-86794903D01*
X128660692Y-86810283D01*
X128705040Y-86876190D01*
X128688701Y-86961018D01*
X128608804Y-87071246D01*
X128495130Y-87183962D01*
X128346858Y-87306575D01*
X128216039Y-87381266D01*
X128082898Y-87422344D01*
X127923714Y-87452255D01*
X127812407Y-87459713D01*
X127722053Y-87444903D01*
X127666153Y-87425186D01*
X127586563Y-87384492D01*
X127472624Y-87316347D01*
X127388199Y-87261586D01*
X127272089Y-87184400D01*
X127174456Y-87120932D01*
X127130634Y-87093539D01*
X127073685Y-87026191D01*
X127018430Y-86906518D01*
X126971165Y-86758566D01*
X126938187Y-86606377D01*
X126925795Y-86473996D01*
X126940286Y-86385468D01*
X126943655Y-86379646D01*
X126980023Y-86353319D01*
X127048088Y-86359188D01*
G36*
X134861913Y-83892491D02*
G01*
X135019287Y-83952205D01*
X135187696Y-84032577D01*
X135349928Y-84124924D01*
X135488773Y-84220564D01*
X135587020Y-84310817D01*
X135619560Y-84359288D01*
X135657855Y-84495769D01*
X135654332Y-84657508D01*
X135607705Y-84859943D01*
X135567674Y-84981672D01*
X135518307Y-85134194D01*
X135500042Y-85228175D01*
X135510881Y-85275871D01*
X135518634Y-85282464D01*
X135578765Y-85302837D01*
X135692144Y-85328808D01*
X135834654Y-85354879D01*
X135840058Y-85355755D01*
X136004222Y-85384309D01*
X136160357Y-85414864D01*
X136264195Y-85438289D01*
X136413776Y-85476497D01*
X136386218Y-85640249D01*
X136363384Y-85756087D01*
X136327414Y-85917174D01*
X136285144Y-86093201D01*
X136274352Y-86136154D01*
X136190043Y-86468308D01*
X135507560Y-86807950D01*
X135297178Y-86912609D01*
X135112471Y-87004422D01*
X134964169Y-87078060D01*
X134863002Y-87128196D01*
X134819704Y-87149501D01*
X134818891Y-87149874D01*
X134816709Y-87114707D01*
X134815968Y-87018445D01*
X134816722Y-86878132D01*
X134817765Y-86790366D01*
X134818540Y-86616266D01*
X134811007Y-86493739D01*
X134789139Y-86396237D01*
X134746907Y-86297212D01*
X134678285Y-86170116D01*
X134676017Y-86166059D01*
X134541101Y-85957711D01*
X134391637Y-85803854D01*
X134202468Y-85681546D01*
X134080464Y-85622979D01*
X133819103Y-85547891D01*
X133543063Y-85548507D01*
X133250310Y-85624872D01*
X133206576Y-85642144D01*
X133080283Y-85691463D01*
X132985686Y-85723513D01*
X132942349Y-85731702D01*
X132941868Y-85731356D01*
X132954652Y-85693103D01*
X133007725Y-85609313D01*
X133090557Y-85493820D01*
X133192617Y-85360461D01*
X133303373Y-85223072D01*
X133412296Y-85095488D01*
X133491217Y-85009592D01*
X133611917Y-84894028D01*
X133733859Y-84792917D01*
X133828615Y-84729370D01*
X133942138Y-84651733D01*
X134036506Y-84558410D01*
X134043538Y-84549075D01*
X134132483Y-84433045D01*
X134243760Y-84298175D01*
X134363766Y-84159726D01*
X134478898Y-84032956D01*
X134575554Y-83933124D01*
X134640132Y-83875490D01*
X134649108Y-83869758D01*
X134732783Y-83862114D01*
X134861913Y-83892491D01*
G37*
X134861913Y-83892491D02*
X135019287Y-83952205D01*
X135187696Y-84032577D01*
X135349928Y-84124924D01*
X135488773Y-84220564D01*
X135587020Y-84310817D01*
X135619560Y-84359288D01*
X135657855Y-84495769D01*
X135654332Y-84657508D01*
X135607705Y-84859943D01*
X135567674Y-84981672D01*
X135518307Y-85134194D01*
X135500042Y-85228175D01*
X135510881Y-85275871D01*
X135518634Y-85282464D01*
X135578765Y-85302837D01*
X135692144Y-85328808D01*
X135834654Y-85354879D01*
X135840058Y-85355755D01*
X136004222Y-85384309D01*
X136160357Y-85414864D01*
X136264195Y-85438289D01*
X136413776Y-85476497D01*
X136386218Y-85640249D01*
X136363384Y-85756087D01*
X136327414Y-85917174D01*
X136285144Y-86093201D01*
X136274352Y-86136154D01*
X136190043Y-86468308D01*
X135507560Y-86807950D01*
X135297178Y-86912609D01*
X135112471Y-87004422D01*
X134964169Y-87078060D01*
X134863002Y-87128196D01*
X134819704Y-87149501D01*
X134818891Y-87149874D01*
X134816709Y-87114707D01*
X134815968Y-87018445D01*
X134816722Y-86878132D01*
X134817765Y-86790366D01*
X134818540Y-86616266D01*
X134811007Y-86493739D01*
X134789139Y-86396237D01*
X134746907Y-86297212D01*
X134678285Y-86170116D01*
X134676017Y-86166059D01*
X134541101Y-85957711D01*
X134391637Y-85803854D01*
X134202468Y-85681546D01*
X134080464Y-85622979D01*
X133819103Y-85547891D01*
X133543063Y-85548507D01*
X133250310Y-85624872D01*
X133206576Y-85642144D01*
X133080283Y-85691463D01*
X132985686Y-85723513D01*
X132942349Y-85731702D01*
X132941868Y-85731356D01*
X132954652Y-85693103D01*
X133007725Y-85609313D01*
X133090557Y-85493820D01*
X133192617Y-85360461D01*
X133303373Y-85223072D01*
X133412296Y-85095488D01*
X133491217Y-85009592D01*
X133611917Y-84894028D01*
X133733859Y-84792917D01*
X133828615Y-84729370D01*
X133942138Y-84651733D01*
X134036506Y-84558410D01*
X134043538Y-84549075D01*
X134132483Y-84433045D01*
X134243760Y-84298175D01*
X134363766Y-84159726D01*
X134478898Y-84032956D01*
X134575554Y-83933124D01*
X134640132Y-83875490D01*
X134649108Y-83869758D01*
X134732783Y-83862114D01*
X134861913Y-83892491D01*
G36*
X131288127Y-83818022D02*
G01*
X131397138Y-83953492D01*
X131499275Y-84136845D01*
X131581553Y-84338483D01*
X131630989Y-84528808D01*
X131639483Y-84618925D01*
X131606819Y-84733276D01*
X131511077Y-84878797D01*
X131357924Y-85049482D01*
X131153028Y-85239323D01*
X130902054Y-85442312D01*
X130770846Y-85539787D01*
X130613273Y-85660170D01*
X130516413Y-85750637D01*
X130472528Y-85818989D01*
X130468000Y-85845135D01*
X130482405Y-85932748D01*
X130532838Y-85986102D01*
X130630121Y-86008705D01*
X130785078Y-86004065D01*
X130912850Y-85989314D01*
X131075577Y-85970399D01*
X131218607Y-85958841D01*
X131316317Y-85956582D01*
X131330511Y-85957679D01*
X131602082Y-85993129D01*
X131856546Y-86030787D01*
X132083077Y-86068640D01*
X132270851Y-86104674D01*
X132409042Y-86136875D01*
X132486825Y-86163229D01*
X132500000Y-86175234D01*
X132467054Y-86204110D01*
X132380572Y-86252815D01*
X132259083Y-86310941D01*
X132255769Y-86312420D01*
X132120135Y-86379180D01*
X131944398Y-86474617D01*
X131753868Y-86584637D01*
X131614562Y-86669449D01*
X131455595Y-86765901D01*
X131317678Y-86844103D01*
X131215759Y-86895941D01*
X131165177Y-86913341D01*
X131105919Y-86902113D01*
X130991126Y-86875687D01*
X130840840Y-86838768D01*
X130761077Y-86818468D01*
X130534240Y-86770830D01*
X130297254Y-86739328D01*
X130070564Y-86725109D01*
X129874612Y-86729322D01*
X129729842Y-86753111D01*
X129710831Y-86759548D01*
X129624075Y-86781371D01*
X129487650Y-86803860D01*
X129329861Y-86822410D01*
X129317282Y-86823575D01*
X129021683Y-86850361D01*
X129036586Y-86531711D01*
X129038813Y-86261896D01*
X129014769Y-86053032D01*
X128961143Y-85891366D01*
X128874624Y-85763143D01*
X128843900Y-85731211D01*
X128636165Y-85572766D01*
X128385121Y-85448744D01*
X128113697Y-85366232D01*
X127844822Y-85332314D01*
X127614171Y-85351225D01*
X127496899Y-85372845D01*
X127414787Y-85381377D01*
X127391511Y-85378230D01*
X127414019Y-85354644D01*
X127490105Y-85312169D01*
X127563290Y-85277898D01*
X127656284Y-85228962D01*
X127798206Y-85144674D01*
X127974146Y-85034766D01*
X128169193Y-84908970D01*
X128368436Y-84777017D01*
X128556964Y-84648639D01*
X128719866Y-84533568D01*
X128830152Y-84451064D01*
X128938480Y-84392430D01*
X129069220Y-84353990D01*
X129084152Y-84351718D01*
X129181483Y-84346842D01*
X129264976Y-84369275D01*
X129363277Y-84429401D01*
X129424776Y-84475192D01*
X129533208Y-84548401D01*
X129623453Y-84592026D01*
X129667799Y-84597687D01*
X129717905Y-84569448D01*
X129820273Y-84505283D01*
X129962513Y-84413178D01*
X130132234Y-84301115D01*
X130242100Y-84227622D01*
X130435562Y-84098773D01*
X130621786Y-83976875D01*
X130784240Y-83872600D01*
X130906393Y-83796620D01*
X130945176Y-83773722D01*
X131129276Y-83668658D01*
X131288127Y-83818022D01*
G37*
X131288127Y-83818022D02*
X131397138Y-83953492D01*
X131499275Y-84136845D01*
X131581553Y-84338483D01*
X131630989Y-84528808D01*
X131639483Y-84618925D01*
X131606819Y-84733276D01*
X131511077Y-84878797D01*
X131357924Y-85049482D01*
X131153028Y-85239323D01*
X130902054Y-85442312D01*
X130770846Y-85539787D01*
X130613273Y-85660170D01*
X130516413Y-85750637D01*
X130472528Y-85818989D01*
X130468000Y-85845135D01*
X130482405Y-85932748D01*
X130532838Y-85986102D01*
X130630121Y-86008705D01*
X130785078Y-86004065D01*
X130912850Y-85989314D01*
X131075577Y-85970399D01*
X131218607Y-85958841D01*
X131316317Y-85956582D01*
X131330511Y-85957679D01*
X131602082Y-85993129D01*
X131856546Y-86030787D01*
X132083077Y-86068640D01*
X132270851Y-86104674D01*
X132409042Y-86136875D01*
X132486825Y-86163229D01*
X132500000Y-86175234D01*
X132467054Y-86204110D01*
X132380572Y-86252815D01*
X132259083Y-86310941D01*
X132255769Y-86312420D01*
X132120135Y-86379180D01*
X131944398Y-86474617D01*
X131753868Y-86584637D01*
X131614562Y-86669449D01*
X131455595Y-86765901D01*
X131317678Y-86844103D01*
X131215759Y-86895941D01*
X131165177Y-86913341D01*
X131105919Y-86902113D01*
X130991126Y-86875687D01*
X130840840Y-86838768D01*
X130761077Y-86818468D01*
X130534240Y-86770830D01*
X130297254Y-86739328D01*
X130070564Y-86725109D01*
X129874612Y-86729322D01*
X129729842Y-86753111D01*
X129710831Y-86759548D01*
X129624075Y-86781371D01*
X129487650Y-86803860D01*
X129329861Y-86822410D01*
X129317282Y-86823575D01*
X129021683Y-86850361D01*
X129036586Y-86531711D01*
X129038813Y-86261896D01*
X129014769Y-86053032D01*
X128961143Y-85891366D01*
X128874624Y-85763143D01*
X128843900Y-85731211D01*
X128636165Y-85572766D01*
X128385121Y-85448744D01*
X128113697Y-85366232D01*
X127844822Y-85332314D01*
X127614171Y-85351225D01*
X127496899Y-85372845D01*
X127414787Y-85381377D01*
X127391511Y-85378230D01*
X127414019Y-85354644D01*
X127490105Y-85312169D01*
X127563290Y-85277898D01*
X127656284Y-85228962D01*
X127798206Y-85144674D01*
X127974146Y-85034766D01*
X128169193Y-84908970D01*
X128368436Y-84777017D01*
X128556964Y-84648639D01*
X128719866Y-84533568D01*
X128830152Y-84451064D01*
X128938480Y-84392430D01*
X129069220Y-84353990D01*
X129084152Y-84351718D01*
X129181483Y-84346842D01*
X129264976Y-84369275D01*
X129363277Y-84429401D01*
X129424776Y-84475192D01*
X129533208Y-84548401D01*
X129623453Y-84592026D01*
X129667799Y-84597687D01*
X129717905Y-84569448D01*
X129820273Y-84505283D01*
X129962513Y-84413178D01*
X130132234Y-84301115D01*
X130242100Y-84227622D01*
X130435562Y-84098773D01*
X130621786Y-83976875D01*
X130784240Y-83872600D01*
X130906393Y-83796620D01*
X130945176Y-83773722D01*
X131129276Y-83668658D01*
X131288127Y-83818022D01*
G36*
X133878508Y-85740825D02*
G01*
X133969540Y-85776615D01*
X134077261Y-85843792D01*
X134193816Y-85935191D01*
X134303393Y-86035649D01*
X134390181Y-86130004D01*
X134438366Y-86203094D01*
X134442332Y-86229968D01*
X134402277Y-86274210D01*
X134317839Y-86335412D01*
X134274962Y-86361569D01*
X134182457Y-86408566D01*
X134094515Y-86431766D01*
X133982714Y-86435380D01*
X133842113Y-86425712D01*
X133562534Y-86401209D01*
X133388501Y-86561627D01*
X133272539Y-86653841D01*
X133156913Y-86722591D01*
X133091695Y-86746600D01*
X132968923Y-86771154D01*
X132969499Y-86443885D01*
X132976947Y-86232245D01*
X133003422Y-86080477D01*
X133056430Y-85971151D01*
X133143473Y-85886840D01*
X133233527Y-85830682D01*
X133449536Y-85744702D01*
X133672119Y-85714192D01*
X133878508Y-85740825D01*
G37*
X133878508Y-85740825D02*
X133969540Y-85776615D01*
X134077261Y-85843792D01*
X134193816Y-85935191D01*
X134303393Y-86035649D01*
X134390181Y-86130004D01*
X134438366Y-86203094D01*
X134442332Y-86229968D01*
X134402277Y-86274210D01*
X134317839Y-86335412D01*
X134274962Y-86361569D01*
X134182457Y-86408566D01*
X134094515Y-86431766D01*
X133982714Y-86435380D01*
X133842113Y-86425712D01*
X133562534Y-86401209D01*
X133388501Y-86561627D01*
X133272539Y-86653841D01*
X133156913Y-86722591D01*
X133091695Y-86746600D01*
X132968923Y-86771154D01*
X132969499Y-86443885D01*
X132976947Y-86232245D01*
X133003422Y-86080477D01*
X133056430Y-85971151D01*
X133143473Y-85886840D01*
X133233527Y-85830682D01*
X133449536Y-85744702D01*
X133672119Y-85714192D01*
X133878508Y-85740825D01*
G36*
X139585395Y-83815833D02*
G01*
X139715890Y-83889474D01*
X139788205Y-84013594D01*
X139802908Y-84189329D01*
X139760564Y-84417813D01*
X139741275Y-84482855D01*
X139709369Y-84591305D01*
X139696086Y-84675358D01*
X139702585Y-84761642D01*
X139730028Y-84876787D01*
X139763502Y-84992837D01*
X139834023Y-85195144D01*
X139916387Y-85348256D01*
X140005458Y-85459752D01*
X140119138Y-85615352D01*
X140159386Y-85762375D01*
X140128175Y-85912783D01*
X140091949Y-85983733D01*
X140049508Y-86074133D01*
X140051808Y-86153748D01*
X140076879Y-86224224D01*
X140119426Y-86344905D01*
X140147826Y-86454347D01*
X140153675Y-86514486D01*
X140131394Y-86548660D01*
X140063537Y-86568714D01*
X139957743Y-86583415D01*
X139815806Y-86602314D01*
X139688958Y-86621478D01*
X139641275Y-86629796D01*
X139548274Y-86629075D01*
X139510713Y-86590262D01*
X139507027Y-86515073D01*
X139528023Y-86408770D01*
X139533449Y-86391357D01*
X139555739Y-86312262D01*
X139552006Y-86253817D01*
X139512587Y-86192660D01*
X139427819Y-86105428D01*
X139406667Y-86084832D01*
X139276925Y-85932262D01*
X139206312Y-85772362D01*
X139182464Y-85575343D01*
X139182153Y-85543889D01*
X139160887Y-85444125D01*
X139095586Y-85405535D01*
X138984000Y-85427662D01*
X138873277Y-85481189D01*
X138780811Y-85526297D01*
X138629738Y-85592361D01*
X138434773Y-85673285D01*
X138210631Y-85762972D01*
X137972026Y-85855325D01*
X137951230Y-85863223D01*
X137705866Y-85956368D01*
X137467422Y-86047067D01*
X137252302Y-86129068D01*
X137076908Y-86196117D01*
X136957644Y-86241962D01*
X136954769Y-86243074D01*
X136793971Y-86298931D01*
X136642283Y-86340599D01*
X136516363Y-86364764D01*
X136432867Y-86368114D01*
X136407692Y-86351916D01*
X136423656Y-86308789D01*
X136467525Y-86208608D01*
X136533262Y-86064717D01*
X136614833Y-85890461D01*
X136648146Y-85820276D01*
X136723350Y-85660937D01*
X136785728Y-85534375D01*
X136844850Y-85433723D01*
X136910286Y-85352115D01*
X136991605Y-85282685D01*
X137098376Y-85218566D01*
X137240170Y-85152892D01*
X137426556Y-85078797D01*
X137667103Y-84989413D01*
X137951230Y-84885290D01*
X138254319Y-84772883D01*
X138491881Y-84681696D01*
X138672188Y-84607221D01*
X138803512Y-84544953D01*
X138894123Y-84490383D01*
X138952294Y-84439005D01*
X138986296Y-84386311D01*
X139004401Y-84327794D01*
X139007778Y-84309572D01*
X139044207Y-84134691D01*
X139089196Y-83979516D01*
X139135322Y-83868037D01*
X139152954Y-83840385D01*
X139213949Y-83811275D01*
X139326600Y-83794050D01*
X139396155Y-83791539D01*
X139585395Y-83815833D01*
G37*
X139585395Y-83815833D02*
X139715890Y-83889474D01*
X139788205Y-84013594D01*
X139802908Y-84189329D01*
X139760564Y-84417813D01*
X139741275Y-84482855D01*
X139709369Y-84591305D01*
X139696086Y-84675358D01*
X139702585Y-84761642D01*
X139730028Y-84876787D01*
X139763502Y-84992837D01*
X139834023Y-85195144D01*
X139916387Y-85348256D01*
X140005458Y-85459752D01*
X140119138Y-85615352D01*
X140159386Y-85762375D01*
X140128175Y-85912783D01*
X140091949Y-85983733D01*
X140049508Y-86074133D01*
X140051808Y-86153748D01*
X140076879Y-86224224D01*
X140119426Y-86344905D01*
X140147826Y-86454347D01*
X140153675Y-86514486D01*
X140131394Y-86548660D01*
X140063537Y-86568714D01*
X139957743Y-86583415D01*
X139815806Y-86602314D01*
X139688958Y-86621478D01*
X139641275Y-86629796D01*
X139548274Y-86629075D01*
X139510713Y-86590262D01*
X139507027Y-86515073D01*
X139528023Y-86408770D01*
X139533449Y-86391357D01*
X139555739Y-86312262D01*
X139552006Y-86253817D01*
X139512587Y-86192660D01*
X139427819Y-86105428D01*
X139406667Y-86084832D01*
X139276925Y-85932262D01*
X139206312Y-85772362D01*
X139182464Y-85575343D01*
X139182153Y-85543889D01*
X139160887Y-85444125D01*
X139095586Y-85405535D01*
X138984000Y-85427662D01*
X138873277Y-85481189D01*
X138780811Y-85526297D01*
X138629738Y-85592361D01*
X138434773Y-85673285D01*
X138210631Y-85762972D01*
X137972026Y-85855325D01*
X137951230Y-85863223D01*
X137705866Y-85956368D01*
X137467422Y-86047067D01*
X137252302Y-86129068D01*
X137076908Y-86196117D01*
X136957644Y-86241962D01*
X136954769Y-86243074D01*
X136793971Y-86298931D01*
X136642283Y-86340599D01*
X136516363Y-86364764D01*
X136432867Y-86368114D01*
X136407692Y-86351916D01*
X136423656Y-86308789D01*
X136467525Y-86208608D01*
X136533262Y-86064717D01*
X136614833Y-85890461D01*
X136648146Y-85820276D01*
X136723350Y-85660937D01*
X136785728Y-85534375D01*
X136844850Y-85433723D01*
X136910286Y-85352115D01*
X136991605Y-85282685D01*
X137098376Y-85218566D01*
X137240170Y-85152892D01*
X137426556Y-85078797D01*
X137667103Y-84989413D01*
X137951230Y-84885290D01*
X138254319Y-84772883D01*
X138491881Y-84681696D01*
X138672188Y-84607221D01*
X138803512Y-84544953D01*
X138894123Y-84490383D01*
X138952294Y-84439005D01*
X138986296Y-84386311D01*
X139004401Y-84327794D01*
X139007778Y-84309572D01*
X139044207Y-84134691D01*
X139089196Y-83979516D01*
X139135322Y-83868037D01*
X139152954Y-83840385D01*
X139213949Y-83811275D01*
X139326600Y-83794050D01*
X139396155Y-83791539D01*
X139585395Y-83815833D01*
G36*
X128119228Y-85557688D02*
G01*
X128368599Y-85667388D01*
X128586717Y-85837396D01*
X128590002Y-85840728D01*
X128690399Y-85952061D01*
X128748080Y-86049982D01*
X128780752Y-86170607D01*
X128794099Y-86256923D01*
X128808902Y-86423103D01*
X128797930Y-86523926D01*
X128783116Y-86551975D01*
X128747489Y-86586129D01*
X128702212Y-86598856D01*
X128628968Y-86588975D01*
X128509438Y-86555301D01*
X128425694Y-86528885D01*
X128249440Y-86453316D01*
X128087328Y-86351379D01*
X128044582Y-86316063D01*
X127903789Y-86212879D01*
X127780148Y-86179436D01*
X127660696Y-86213358D01*
X127620849Y-86238324D01*
X127496953Y-86279243D01*
X127315455Y-86269837D01*
X127078454Y-86210221D01*
X127074063Y-86208808D01*
X126987283Y-86173396D01*
X126958085Y-86126638D01*
X126967053Y-86043876D01*
X127027169Y-85881950D01*
X127144349Y-85746097D01*
X127328852Y-85624631D01*
X127340679Y-85618385D01*
X127589560Y-85530391D01*
X127854312Y-85511090D01*
X128119228Y-85557688D01*
G37*
X128119228Y-85557688D02*
X128368599Y-85667388D01*
X128586717Y-85837396D01*
X128590002Y-85840728D01*
X128690399Y-85952061D01*
X128748080Y-86049982D01*
X128780752Y-86170607D01*
X128794099Y-86256923D01*
X128808902Y-86423103D01*
X128797930Y-86523926D01*
X128783116Y-86551975D01*
X128747489Y-86586129D01*
X128702212Y-86598856D01*
X128628968Y-86588975D01*
X128509438Y-86555301D01*
X128425694Y-86528885D01*
X128249440Y-86453316D01*
X128087328Y-86351379D01*
X128044582Y-86316063D01*
X127903789Y-86212879D01*
X127780148Y-86179436D01*
X127660696Y-86213358D01*
X127620849Y-86238324D01*
X127496953Y-86279243D01*
X127315455Y-86269837D01*
X127078454Y-86210221D01*
X127074063Y-86208808D01*
X126987283Y-86173396D01*
X126958085Y-86126638D01*
X126967053Y-86043876D01*
X127027169Y-85881950D01*
X127144349Y-85746097D01*
X127328852Y-85624631D01*
X127340679Y-85618385D01*
X127589560Y-85530391D01*
X127854312Y-85511090D01*
X128119228Y-85557688D01*
D11*
%TO.C,BZ1*%
X110520000Y-89610000D02*
G75*
G03*
X110520000Y-89610000I-6230000J0D01*
G01*
X97890000Y-91109999D02*
G75*
G02*
X97890000Y-88110000I6400000J1499999D01*
G01*
%TO.C,D1*%
X111350000Y-38250000D02*
X111350000Y-30950000D01*
X116850000Y-38250000D02*
X116850000Y-30950000D01*
X116850000Y-30950000D02*
X115700000Y-30950000D01*
%TO.C,D2*%
X116980000Y-46750000D02*
X115830000Y-46750000D01*
X116980000Y-54050000D02*
X116980000Y-46750000D01*
X111480000Y-54050000D02*
X111480000Y-46750000D01*
%TO.C,D3*%
X111420000Y-69120000D02*
X111420000Y-61820000D01*
X116920000Y-69120000D02*
X116920000Y-61820000D01*
X116920000Y-61820000D02*
X115770000Y-61820000D01*
%TO.C,D4*%
X110220000Y-74050000D02*
X117520000Y-74050000D01*
X110220000Y-79550000D02*
X117520000Y-79550000D01*
X117520000Y-79550000D02*
X117520000Y-78400000D01*
%TO.C,D5*%
X69940000Y-69150000D02*
X71090000Y-69150000D01*
X69940000Y-61850000D02*
X69940000Y-69150000D01*
X75440000Y-61850000D02*
X75440000Y-69150000D01*
%TO.C,D6*%
X75440000Y-47140000D02*
X75440000Y-54440000D01*
X69940000Y-47140000D02*
X69940000Y-54440000D01*
X69940000Y-54440000D02*
X71090000Y-54440000D01*
%TO.C,D7*%
X69910000Y-38200000D02*
X71060000Y-38200000D01*
X69910000Y-30900000D02*
X69910000Y-38200000D01*
X75410000Y-30900000D02*
X75410000Y-38200000D01*
%TO.C,D8*%
X140350000Y-77945000D02*
X140350000Y-74855000D01*
X140290000Y-76400000D02*
G75*
G03*
X140290000Y-76400000I-2500000J0D01*
G01*
X134800000Y-76399538D02*
G75*
G03*
X140350000Y-77944830I2990000J-462D01*
G01*
X134800000Y-76400462D02*
G75*
G02*
X140350000Y-74855170I2990000J462D01*
G01*
%TO.C,D9*%
X140330000Y-68270000D02*
G75*
G03*
X140330000Y-68270000I-2500000J0D01*
G01*
X140390000Y-69815000D02*
X140390000Y-66725000D01*
X134840000Y-68270462D02*
G75*
G02*
X140390000Y-66725170I2990000J462D01*
G01*
X134840000Y-68269538D02*
G75*
G03*
X140390000Y-69814830I2990000J-462D01*
G01*
%TO.C,D10*%
X140480000Y-61885000D02*
X140480000Y-58795000D01*
X140420000Y-60340000D02*
G75*
G03*
X140420000Y-60340000I-2500000J0D01*
G01*
X134930000Y-60339538D02*
G75*
G03*
X140480000Y-61884830I2990000J-462D01*
G01*
X134930000Y-60340462D02*
G75*
G02*
X140480000Y-58795170I2990000J462D01*
G01*
%TO.C,D11*%
X140380000Y-52250000D02*
G75*
G03*
X140380000Y-52250000I-2500000J0D01*
G01*
X140440000Y-53795000D02*
X140440000Y-50705000D01*
X134890000Y-52250462D02*
G75*
G02*
X140440000Y-50705170I2990000J462D01*
G01*
X134890000Y-52249538D02*
G75*
G03*
X140440000Y-53794830I2990000J-462D01*
G01*
%TO.C,D12*%
X140400000Y-45875000D02*
X140400000Y-42785000D01*
X140340000Y-44330000D02*
G75*
G03*
X140340000Y-44330000I-2500000J0D01*
G01*
X134850000Y-44329538D02*
G75*
G03*
X140400000Y-45874830I2990000J-462D01*
G01*
X134850000Y-44330462D02*
G75*
G02*
X140400000Y-42785170I2990000J462D01*
G01*
%TO.C,D13*%
X140260000Y-36280000D02*
G75*
G03*
X140260000Y-36280000I-2500000J0D01*
G01*
X140320000Y-37825000D02*
X140320000Y-34735000D01*
X134770000Y-36280462D02*
G75*
G02*
X140320000Y-34735170I2990000J462D01*
G01*
X134770000Y-36279538D02*
G75*
G03*
X140320000Y-37824830I2990000J-462D01*
G01*
%TO.C,D14*%
X53540000Y-25835000D02*
X53540000Y-28925000D01*
X58600000Y-27380000D02*
G75*
G03*
X58600000Y-27380000I-2500000J0D01*
G01*
X59090000Y-27380462D02*
G75*
G03*
X53540000Y-25835170I-2990000J462D01*
G01*
X59090000Y-27379538D02*
G75*
G02*
X53540000Y-28924830I-2990000J-462D01*
G01*
%TO.C,J1*%
X78650000Y-66350000D02*
X81310000Y-66350000D01*
X78650000Y-30730000D02*
X78650000Y-66350000D01*
X81310000Y-30730000D02*
X81310000Y-66350000D01*
X78650000Y-30730000D02*
X81310000Y-30730000D01*
X78650000Y-29460000D02*
X78650000Y-28130000D01*
X78650000Y-28130000D02*
X79980000Y-28130000D01*
%TO.C,J2*%
X104530000Y-28160000D02*
X105860000Y-28160000D01*
X104530000Y-29490000D02*
X104530000Y-28160000D01*
X104530000Y-30760000D02*
X107190000Y-30760000D01*
X107190000Y-30760000D02*
X107190000Y-66380000D01*
X104530000Y-30760000D02*
X104530000Y-66380000D01*
X104530000Y-66380000D02*
X107190000Y-66380000D01*
%TO.C,J3*%
X81380000Y-25990000D02*
X81380000Y-23330000D01*
X78780000Y-25990000D02*
X81380000Y-25990000D01*
X78780000Y-23330000D02*
X81380000Y-23330000D01*
X78780000Y-25990000D02*
X78780000Y-23330000D01*
X77510000Y-25990000D02*
X76180000Y-25990000D01*
X76180000Y-25990000D02*
X76180000Y-24660000D01*
%TO.C,J5*%
X114210000Y-23370000D02*
X114210000Y-26030000D01*
X126970000Y-23370000D02*
X114210000Y-23370000D01*
X126970000Y-26030000D02*
X114210000Y-26030000D01*
X126970000Y-23370000D02*
X126970000Y-26030000D01*
X128240000Y-23370000D02*
X129570000Y-23370000D01*
X129570000Y-23370000D02*
X129570000Y-24700000D01*
%TO.C,J6*%
X129570000Y-30610000D02*
X129570000Y-27950000D01*
X124430000Y-30610000D02*
X129570000Y-30610000D01*
X124430000Y-27950000D02*
X129570000Y-27950000D01*
X124430000Y-30610000D02*
X124430000Y-27950000D01*
X123160000Y-30610000D02*
X121830000Y-30610000D01*
X121830000Y-30610000D02*
X121830000Y-29280000D01*
%TO.C,R1*%
X115750000Y-86320000D02*
X113010000Y-86320000D01*
X113010000Y-86320000D02*
X113010000Y-92860000D01*
X113010000Y-92860000D02*
X115750000Y-92860000D01*
X115750000Y-92860000D02*
X115750000Y-86320000D01*
X114380000Y-85550000D02*
X114380000Y-86320000D01*
X114380000Y-93630000D02*
X114380000Y-92860000D01*
%TO.C,R2*%
X130510000Y-76460000D02*
X129740000Y-76460000D01*
X122430000Y-76460000D02*
X123200000Y-76460000D01*
X129740000Y-75090000D02*
X123200000Y-75090000D01*
X129740000Y-77830000D02*
X129740000Y-75090000D01*
X123200000Y-77830000D02*
X129740000Y-77830000D01*
X123200000Y-75090000D02*
X123200000Y-77830000D01*
%TO.C,R3*%
X82050000Y-93220000D02*
X82050000Y-95960000D01*
X82050000Y-95960000D02*
X88590000Y-95960000D01*
X88590000Y-95960000D02*
X88590000Y-93220000D01*
X88590000Y-93220000D02*
X82050000Y-93220000D01*
X81280000Y-94590000D02*
X82050000Y-94590000D01*
X89360000Y-94590000D02*
X88590000Y-94590000D01*
%TO.C,R4*%
X57820000Y-35070000D02*
X57820000Y-37810000D01*
X57820000Y-37810000D02*
X64360000Y-37810000D01*
X64360000Y-37810000D02*
X64360000Y-35070000D01*
X64360000Y-35070000D02*
X57820000Y-35070000D01*
X57050000Y-36440000D02*
X57820000Y-36440000D01*
X65130000Y-36440000D02*
X64360000Y-36440000D01*
%TO.C,R5*%
X130640000Y-68230000D02*
X129870000Y-68230000D01*
X122560000Y-68230000D02*
X123330000Y-68230000D01*
X129870000Y-66860000D02*
X123330000Y-66860000D01*
X129870000Y-69600000D02*
X129870000Y-66860000D01*
X123330000Y-69600000D02*
X129870000Y-69600000D01*
X123330000Y-66860000D02*
X123330000Y-69600000D01*
%TO.C,R6*%
X89250000Y-85480000D02*
X88480000Y-85480000D01*
X81170000Y-85480000D02*
X81940000Y-85480000D01*
X88480000Y-84110000D02*
X81940000Y-84110000D01*
X88480000Y-86850000D02*
X88480000Y-84110000D01*
X81940000Y-86850000D02*
X88480000Y-86850000D01*
X81940000Y-84110000D02*
X81940000Y-86850000D01*
%TO.C,R7*%
X130720000Y-60310000D02*
X129950000Y-60310000D01*
X122640000Y-60310000D02*
X123410000Y-60310000D01*
X129950000Y-58940000D02*
X123410000Y-58940000D01*
X129950000Y-61680000D02*
X129950000Y-58940000D01*
X123410000Y-61680000D02*
X129950000Y-61680000D01*
X123410000Y-58940000D02*
X123410000Y-61680000D01*
%TO.C,R8*%
X57720000Y-42080000D02*
X57720000Y-44820000D01*
X57720000Y-44820000D02*
X64260000Y-44820000D01*
X64260000Y-44820000D02*
X64260000Y-42080000D01*
X64260000Y-42080000D02*
X57720000Y-42080000D01*
X56950000Y-43450000D02*
X57720000Y-43450000D01*
X65030000Y-43450000D02*
X64260000Y-43450000D01*
%TO.C,R9*%
X123500000Y-50940000D02*
X123500000Y-53680000D01*
X123500000Y-53680000D02*
X130040000Y-53680000D01*
X130040000Y-53680000D02*
X130040000Y-50940000D01*
X130040000Y-50940000D02*
X123500000Y-50940000D01*
X122730000Y-52310000D02*
X123500000Y-52310000D01*
X130810000Y-52310000D02*
X130040000Y-52310000D01*
%TO.C,R10*%
X123500000Y-42970000D02*
X123500000Y-45710000D01*
X123500000Y-45710000D02*
X130040000Y-45710000D01*
X130040000Y-45710000D02*
X130040000Y-42970000D01*
X130040000Y-42970000D02*
X123500000Y-42970000D01*
X122730000Y-44340000D02*
X123500000Y-44340000D01*
X130810000Y-44340000D02*
X130040000Y-44340000D01*
%TO.C,R11*%
X65110000Y-50500000D02*
X64340000Y-50500000D01*
X57030000Y-50500000D02*
X57800000Y-50500000D01*
X64340000Y-49130000D02*
X57800000Y-49130000D01*
X64340000Y-51870000D02*
X64340000Y-49130000D01*
X57800000Y-51870000D02*
X64340000Y-51870000D01*
X57800000Y-49130000D02*
X57800000Y-51870000D01*
%TO.C,R12*%
X130890000Y-36340000D02*
X130120000Y-36340000D01*
X122810000Y-36340000D02*
X123580000Y-36340000D01*
X130120000Y-34970000D02*
X123580000Y-34970000D01*
X130120000Y-37710000D02*
X130120000Y-34970000D01*
X123580000Y-37710000D02*
X130120000Y-37710000D01*
X123580000Y-34970000D02*
X123580000Y-37710000D01*
%TO.C,R13*%
X70320000Y-26340000D02*
X70320000Y-23600000D01*
X70320000Y-23600000D02*
X63780000Y-23600000D01*
X63780000Y-23600000D02*
X63780000Y-26340000D01*
X63780000Y-26340000D02*
X70320000Y-26340000D01*
X71090000Y-24970000D02*
X70320000Y-24970000D01*
X63010000Y-24970000D02*
X63780000Y-24970000D01*
%TO.C,RV1*%
X57520000Y-56680000D02*
X57520000Y-66620000D01*
X45280000Y-65020000D02*
X45280000Y-66620000D01*
X45280000Y-62521000D02*
X45280000Y-63280000D01*
X45280000Y-60021000D02*
X45280000Y-60780000D01*
X45280000Y-56680000D02*
X45280000Y-58279000D01*
X53655000Y-66620000D02*
X57520000Y-66620000D01*
X45280000Y-66620000D02*
X49145000Y-66620000D01*
X53655000Y-56680000D02*
X57520000Y-56680000D01*
X45280000Y-56680000D02*
X49145000Y-56680000D01*
%TO.C,RV2*%
X45320000Y-71680000D02*
X49185000Y-71680000D01*
X53695000Y-71680000D02*
X57560000Y-71680000D01*
X45320000Y-81620000D02*
X49185000Y-81620000D01*
X53695000Y-81620000D02*
X57560000Y-81620000D01*
X45320000Y-71680000D02*
X45320000Y-73279000D01*
X45320000Y-75021000D02*
X45320000Y-75780000D01*
X45320000Y-77521000D02*
X45320000Y-78280000D01*
X45320000Y-80020000D02*
X45320000Y-81620000D01*
X57560000Y-71680000D02*
X57560000Y-81620000D01*
%TO.C,RV3*%
X45320000Y-86740000D02*
X49185000Y-86740000D01*
X53695000Y-86740000D02*
X57560000Y-86740000D01*
X45320000Y-96680000D02*
X49185000Y-96680000D01*
X53695000Y-96680000D02*
X57560000Y-96680000D01*
X45320000Y-86740000D02*
X45320000Y-88339000D01*
X45320000Y-90081000D02*
X45320000Y-90840000D01*
X45320000Y-92581000D02*
X45320000Y-93340000D01*
X45320000Y-95080000D02*
X45320000Y-96680000D01*
X57560000Y-86740000D02*
X57560000Y-96680000D01*
%TO.C,SW1*%
X51280000Y-38570000D02*
X44459000Y-38570000D01*
X51280000Y-34350000D02*
X44459000Y-34350000D01*
X51280000Y-38570000D02*
X51280000Y-37500000D01*
X51280000Y-35420000D02*
X51280000Y-34350000D01*
X44459000Y-38570000D02*
X44459000Y-37450000D01*
X44459000Y-35470000D02*
X44459000Y-34350000D01*
X51520000Y-38810000D02*
X50137000Y-38810000D01*
X51520000Y-38810000D02*
X51520000Y-37500000D01*
X49680000Y-37095000D02*
X49680000Y-35825000D01*
X49680000Y-35825000D02*
X46060000Y-35825000D01*
X46060000Y-35825000D02*
X46060000Y-37095000D01*
X46060000Y-37095000D02*
X49680000Y-37095000D01*
X49680000Y-36975000D02*
X48473333Y-36975000D01*
X49680000Y-36855000D02*
X48473333Y-36855000D01*
X49680000Y-36735000D02*
X48473333Y-36735000D01*
X49680000Y-36615000D02*
X48473333Y-36615000D01*
X49680000Y-36495000D02*
X48473333Y-36495000D01*
X49680000Y-36375000D02*
X48473333Y-36375000D01*
X49680000Y-36255000D02*
X48473333Y-36255000D01*
X49680000Y-36135000D02*
X48473333Y-36135000D01*
X49680000Y-36015000D02*
X48473333Y-36015000D01*
X49680000Y-35895000D02*
X48473333Y-35895000D01*
X48473333Y-37095000D02*
X48473333Y-35825000D01*
%TO.C,SW2*%
X48593333Y-44045000D02*
X48593333Y-42775000D01*
X49800000Y-42845000D02*
X48593333Y-42845000D01*
X49800000Y-42965000D02*
X48593333Y-42965000D01*
X49800000Y-43085000D02*
X48593333Y-43085000D01*
X49800000Y-43205000D02*
X48593333Y-43205000D01*
X49800000Y-43325000D02*
X48593333Y-43325000D01*
X49800000Y-43445000D02*
X48593333Y-43445000D01*
X49800000Y-43565000D02*
X48593333Y-43565000D01*
X49800000Y-43685000D02*
X48593333Y-43685000D01*
X49800000Y-43805000D02*
X48593333Y-43805000D01*
X49800000Y-43925000D02*
X48593333Y-43925000D01*
X46180000Y-44045000D02*
X49800000Y-44045000D01*
X46180000Y-42775000D02*
X46180000Y-44045000D01*
X49800000Y-42775000D02*
X46180000Y-42775000D01*
X49800000Y-44045000D02*
X49800000Y-42775000D01*
X51640000Y-45760000D02*
X51640000Y-44450000D01*
X51640000Y-45760000D02*
X50257000Y-45760000D01*
X44579000Y-42420000D02*
X44579000Y-41300000D01*
X44579000Y-45520000D02*
X44579000Y-44400000D01*
X51400000Y-42370000D02*
X51400000Y-41300000D01*
X51400000Y-45520000D02*
X51400000Y-44450000D01*
X51400000Y-41300000D02*
X44579000Y-41300000D01*
X51400000Y-45520000D02*
X44579000Y-45520000D01*
%TO.C,SW3*%
X51420000Y-52560000D02*
X44599000Y-52560000D01*
X51420000Y-48340000D02*
X44599000Y-48340000D01*
X51420000Y-52560000D02*
X51420000Y-51490000D01*
X51420000Y-49410000D02*
X51420000Y-48340000D01*
X44599000Y-52560000D02*
X44599000Y-51440000D01*
X44599000Y-49460000D02*
X44599000Y-48340000D01*
X51660000Y-52800000D02*
X50277000Y-52800000D01*
X51660000Y-52800000D02*
X51660000Y-51490000D01*
X49820000Y-51085000D02*
X49820000Y-49815000D01*
X49820000Y-49815000D02*
X46200000Y-49815000D01*
X46200000Y-49815000D02*
X46200000Y-51085000D01*
X46200000Y-51085000D02*
X49820000Y-51085000D01*
X49820000Y-50965000D02*
X48613333Y-50965000D01*
X49820000Y-50845000D02*
X48613333Y-50845000D01*
X49820000Y-50725000D02*
X48613333Y-50725000D01*
X49820000Y-50605000D02*
X48613333Y-50605000D01*
X49820000Y-50485000D02*
X48613333Y-50485000D01*
X49820000Y-50365000D02*
X48613333Y-50365000D01*
X49820000Y-50245000D02*
X48613333Y-50245000D01*
X49820000Y-50125000D02*
X48613333Y-50125000D01*
X49820000Y-50005000D02*
X48613333Y-50005000D01*
X49820000Y-49885000D02*
X48613333Y-49885000D01*
X48613333Y-51085000D02*
X48613333Y-49815000D01*
%TO.C,TH1*%
X64160000Y-87670000D02*
X72400000Y-87670000D01*
X64160000Y-91160000D02*
X72400000Y-91160000D01*
X64160000Y-87670000D02*
X64160000Y-91160000D01*
X72400000Y-87670000D02*
X72400000Y-91160000D01*
X66680000Y-87670000D02*
X66680000Y-88740000D01*
X66680000Y-90840000D02*
X66680000Y-91160000D01*
X69881000Y-87670000D02*
X69881000Y-89250000D01*
X69881000Y-90330000D02*
X69881000Y-91160000D01*
%TO.C,D17*%
D13*
X71385714Y-73712380D02*
X71385714Y-72712380D01*
X71623809Y-72712380D01*
X71766666Y-72760000D01*
X71861904Y-72855238D01*
X71909523Y-72950476D01*
X71957142Y-73140952D01*
X71957142Y-73283809D01*
X71909523Y-73474285D01*
X71861904Y-73569523D01*
X71766666Y-73664761D01*
X71623809Y-73712380D01*
X71385714Y-73712380D01*
X72909523Y-73712380D02*
X72338095Y-73712380D01*
X72623809Y-73712380D02*
X72623809Y-72712380D01*
X72528571Y-72855238D01*
X72433333Y-72950476D01*
X72338095Y-72998095D01*
X73242857Y-72712380D02*
X73909523Y-72712380D01*
X73480952Y-73712380D01*
X68735714Y-75612380D02*
X68164285Y-75612380D01*
X68450000Y-75612380D02*
X68450000Y-74612380D01*
X68354761Y-74755238D01*
X68259523Y-74850476D01*
X68164285Y-74898095D01*
%TO.C,D16*%
X85115714Y-73752380D02*
X85115714Y-72752380D01*
X85353809Y-72752380D01*
X85496666Y-72800000D01*
X85591904Y-72895238D01*
X85639523Y-72990476D01*
X85687142Y-73180952D01*
X85687142Y-73323809D01*
X85639523Y-73514285D01*
X85591904Y-73609523D01*
X85496666Y-73704761D01*
X85353809Y-73752380D01*
X85115714Y-73752380D01*
X86639523Y-73752380D02*
X86068095Y-73752380D01*
X86353809Y-73752380D02*
X86353809Y-72752380D01*
X86258571Y-72895238D01*
X86163333Y-72990476D01*
X86068095Y-73038095D01*
X87496666Y-72752380D02*
X87306190Y-72752380D01*
X87210952Y-72800000D01*
X87163333Y-72847619D01*
X87068095Y-72990476D01*
X87020476Y-73180952D01*
X87020476Y-73561904D01*
X87068095Y-73657142D01*
X87115714Y-73704761D01*
X87210952Y-73752380D01*
X87401428Y-73752380D01*
X87496666Y-73704761D01*
X87544285Y-73657142D01*
X87591904Y-73561904D01*
X87591904Y-73323809D01*
X87544285Y-73228571D01*
X87496666Y-73180952D01*
X87401428Y-73133333D01*
X87210952Y-73133333D01*
X87115714Y-73180952D01*
X87068095Y-73228571D01*
X87020476Y-73323809D01*
X82465714Y-75652380D02*
X81894285Y-75652380D01*
X82180000Y-75652380D02*
X82180000Y-74652380D01*
X82084761Y-74795238D01*
X81989523Y-74890476D01*
X81894285Y-74938095D01*
%TO.C,D15*%
X98045714Y-73722380D02*
X98045714Y-72722380D01*
X98283809Y-72722380D01*
X98426666Y-72770000D01*
X98521904Y-72865238D01*
X98569523Y-72960476D01*
X98617142Y-73150952D01*
X98617142Y-73293809D01*
X98569523Y-73484285D01*
X98521904Y-73579523D01*
X98426666Y-73674761D01*
X98283809Y-73722380D01*
X98045714Y-73722380D01*
X99569523Y-73722380D02*
X98998095Y-73722380D01*
X99283809Y-73722380D02*
X99283809Y-72722380D01*
X99188571Y-72865238D01*
X99093333Y-72960476D01*
X98998095Y-73008095D01*
X100474285Y-72722380D02*
X99998095Y-72722380D01*
X99950476Y-73198571D01*
X99998095Y-73150952D01*
X100093333Y-73103333D01*
X100331428Y-73103333D01*
X100426666Y-73150952D01*
X100474285Y-73198571D01*
X100521904Y-73293809D01*
X100521904Y-73531904D01*
X100474285Y-73627142D01*
X100426666Y-73674761D01*
X100331428Y-73722380D01*
X100093333Y-73722380D01*
X99998095Y-73674761D01*
X99950476Y-73627142D01*
X95395714Y-75622380D02*
X94824285Y-75622380D01*
X95110000Y-75622380D02*
X95110000Y-74622380D01*
X95014761Y-74765238D01*
X94919523Y-74860476D01*
X94824285Y-74908095D01*
%TO.C,C10*%
X79617142Y-77382857D02*
X79664761Y-77430476D01*
X79712380Y-77573333D01*
X79712380Y-77668571D01*
X79664761Y-77811428D01*
X79569523Y-77906666D01*
X79474285Y-77954285D01*
X79283809Y-78001904D01*
X79140952Y-78001904D01*
X78950476Y-77954285D01*
X78855238Y-77906666D01*
X78760000Y-77811428D01*
X78712380Y-77668571D01*
X78712380Y-77573333D01*
X78760000Y-77430476D01*
X78807619Y-77382857D01*
X79712380Y-76430476D02*
X79712380Y-77001904D01*
X79712380Y-76716190D02*
X78712380Y-76716190D01*
X78855238Y-76811428D01*
X78950476Y-76906666D01*
X78998095Y-77001904D01*
X78712380Y-75811428D02*
X78712380Y-75716190D01*
X78760000Y-75620952D01*
X78807619Y-75573333D01*
X78902857Y-75525714D01*
X79093333Y-75478095D01*
X79331428Y-75478095D01*
X79521904Y-75525714D01*
X79617142Y-75573333D01*
X79664761Y-75620952D01*
X79712380Y-75716190D01*
X79712380Y-75811428D01*
X79664761Y-75906666D01*
X79617142Y-75954285D01*
X79521904Y-76001904D01*
X79331428Y-76049523D01*
X79093333Y-76049523D01*
X78902857Y-76001904D01*
X78807619Y-75954285D01*
X78760000Y-75906666D01*
X78712380Y-75811428D01*
%TO.C,C9*%
X106027142Y-76751666D02*
X106074761Y-76799285D01*
X106122380Y-76942142D01*
X106122380Y-77037380D01*
X106074761Y-77180238D01*
X105979523Y-77275476D01*
X105884285Y-77323095D01*
X105693809Y-77370714D01*
X105550952Y-77370714D01*
X105360476Y-77323095D01*
X105265238Y-77275476D01*
X105170000Y-77180238D01*
X105122380Y-77037380D01*
X105122380Y-76942142D01*
X105170000Y-76799285D01*
X105217619Y-76751666D01*
X106122380Y-76275476D02*
X106122380Y-76085000D01*
X106074761Y-75989761D01*
X106027142Y-75942142D01*
X105884285Y-75846904D01*
X105693809Y-75799285D01*
X105312857Y-75799285D01*
X105217619Y-75846904D01*
X105170000Y-75894523D01*
X105122380Y-75989761D01*
X105122380Y-76180238D01*
X105170000Y-76275476D01*
X105217619Y-76323095D01*
X105312857Y-76370714D01*
X105550952Y-76370714D01*
X105646190Y-76323095D01*
X105693809Y-76275476D01*
X105741428Y-76180238D01*
X105741428Y-75989761D01*
X105693809Y-75894523D01*
X105646190Y-75846904D01*
X105550952Y-75799285D01*
%TO.C,C8*%
X93497142Y-76971666D02*
X93544761Y-77019285D01*
X93592380Y-77162142D01*
X93592380Y-77257380D01*
X93544761Y-77400238D01*
X93449523Y-77495476D01*
X93354285Y-77543095D01*
X93163809Y-77590714D01*
X93020952Y-77590714D01*
X92830476Y-77543095D01*
X92735238Y-77495476D01*
X92640000Y-77400238D01*
X92592380Y-77257380D01*
X92592380Y-77162142D01*
X92640000Y-77019285D01*
X92687619Y-76971666D01*
X93020952Y-76400238D02*
X92973333Y-76495476D01*
X92925714Y-76543095D01*
X92830476Y-76590714D01*
X92782857Y-76590714D01*
X92687619Y-76543095D01*
X92640000Y-76495476D01*
X92592380Y-76400238D01*
X92592380Y-76209761D01*
X92640000Y-76114523D01*
X92687619Y-76066904D01*
X92782857Y-76019285D01*
X92830476Y-76019285D01*
X92925714Y-76066904D01*
X92973333Y-76114523D01*
X93020952Y-76209761D01*
X93020952Y-76400238D01*
X93068571Y-76495476D01*
X93116190Y-76543095D01*
X93211428Y-76590714D01*
X93401904Y-76590714D01*
X93497142Y-76543095D01*
X93544761Y-76495476D01*
X93592380Y-76400238D01*
X93592380Y-76209761D01*
X93544761Y-76114523D01*
X93497142Y-76066904D01*
X93401904Y-76019285D01*
X93211428Y-76019285D01*
X93116190Y-76066904D01*
X93068571Y-76114523D01*
X93020952Y-76209761D01*
%TO.C,A1*%
X84325714Y-70256666D02*
X84801904Y-70256666D01*
X84230476Y-70542380D02*
X84563809Y-69542380D01*
X84897142Y-70542380D01*
X85754285Y-70542380D02*
X85182857Y-70542380D01*
X85468571Y-70542380D02*
X85468571Y-69542380D01*
X85373333Y-69685238D01*
X85278095Y-69780476D01*
X85182857Y-69828095D01*
%TO.C,C7*%
X72398333Y-41297142D02*
X72350714Y-41344761D01*
X72207857Y-41392380D01*
X72112619Y-41392380D01*
X71969761Y-41344761D01*
X71874523Y-41249523D01*
X71826904Y-41154285D01*
X71779285Y-40963809D01*
X71779285Y-40820952D01*
X71826904Y-40630476D01*
X71874523Y-40535238D01*
X71969761Y-40440000D01*
X72112619Y-40392380D01*
X72207857Y-40392380D01*
X72350714Y-40440000D01*
X72398333Y-40487619D01*
X72731666Y-40392380D02*
X73398333Y-40392380D01*
X72969761Y-41392380D01*
%TO.C,C6*%
X72568333Y-57687142D02*
X72520714Y-57734761D01*
X72377857Y-57782380D01*
X72282619Y-57782380D01*
X72139761Y-57734761D01*
X72044523Y-57639523D01*
X71996904Y-57544285D01*
X71949285Y-57353809D01*
X71949285Y-57210952D01*
X71996904Y-57020476D01*
X72044523Y-56925238D01*
X72139761Y-56830000D01*
X72282619Y-56782380D01*
X72377857Y-56782380D01*
X72520714Y-56830000D01*
X72568333Y-56877619D01*
X73425476Y-56782380D02*
X73235000Y-56782380D01*
X73139761Y-56830000D01*
X73092142Y-56877619D01*
X72996904Y-57020476D01*
X72949285Y-57210952D01*
X72949285Y-57591904D01*
X72996904Y-57687142D01*
X73044523Y-57734761D01*
X73139761Y-57782380D01*
X73330238Y-57782380D01*
X73425476Y-57734761D01*
X73473095Y-57687142D01*
X73520714Y-57591904D01*
X73520714Y-57353809D01*
X73473095Y-57258571D01*
X73425476Y-57210952D01*
X73330238Y-57163333D01*
X73139761Y-57163333D01*
X73044523Y-57210952D01*
X72996904Y-57258571D01*
X72949285Y-57353809D01*
%TO.C,C5*%
X72438333Y-72297142D02*
X72390714Y-72344761D01*
X72247857Y-72392380D01*
X72152619Y-72392380D01*
X72009761Y-72344761D01*
X71914523Y-72249523D01*
X71866904Y-72154285D01*
X71819285Y-71963809D01*
X71819285Y-71820952D01*
X71866904Y-71630476D01*
X71914523Y-71535238D01*
X72009761Y-71440000D01*
X72152619Y-71392380D01*
X72247857Y-71392380D01*
X72390714Y-71440000D01*
X72438333Y-71487619D01*
X73343095Y-71392380D02*
X72866904Y-71392380D01*
X72819285Y-71868571D01*
X72866904Y-71820952D01*
X72962142Y-71773333D01*
X73200238Y-71773333D01*
X73295476Y-71820952D01*
X73343095Y-71868571D01*
X73390714Y-71963809D01*
X73390714Y-72201904D01*
X73343095Y-72297142D01*
X73295476Y-72344761D01*
X73200238Y-72392380D01*
X72962142Y-72392380D01*
X72866904Y-72344761D01*
X72819285Y-72297142D01*
%TO.C,C4*%
X120517142Y-76711666D02*
X120564761Y-76759285D01*
X120612380Y-76902142D01*
X120612380Y-76997380D01*
X120564761Y-77140238D01*
X120469523Y-77235476D01*
X120374285Y-77283095D01*
X120183809Y-77330714D01*
X120040952Y-77330714D01*
X119850476Y-77283095D01*
X119755238Y-77235476D01*
X119660000Y-77140238D01*
X119612380Y-76997380D01*
X119612380Y-76902142D01*
X119660000Y-76759285D01*
X119707619Y-76711666D01*
X119945714Y-75854523D02*
X120612380Y-75854523D01*
X119564761Y-76092619D02*
X120279047Y-76330714D01*
X120279047Y-75711666D01*
%TO.C,C3*%
X113928333Y-58937142D02*
X113880714Y-58984761D01*
X113737857Y-59032380D01*
X113642619Y-59032380D01*
X113499761Y-58984761D01*
X113404523Y-58889523D01*
X113356904Y-58794285D01*
X113309285Y-58603809D01*
X113309285Y-58460952D01*
X113356904Y-58270476D01*
X113404523Y-58175238D01*
X113499761Y-58080000D01*
X113642619Y-58032380D01*
X113737857Y-58032380D01*
X113880714Y-58080000D01*
X113928333Y-58127619D01*
X114261666Y-58032380D02*
X114880714Y-58032380D01*
X114547380Y-58413333D01*
X114690238Y-58413333D01*
X114785476Y-58460952D01*
X114833095Y-58508571D01*
X114880714Y-58603809D01*
X114880714Y-58841904D01*
X114833095Y-58937142D01*
X114785476Y-58984761D01*
X114690238Y-59032380D01*
X114404523Y-59032380D01*
X114309285Y-58984761D01*
X114261666Y-58937142D01*
%TO.C,C2*%
X114188333Y-44167142D02*
X114140714Y-44214761D01*
X113997857Y-44262380D01*
X113902619Y-44262380D01*
X113759761Y-44214761D01*
X113664523Y-44119523D01*
X113616904Y-44024285D01*
X113569285Y-43833809D01*
X113569285Y-43690952D01*
X113616904Y-43500476D01*
X113664523Y-43405238D01*
X113759761Y-43310000D01*
X113902619Y-43262380D01*
X113997857Y-43262380D01*
X114140714Y-43310000D01*
X114188333Y-43357619D01*
X114569285Y-43357619D02*
X114616904Y-43310000D01*
X114712142Y-43262380D01*
X114950238Y-43262380D01*
X115045476Y-43310000D01*
X115093095Y-43357619D01*
X115140714Y-43452857D01*
X115140714Y-43548095D01*
X115093095Y-43690952D01*
X114521666Y-44262380D01*
X115140714Y-44262380D01*
%TO.C,C1*%
X113938333Y-28677142D02*
X113890714Y-28724761D01*
X113747857Y-28772380D01*
X113652619Y-28772380D01*
X113509761Y-28724761D01*
X113414523Y-28629523D01*
X113366904Y-28534285D01*
X113319285Y-28343809D01*
X113319285Y-28200952D01*
X113366904Y-28010476D01*
X113414523Y-27915238D01*
X113509761Y-27820000D01*
X113652619Y-27772380D01*
X113747857Y-27772380D01*
X113890714Y-27820000D01*
X113938333Y-27867619D01*
X114890714Y-28772380D02*
X114319285Y-28772380D01*
X114605000Y-28772380D02*
X114605000Y-27772380D01*
X114509761Y-27915238D01*
X114414523Y-28010476D01*
X114319285Y-28058095D01*
%TO.C,BZ1*%
X103409047Y-82368571D02*
X103551904Y-82416190D01*
X103599523Y-82463809D01*
X103647142Y-82559047D01*
X103647142Y-82701904D01*
X103599523Y-82797142D01*
X103551904Y-82844761D01*
X103456666Y-82892380D01*
X103075714Y-82892380D01*
X103075714Y-81892380D01*
X103409047Y-81892380D01*
X103504285Y-81940000D01*
X103551904Y-81987619D01*
X103599523Y-82082857D01*
X103599523Y-82178095D01*
X103551904Y-82273333D01*
X103504285Y-82320952D01*
X103409047Y-82368571D01*
X103075714Y-82368571D01*
X103980476Y-81892380D02*
X104647142Y-81892380D01*
X103980476Y-82892380D01*
X104647142Y-82892380D01*
X105551904Y-82892380D02*
X104980476Y-82892380D01*
X105266190Y-82892380D02*
X105266190Y-81892380D01*
X105170952Y-82035238D01*
X105075714Y-82130476D01*
X104980476Y-82178095D01*
%TO.C,D1*%
X111052380Y-35338095D02*
X110052380Y-35338095D01*
X110052380Y-35100000D01*
X110100000Y-34957142D01*
X110195238Y-34861904D01*
X110290476Y-34814285D01*
X110480952Y-34766666D01*
X110623809Y-34766666D01*
X110814285Y-34814285D01*
X110909523Y-34861904D01*
X111004761Y-34957142D01*
X111052380Y-35100000D01*
X111052380Y-35338095D01*
X111052380Y-33814285D02*
X111052380Y-34385714D01*
X111052380Y-34100000D02*
X110052380Y-34100000D01*
X110195238Y-34195238D01*
X110290476Y-34290476D01*
X110338095Y-34385714D01*
X112952380Y-38464285D02*
X112952380Y-39035714D01*
X112952380Y-38750000D02*
X111952380Y-38750000D01*
X112095238Y-38845238D01*
X112190476Y-38940476D01*
X112238095Y-39035714D01*
%TO.C,D2*%
X111182380Y-51138095D02*
X110182380Y-51138095D01*
X110182380Y-50900000D01*
X110230000Y-50757142D01*
X110325238Y-50661904D01*
X110420476Y-50614285D01*
X110610952Y-50566666D01*
X110753809Y-50566666D01*
X110944285Y-50614285D01*
X111039523Y-50661904D01*
X111134761Y-50757142D01*
X111182380Y-50900000D01*
X111182380Y-51138095D01*
X110277619Y-50185714D02*
X110230000Y-50138095D01*
X110182380Y-50042857D01*
X110182380Y-49804761D01*
X110230000Y-49709523D01*
X110277619Y-49661904D01*
X110372857Y-49614285D01*
X110468095Y-49614285D01*
X110610952Y-49661904D01*
X111182380Y-50233333D01*
X111182380Y-49614285D01*
X113082380Y-54264285D02*
X113082380Y-54835714D01*
X113082380Y-54550000D02*
X112082380Y-54550000D01*
X112225238Y-54645238D01*
X112320476Y-54740476D01*
X112368095Y-54835714D01*
%TO.C,D3*%
X111122380Y-66208095D02*
X110122380Y-66208095D01*
X110122380Y-65970000D01*
X110170000Y-65827142D01*
X110265238Y-65731904D01*
X110360476Y-65684285D01*
X110550952Y-65636666D01*
X110693809Y-65636666D01*
X110884285Y-65684285D01*
X110979523Y-65731904D01*
X111074761Y-65827142D01*
X111122380Y-65970000D01*
X111122380Y-66208095D01*
X110122380Y-65303333D02*
X110122380Y-64684285D01*
X110503333Y-65017619D01*
X110503333Y-64874761D01*
X110550952Y-64779523D01*
X110598571Y-64731904D01*
X110693809Y-64684285D01*
X110931904Y-64684285D01*
X111027142Y-64731904D01*
X111074761Y-64779523D01*
X111122380Y-64874761D01*
X111122380Y-65160476D01*
X111074761Y-65255714D01*
X111027142Y-65303333D01*
X113022380Y-69334285D02*
X113022380Y-69905714D01*
X113022380Y-69620000D02*
X112022380Y-69620000D01*
X112165238Y-69715238D01*
X112260476Y-69810476D01*
X112308095Y-69905714D01*
%TO.C,D4*%
X113131904Y-73752380D02*
X113131904Y-72752380D01*
X113370000Y-72752380D01*
X113512857Y-72800000D01*
X113608095Y-72895238D01*
X113655714Y-72990476D01*
X113703333Y-73180952D01*
X113703333Y-73323809D01*
X113655714Y-73514285D01*
X113608095Y-73609523D01*
X113512857Y-73704761D01*
X113370000Y-73752380D01*
X113131904Y-73752380D01*
X114560476Y-73085714D02*
X114560476Y-73752380D01*
X114322380Y-72704761D02*
X114084285Y-73419047D01*
X114703333Y-73419047D01*
X110005714Y-75652380D02*
X109434285Y-75652380D01*
X109720000Y-75652380D02*
X109720000Y-74652380D01*
X109624761Y-74795238D01*
X109529523Y-74890476D01*
X109434285Y-74938095D01*
%TO.C,D5*%
X76642380Y-66238095D02*
X75642380Y-66238095D01*
X75642380Y-66000000D01*
X75690000Y-65857142D01*
X75785238Y-65761904D01*
X75880476Y-65714285D01*
X76070952Y-65666666D01*
X76213809Y-65666666D01*
X76404285Y-65714285D01*
X76499523Y-65761904D01*
X76594761Y-65857142D01*
X76642380Y-66000000D01*
X76642380Y-66238095D01*
X75642380Y-64761904D02*
X75642380Y-65238095D01*
X76118571Y-65285714D01*
X76070952Y-65238095D01*
X76023333Y-65142857D01*
X76023333Y-64904761D01*
X76070952Y-64809523D01*
X76118571Y-64761904D01*
X76213809Y-64714285D01*
X76451904Y-64714285D01*
X76547142Y-64761904D01*
X76594761Y-64809523D01*
X76642380Y-64904761D01*
X76642380Y-65142857D01*
X76594761Y-65238095D01*
X76547142Y-65285714D01*
X74742380Y-61064285D02*
X74742380Y-61635714D01*
X74742380Y-61350000D02*
X73742380Y-61350000D01*
X73885238Y-61445238D01*
X73980476Y-61540476D01*
X74028095Y-61635714D01*
%TO.C,D6*%
X76642380Y-51528095D02*
X75642380Y-51528095D01*
X75642380Y-51290000D01*
X75690000Y-51147142D01*
X75785238Y-51051904D01*
X75880476Y-51004285D01*
X76070952Y-50956666D01*
X76213809Y-50956666D01*
X76404285Y-51004285D01*
X76499523Y-51051904D01*
X76594761Y-51147142D01*
X76642380Y-51290000D01*
X76642380Y-51528095D01*
X75642380Y-50099523D02*
X75642380Y-50290000D01*
X75690000Y-50385238D01*
X75737619Y-50432857D01*
X75880476Y-50528095D01*
X76070952Y-50575714D01*
X76451904Y-50575714D01*
X76547142Y-50528095D01*
X76594761Y-50480476D01*
X76642380Y-50385238D01*
X76642380Y-50194761D01*
X76594761Y-50099523D01*
X76547142Y-50051904D01*
X76451904Y-50004285D01*
X76213809Y-50004285D01*
X76118571Y-50051904D01*
X76070952Y-50099523D01*
X76023333Y-50194761D01*
X76023333Y-50385238D01*
X76070952Y-50480476D01*
X76118571Y-50528095D01*
X76213809Y-50575714D01*
X74742380Y-46354285D02*
X74742380Y-46925714D01*
X74742380Y-46640000D02*
X73742380Y-46640000D01*
X73885238Y-46735238D01*
X73980476Y-46830476D01*
X74028095Y-46925714D01*
%TO.C,D7*%
X76612380Y-35288095D02*
X75612380Y-35288095D01*
X75612380Y-35050000D01*
X75660000Y-34907142D01*
X75755238Y-34811904D01*
X75850476Y-34764285D01*
X76040952Y-34716666D01*
X76183809Y-34716666D01*
X76374285Y-34764285D01*
X76469523Y-34811904D01*
X76564761Y-34907142D01*
X76612380Y-35050000D01*
X76612380Y-35288095D01*
X75612380Y-34383333D02*
X75612380Y-33716666D01*
X76612380Y-34145238D01*
X74712380Y-30114285D02*
X74712380Y-30685714D01*
X74712380Y-30400000D02*
X73712380Y-30400000D01*
X73855238Y-30495238D01*
X73950476Y-30590476D01*
X73998095Y-30685714D01*
%TO.C,D8*%
X137051904Y-80812380D02*
X137051904Y-79812380D01*
X137290000Y-79812380D01*
X137432857Y-79860000D01*
X137528095Y-79955238D01*
X137575714Y-80050476D01*
X137623333Y-80240952D01*
X137623333Y-80383809D01*
X137575714Y-80574285D01*
X137528095Y-80669523D01*
X137432857Y-80764761D01*
X137290000Y-80812380D01*
X137051904Y-80812380D01*
X138194761Y-80240952D02*
X138099523Y-80193333D01*
X138051904Y-80145714D01*
X138004285Y-80050476D01*
X138004285Y-80002857D01*
X138051904Y-79907619D01*
X138099523Y-79860000D01*
X138194761Y-79812380D01*
X138385238Y-79812380D01*
X138480476Y-79860000D01*
X138528095Y-79907619D01*
X138575714Y-80002857D01*
X138575714Y-80050476D01*
X138528095Y-80145714D01*
X138480476Y-80193333D01*
X138385238Y-80240952D01*
X138194761Y-80240952D01*
X138099523Y-80288571D01*
X138051904Y-80336190D01*
X138004285Y-80431428D01*
X138004285Y-80621904D01*
X138051904Y-80717142D01*
X138099523Y-80764761D01*
X138194761Y-80812380D01*
X138385238Y-80812380D01*
X138480476Y-80764761D01*
X138528095Y-80717142D01*
X138575714Y-80621904D01*
X138575714Y-80431428D01*
X138528095Y-80336190D01*
X138480476Y-80288571D01*
X138385238Y-80240952D01*
%TO.C,D9*%
X137091904Y-72682380D02*
X137091904Y-71682380D01*
X137330000Y-71682380D01*
X137472857Y-71730000D01*
X137568095Y-71825238D01*
X137615714Y-71920476D01*
X137663333Y-72110952D01*
X137663333Y-72253809D01*
X137615714Y-72444285D01*
X137568095Y-72539523D01*
X137472857Y-72634761D01*
X137330000Y-72682380D01*
X137091904Y-72682380D01*
X138139523Y-72682380D02*
X138330000Y-72682380D01*
X138425238Y-72634761D01*
X138472857Y-72587142D01*
X138568095Y-72444285D01*
X138615714Y-72253809D01*
X138615714Y-71872857D01*
X138568095Y-71777619D01*
X138520476Y-71730000D01*
X138425238Y-71682380D01*
X138234761Y-71682380D01*
X138139523Y-71730000D01*
X138091904Y-71777619D01*
X138044285Y-71872857D01*
X138044285Y-72110952D01*
X138091904Y-72206190D01*
X138139523Y-72253809D01*
X138234761Y-72301428D01*
X138425238Y-72301428D01*
X138520476Y-72253809D01*
X138568095Y-72206190D01*
X138615714Y-72110952D01*
%TO.C,D10*%
X136705714Y-64752380D02*
X136705714Y-63752380D01*
X136943809Y-63752380D01*
X137086666Y-63800000D01*
X137181904Y-63895238D01*
X137229523Y-63990476D01*
X137277142Y-64180952D01*
X137277142Y-64323809D01*
X137229523Y-64514285D01*
X137181904Y-64609523D01*
X137086666Y-64704761D01*
X136943809Y-64752380D01*
X136705714Y-64752380D01*
X138229523Y-64752380D02*
X137658095Y-64752380D01*
X137943809Y-64752380D02*
X137943809Y-63752380D01*
X137848571Y-63895238D01*
X137753333Y-63990476D01*
X137658095Y-64038095D01*
X138848571Y-63752380D02*
X138943809Y-63752380D01*
X139039047Y-63800000D01*
X139086666Y-63847619D01*
X139134285Y-63942857D01*
X139181904Y-64133333D01*
X139181904Y-64371428D01*
X139134285Y-64561904D01*
X139086666Y-64657142D01*
X139039047Y-64704761D01*
X138943809Y-64752380D01*
X138848571Y-64752380D01*
X138753333Y-64704761D01*
X138705714Y-64657142D01*
X138658095Y-64561904D01*
X138610476Y-64371428D01*
X138610476Y-64133333D01*
X138658095Y-63942857D01*
X138705714Y-63847619D01*
X138753333Y-63800000D01*
X138848571Y-63752380D01*
%TO.C,D11*%
X136665714Y-56662380D02*
X136665714Y-55662380D01*
X136903809Y-55662380D01*
X137046666Y-55710000D01*
X137141904Y-55805238D01*
X137189523Y-55900476D01*
X137237142Y-56090952D01*
X137237142Y-56233809D01*
X137189523Y-56424285D01*
X137141904Y-56519523D01*
X137046666Y-56614761D01*
X136903809Y-56662380D01*
X136665714Y-56662380D01*
X138189523Y-56662380D02*
X137618095Y-56662380D01*
X137903809Y-56662380D02*
X137903809Y-55662380D01*
X137808571Y-55805238D01*
X137713333Y-55900476D01*
X137618095Y-55948095D01*
X139141904Y-56662380D02*
X138570476Y-56662380D01*
X138856190Y-56662380D02*
X138856190Y-55662380D01*
X138760952Y-55805238D01*
X138665714Y-55900476D01*
X138570476Y-55948095D01*
%TO.C,D12*%
X136625714Y-48742380D02*
X136625714Y-47742380D01*
X136863809Y-47742380D01*
X137006666Y-47790000D01*
X137101904Y-47885238D01*
X137149523Y-47980476D01*
X137197142Y-48170952D01*
X137197142Y-48313809D01*
X137149523Y-48504285D01*
X137101904Y-48599523D01*
X137006666Y-48694761D01*
X136863809Y-48742380D01*
X136625714Y-48742380D01*
X138149523Y-48742380D02*
X137578095Y-48742380D01*
X137863809Y-48742380D02*
X137863809Y-47742380D01*
X137768571Y-47885238D01*
X137673333Y-47980476D01*
X137578095Y-48028095D01*
X138530476Y-47837619D02*
X138578095Y-47790000D01*
X138673333Y-47742380D01*
X138911428Y-47742380D01*
X139006666Y-47790000D01*
X139054285Y-47837619D01*
X139101904Y-47932857D01*
X139101904Y-48028095D01*
X139054285Y-48170952D01*
X138482857Y-48742380D01*
X139101904Y-48742380D01*
%TO.C,D13*%
X136545714Y-40692380D02*
X136545714Y-39692380D01*
X136783809Y-39692380D01*
X136926666Y-39740000D01*
X137021904Y-39835238D01*
X137069523Y-39930476D01*
X137117142Y-40120952D01*
X137117142Y-40263809D01*
X137069523Y-40454285D01*
X137021904Y-40549523D01*
X136926666Y-40644761D01*
X136783809Y-40692380D01*
X136545714Y-40692380D01*
X138069523Y-40692380D02*
X137498095Y-40692380D01*
X137783809Y-40692380D02*
X137783809Y-39692380D01*
X137688571Y-39835238D01*
X137593333Y-39930476D01*
X137498095Y-39978095D01*
X138402857Y-39692380D02*
X139021904Y-39692380D01*
X138688571Y-40073333D01*
X138831428Y-40073333D01*
X138926666Y-40120952D01*
X138974285Y-40168571D01*
X139021904Y-40263809D01*
X139021904Y-40501904D01*
X138974285Y-40597142D01*
X138926666Y-40644761D01*
X138831428Y-40692380D01*
X138545714Y-40692380D01*
X138450476Y-40644761D01*
X138402857Y-40597142D01*
%TO.C,D14*%
X54885714Y-23872380D02*
X54885714Y-22872380D01*
X55123809Y-22872380D01*
X55266666Y-22920000D01*
X55361904Y-23015238D01*
X55409523Y-23110476D01*
X55457142Y-23300952D01*
X55457142Y-23443809D01*
X55409523Y-23634285D01*
X55361904Y-23729523D01*
X55266666Y-23824761D01*
X55123809Y-23872380D01*
X54885714Y-23872380D01*
X56409523Y-23872380D02*
X55838095Y-23872380D01*
X56123809Y-23872380D02*
X56123809Y-22872380D01*
X56028571Y-23015238D01*
X55933333Y-23110476D01*
X55838095Y-23158095D01*
X57266666Y-23205714D02*
X57266666Y-23872380D01*
X57028571Y-22824761D02*
X56790476Y-23539047D01*
X57409523Y-23539047D01*
%TO.C,H1*%
X47218095Y-100322380D02*
X47218095Y-99322380D01*
X47218095Y-99798571D02*
X47789523Y-99798571D01*
X47789523Y-100322380D02*
X47789523Y-99322380D01*
X48789523Y-100322380D02*
X48218095Y-100322380D01*
X48503809Y-100322380D02*
X48503809Y-99322380D01*
X48408571Y-99465238D01*
X48313333Y-99560476D01*
X48218095Y-99608095D01*
%TO.C,H2*%
X131658095Y-31902380D02*
X131658095Y-30902380D01*
X131658095Y-31378571D02*
X132229523Y-31378571D01*
X132229523Y-31902380D02*
X132229523Y-30902380D01*
X132658095Y-30997619D02*
X132705714Y-30950000D01*
X132800952Y-30902380D01*
X133039047Y-30902380D01*
X133134285Y-30950000D01*
X133181904Y-30997619D01*
X133229523Y-31092857D01*
X133229523Y-31188095D01*
X133181904Y-31330952D01*
X132610476Y-31902380D01*
X133229523Y-31902380D01*
%TO.C,H3*%
X50658095Y-32002380D02*
X50658095Y-31002380D01*
X50658095Y-31478571D02*
X51229523Y-31478571D01*
X51229523Y-32002380D02*
X51229523Y-31002380D01*
X51610476Y-31002380D02*
X52229523Y-31002380D01*
X51896190Y-31383333D01*
X52039047Y-31383333D01*
X52134285Y-31430952D01*
X52181904Y-31478571D01*
X52229523Y-31573809D01*
X52229523Y-31811904D01*
X52181904Y-31907142D01*
X52134285Y-31954761D01*
X52039047Y-32002380D01*
X51753333Y-32002380D01*
X51658095Y-31954761D01*
X51610476Y-31907142D01*
%TO.C,H4*%
X135718095Y-100552380D02*
X135718095Y-99552380D01*
X135718095Y-100028571D02*
X136289523Y-100028571D01*
X136289523Y-100552380D02*
X136289523Y-99552380D01*
X137194285Y-99885714D02*
X137194285Y-100552380D01*
X136956190Y-99504761D02*
X136718095Y-100219047D01*
X137337142Y-100219047D01*
%TO.C,J1*%
X79646666Y-26582380D02*
X79646666Y-27296666D01*
X79599047Y-27439523D01*
X79503809Y-27534761D01*
X79360952Y-27582380D01*
X79265714Y-27582380D01*
X80646666Y-27582380D02*
X80075238Y-27582380D01*
X80360952Y-27582380D02*
X80360952Y-26582380D01*
X80265714Y-26725238D01*
X80170476Y-26820476D01*
X80075238Y-26868095D01*
%TO.C,J2*%
X105526666Y-26612380D02*
X105526666Y-27326666D01*
X105479047Y-27469523D01*
X105383809Y-27564761D01*
X105240952Y-27612380D01*
X105145714Y-27612380D01*
X105955238Y-26707619D02*
X106002857Y-26660000D01*
X106098095Y-26612380D01*
X106336190Y-26612380D01*
X106431428Y-26660000D01*
X106479047Y-26707619D01*
X106526666Y-26802857D01*
X106526666Y-26898095D01*
X106479047Y-27040952D01*
X105907619Y-27612380D01*
X106526666Y-27612380D01*
%TO.C,J3*%
X74632380Y-24993333D02*
X75346666Y-24993333D01*
X75489523Y-25040952D01*
X75584761Y-25136190D01*
X75632380Y-25279047D01*
X75632380Y-25374285D01*
X74632380Y-24612380D02*
X74632380Y-23993333D01*
X75013333Y-24326666D01*
X75013333Y-24183809D01*
X75060952Y-24088571D01*
X75108571Y-24040952D01*
X75203809Y-23993333D01*
X75441904Y-23993333D01*
X75537142Y-24040952D01*
X75584761Y-24088571D01*
X75632380Y-24183809D01*
X75632380Y-24469523D01*
X75584761Y-24564761D01*
X75537142Y-24612380D01*
%TO.C,J5*%
X130022380Y-25033333D02*
X130736666Y-25033333D01*
X130879523Y-25080952D01*
X130974761Y-25176190D01*
X131022380Y-25319047D01*
X131022380Y-25414285D01*
X130022380Y-24080952D02*
X130022380Y-24557142D01*
X130498571Y-24604761D01*
X130450952Y-24557142D01*
X130403333Y-24461904D01*
X130403333Y-24223809D01*
X130450952Y-24128571D01*
X130498571Y-24080952D01*
X130593809Y-24033333D01*
X130831904Y-24033333D01*
X130927142Y-24080952D01*
X130974761Y-24128571D01*
X131022380Y-24223809D01*
X131022380Y-24461904D01*
X130974761Y-24557142D01*
X130927142Y-24604761D01*
%TO.C,J6*%
X120282380Y-29613333D02*
X120996666Y-29613333D01*
X121139523Y-29660952D01*
X121234761Y-29756190D01*
X121282380Y-29899047D01*
X121282380Y-29994285D01*
X120282380Y-28708571D02*
X120282380Y-28899047D01*
X120330000Y-28994285D01*
X120377619Y-29041904D01*
X120520476Y-29137142D01*
X120710952Y-29184761D01*
X121091904Y-29184761D01*
X121187142Y-29137142D01*
X121234761Y-29089523D01*
X121282380Y-28994285D01*
X121282380Y-28803809D01*
X121234761Y-28708571D01*
X121187142Y-28660952D01*
X121091904Y-28613333D01*
X120853809Y-28613333D01*
X120758571Y-28660952D01*
X120710952Y-28708571D01*
X120663333Y-28803809D01*
X120663333Y-28994285D01*
X120710952Y-29089523D01*
X120758571Y-29137142D01*
X120853809Y-29184761D01*
%TO.C,R1*%
X117202380Y-89756666D02*
X116726190Y-90090000D01*
X117202380Y-90328095D02*
X116202380Y-90328095D01*
X116202380Y-89947142D01*
X116250000Y-89851904D01*
X116297619Y-89804285D01*
X116392857Y-89756666D01*
X116535714Y-89756666D01*
X116630952Y-89804285D01*
X116678571Y-89851904D01*
X116726190Y-89947142D01*
X116726190Y-90328095D01*
X117202380Y-88804285D02*
X117202380Y-89375714D01*
X117202380Y-89090000D02*
X116202380Y-89090000D01*
X116345238Y-89185238D01*
X116440476Y-89280476D01*
X116488095Y-89375714D01*
%TO.C,R2*%
X126303333Y-74542380D02*
X125970000Y-74066190D01*
X125731904Y-74542380D02*
X125731904Y-73542380D01*
X126112857Y-73542380D01*
X126208095Y-73590000D01*
X126255714Y-73637619D01*
X126303333Y-73732857D01*
X126303333Y-73875714D01*
X126255714Y-73970952D01*
X126208095Y-74018571D01*
X126112857Y-74066190D01*
X125731904Y-74066190D01*
X126684285Y-73637619D02*
X126731904Y-73590000D01*
X126827142Y-73542380D01*
X127065238Y-73542380D01*
X127160476Y-73590000D01*
X127208095Y-73637619D01*
X127255714Y-73732857D01*
X127255714Y-73828095D01*
X127208095Y-73970952D01*
X126636666Y-74542380D01*
X127255714Y-74542380D01*
%TO.C,R3*%
X85153333Y-92672380D02*
X84820000Y-92196190D01*
X84581904Y-92672380D02*
X84581904Y-91672380D01*
X84962857Y-91672380D01*
X85058095Y-91720000D01*
X85105714Y-91767619D01*
X85153333Y-91862857D01*
X85153333Y-92005714D01*
X85105714Y-92100952D01*
X85058095Y-92148571D01*
X84962857Y-92196190D01*
X84581904Y-92196190D01*
X85486666Y-91672380D02*
X86105714Y-91672380D01*
X85772380Y-92053333D01*
X85915238Y-92053333D01*
X86010476Y-92100952D01*
X86058095Y-92148571D01*
X86105714Y-92243809D01*
X86105714Y-92481904D01*
X86058095Y-92577142D01*
X86010476Y-92624761D01*
X85915238Y-92672380D01*
X85629523Y-92672380D01*
X85534285Y-92624761D01*
X85486666Y-92577142D01*
%TO.C,R4*%
X60923333Y-34522380D02*
X60590000Y-34046190D01*
X60351904Y-34522380D02*
X60351904Y-33522380D01*
X60732857Y-33522380D01*
X60828095Y-33570000D01*
X60875714Y-33617619D01*
X60923333Y-33712857D01*
X60923333Y-33855714D01*
X60875714Y-33950952D01*
X60828095Y-33998571D01*
X60732857Y-34046190D01*
X60351904Y-34046190D01*
X61780476Y-33855714D02*
X61780476Y-34522380D01*
X61542380Y-33474761D02*
X61304285Y-34189047D01*
X61923333Y-34189047D01*
%TO.C,R5*%
X126433333Y-66312380D02*
X126100000Y-65836190D01*
X125861904Y-66312380D02*
X125861904Y-65312380D01*
X126242857Y-65312380D01*
X126338095Y-65360000D01*
X126385714Y-65407619D01*
X126433333Y-65502857D01*
X126433333Y-65645714D01*
X126385714Y-65740952D01*
X126338095Y-65788571D01*
X126242857Y-65836190D01*
X125861904Y-65836190D01*
X127338095Y-65312380D02*
X126861904Y-65312380D01*
X126814285Y-65788571D01*
X126861904Y-65740952D01*
X126957142Y-65693333D01*
X127195238Y-65693333D01*
X127290476Y-65740952D01*
X127338095Y-65788571D01*
X127385714Y-65883809D01*
X127385714Y-66121904D01*
X127338095Y-66217142D01*
X127290476Y-66264761D01*
X127195238Y-66312380D01*
X126957142Y-66312380D01*
X126861904Y-66264761D01*
X126814285Y-66217142D01*
%TO.C,R6*%
X85043333Y-83562380D02*
X84710000Y-83086190D01*
X84471904Y-83562380D02*
X84471904Y-82562380D01*
X84852857Y-82562380D01*
X84948095Y-82610000D01*
X84995714Y-82657619D01*
X85043333Y-82752857D01*
X85043333Y-82895714D01*
X84995714Y-82990952D01*
X84948095Y-83038571D01*
X84852857Y-83086190D01*
X84471904Y-83086190D01*
X85900476Y-82562380D02*
X85710000Y-82562380D01*
X85614761Y-82610000D01*
X85567142Y-82657619D01*
X85471904Y-82800476D01*
X85424285Y-82990952D01*
X85424285Y-83371904D01*
X85471904Y-83467142D01*
X85519523Y-83514761D01*
X85614761Y-83562380D01*
X85805238Y-83562380D01*
X85900476Y-83514761D01*
X85948095Y-83467142D01*
X85995714Y-83371904D01*
X85995714Y-83133809D01*
X85948095Y-83038571D01*
X85900476Y-82990952D01*
X85805238Y-82943333D01*
X85614761Y-82943333D01*
X85519523Y-82990952D01*
X85471904Y-83038571D01*
X85424285Y-83133809D01*
%TO.C,R7*%
X126513333Y-58392380D02*
X126180000Y-57916190D01*
X125941904Y-58392380D02*
X125941904Y-57392380D01*
X126322857Y-57392380D01*
X126418095Y-57440000D01*
X126465714Y-57487619D01*
X126513333Y-57582857D01*
X126513333Y-57725714D01*
X126465714Y-57820952D01*
X126418095Y-57868571D01*
X126322857Y-57916190D01*
X125941904Y-57916190D01*
X126846666Y-57392380D02*
X127513333Y-57392380D01*
X127084761Y-58392380D01*
%TO.C,R8*%
X60823333Y-41532380D02*
X60490000Y-41056190D01*
X60251904Y-41532380D02*
X60251904Y-40532380D01*
X60632857Y-40532380D01*
X60728095Y-40580000D01*
X60775714Y-40627619D01*
X60823333Y-40722857D01*
X60823333Y-40865714D01*
X60775714Y-40960952D01*
X60728095Y-41008571D01*
X60632857Y-41056190D01*
X60251904Y-41056190D01*
X61394761Y-40960952D02*
X61299523Y-40913333D01*
X61251904Y-40865714D01*
X61204285Y-40770476D01*
X61204285Y-40722857D01*
X61251904Y-40627619D01*
X61299523Y-40580000D01*
X61394761Y-40532380D01*
X61585238Y-40532380D01*
X61680476Y-40580000D01*
X61728095Y-40627619D01*
X61775714Y-40722857D01*
X61775714Y-40770476D01*
X61728095Y-40865714D01*
X61680476Y-40913333D01*
X61585238Y-40960952D01*
X61394761Y-40960952D01*
X61299523Y-41008571D01*
X61251904Y-41056190D01*
X61204285Y-41151428D01*
X61204285Y-41341904D01*
X61251904Y-41437142D01*
X61299523Y-41484761D01*
X61394761Y-41532380D01*
X61585238Y-41532380D01*
X61680476Y-41484761D01*
X61728095Y-41437142D01*
X61775714Y-41341904D01*
X61775714Y-41151428D01*
X61728095Y-41056190D01*
X61680476Y-41008571D01*
X61585238Y-40960952D01*
%TO.C,R9*%
X126603333Y-50392380D02*
X126270000Y-49916190D01*
X126031904Y-50392380D02*
X126031904Y-49392380D01*
X126412857Y-49392380D01*
X126508095Y-49440000D01*
X126555714Y-49487619D01*
X126603333Y-49582857D01*
X126603333Y-49725714D01*
X126555714Y-49820952D01*
X126508095Y-49868571D01*
X126412857Y-49916190D01*
X126031904Y-49916190D01*
X127079523Y-50392380D02*
X127270000Y-50392380D01*
X127365238Y-50344761D01*
X127412857Y-50297142D01*
X127508095Y-50154285D01*
X127555714Y-49963809D01*
X127555714Y-49582857D01*
X127508095Y-49487619D01*
X127460476Y-49440000D01*
X127365238Y-49392380D01*
X127174761Y-49392380D01*
X127079523Y-49440000D01*
X127031904Y-49487619D01*
X126984285Y-49582857D01*
X126984285Y-49820952D01*
X127031904Y-49916190D01*
X127079523Y-49963809D01*
X127174761Y-50011428D01*
X127365238Y-50011428D01*
X127460476Y-49963809D01*
X127508095Y-49916190D01*
X127555714Y-49820952D01*
%TO.C,R10*%
X126127142Y-42422380D02*
X125793809Y-41946190D01*
X125555714Y-42422380D02*
X125555714Y-41422380D01*
X125936666Y-41422380D01*
X126031904Y-41470000D01*
X126079523Y-41517619D01*
X126127142Y-41612857D01*
X126127142Y-41755714D01*
X126079523Y-41850952D01*
X126031904Y-41898571D01*
X125936666Y-41946190D01*
X125555714Y-41946190D01*
X127079523Y-42422380D02*
X126508095Y-42422380D01*
X126793809Y-42422380D02*
X126793809Y-41422380D01*
X126698571Y-41565238D01*
X126603333Y-41660476D01*
X126508095Y-41708095D01*
X127698571Y-41422380D02*
X127793809Y-41422380D01*
X127889047Y-41470000D01*
X127936666Y-41517619D01*
X127984285Y-41612857D01*
X128031904Y-41803333D01*
X128031904Y-42041428D01*
X127984285Y-42231904D01*
X127936666Y-42327142D01*
X127889047Y-42374761D01*
X127793809Y-42422380D01*
X127698571Y-42422380D01*
X127603333Y-42374761D01*
X127555714Y-42327142D01*
X127508095Y-42231904D01*
X127460476Y-42041428D01*
X127460476Y-41803333D01*
X127508095Y-41612857D01*
X127555714Y-41517619D01*
X127603333Y-41470000D01*
X127698571Y-41422380D01*
%TO.C,R11*%
X60427142Y-48582380D02*
X60093809Y-48106190D01*
X59855714Y-48582380D02*
X59855714Y-47582380D01*
X60236666Y-47582380D01*
X60331904Y-47630000D01*
X60379523Y-47677619D01*
X60427142Y-47772857D01*
X60427142Y-47915714D01*
X60379523Y-48010952D01*
X60331904Y-48058571D01*
X60236666Y-48106190D01*
X59855714Y-48106190D01*
X61379523Y-48582380D02*
X60808095Y-48582380D01*
X61093809Y-48582380D02*
X61093809Y-47582380D01*
X60998571Y-47725238D01*
X60903333Y-47820476D01*
X60808095Y-47868095D01*
X62331904Y-48582380D02*
X61760476Y-48582380D01*
X62046190Y-48582380D02*
X62046190Y-47582380D01*
X61950952Y-47725238D01*
X61855714Y-47820476D01*
X61760476Y-47868095D01*
%TO.C,R12*%
X126207142Y-34422380D02*
X125873809Y-33946190D01*
X125635714Y-34422380D02*
X125635714Y-33422380D01*
X126016666Y-33422380D01*
X126111904Y-33470000D01*
X126159523Y-33517619D01*
X126207142Y-33612857D01*
X126207142Y-33755714D01*
X126159523Y-33850952D01*
X126111904Y-33898571D01*
X126016666Y-33946190D01*
X125635714Y-33946190D01*
X127159523Y-34422380D02*
X126588095Y-34422380D01*
X126873809Y-34422380D02*
X126873809Y-33422380D01*
X126778571Y-33565238D01*
X126683333Y-33660476D01*
X126588095Y-33708095D01*
X127540476Y-33517619D02*
X127588095Y-33470000D01*
X127683333Y-33422380D01*
X127921428Y-33422380D01*
X128016666Y-33470000D01*
X128064285Y-33517619D01*
X128111904Y-33612857D01*
X128111904Y-33708095D01*
X128064285Y-33850952D01*
X127492857Y-34422380D01*
X128111904Y-34422380D01*
%TO.C,R13*%
X66407142Y-27792380D02*
X66073809Y-27316190D01*
X65835714Y-27792380D02*
X65835714Y-26792380D01*
X66216666Y-26792380D01*
X66311904Y-26840000D01*
X66359523Y-26887619D01*
X66407142Y-26982857D01*
X66407142Y-27125714D01*
X66359523Y-27220952D01*
X66311904Y-27268571D01*
X66216666Y-27316190D01*
X65835714Y-27316190D01*
X67359523Y-27792380D02*
X66788095Y-27792380D01*
X67073809Y-27792380D02*
X67073809Y-26792380D01*
X66978571Y-26935238D01*
X66883333Y-27030476D01*
X66788095Y-27078095D01*
X67692857Y-26792380D02*
X68311904Y-26792380D01*
X67978571Y-27173333D01*
X68121428Y-27173333D01*
X68216666Y-27220952D01*
X68264285Y-27268571D01*
X68311904Y-27363809D01*
X68311904Y-27601904D01*
X68264285Y-27697142D01*
X68216666Y-27744761D01*
X68121428Y-27792380D01*
X67835714Y-27792380D01*
X67740476Y-27744761D01*
X67692857Y-27697142D01*
%TO.C,RV1*%
X46514761Y-68092380D02*
X46181428Y-67616190D01*
X45943333Y-68092380D02*
X45943333Y-67092380D01*
X46324285Y-67092380D01*
X46419523Y-67140000D01*
X46467142Y-67187619D01*
X46514761Y-67282857D01*
X46514761Y-67425714D01*
X46467142Y-67520952D01*
X46419523Y-67568571D01*
X46324285Y-67616190D01*
X45943333Y-67616190D01*
X46800476Y-67092380D02*
X47133809Y-68092380D01*
X47467142Y-67092380D01*
X48324285Y-68092380D02*
X47752857Y-68092380D01*
X48038571Y-68092380D02*
X48038571Y-67092380D01*
X47943333Y-67235238D01*
X47848095Y-67330476D01*
X47752857Y-67378095D01*
%TO.C,RV2*%
X46224761Y-83032380D02*
X45891428Y-82556190D01*
X45653333Y-83032380D02*
X45653333Y-82032380D01*
X46034285Y-82032380D01*
X46129523Y-82080000D01*
X46177142Y-82127619D01*
X46224761Y-82222857D01*
X46224761Y-82365714D01*
X46177142Y-82460952D01*
X46129523Y-82508571D01*
X46034285Y-82556190D01*
X45653333Y-82556190D01*
X46510476Y-82032380D02*
X46843809Y-83032380D01*
X47177142Y-82032380D01*
X47462857Y-82127619D02*
X47510476Y-82080000D01*
X47605714Y-82032380D01*
X47843809Y-82032380D01*
X47939047Y-82080000D01*
X47986666Y-82127619D01*
X48034285Y-82222857D01*
X48034285Y-82318095D01*
X47986666Y-82460952D01*
X47415238Y-83032380D01*
X48034285Y-83032380D01*
%TO.C,RV3*%
X46064761Y-98242380D02*
X45731428Y-97766190D01*
X45493333Y-98242380D02*
X45493333Y-97242380D01*
X45874285Y-97242380D01*
X45969523Y-97290000D01*
X46017142Y-97337619D01*
X46064761Y-97432857D01*
X46064761Y-97575714D01*
X46017142Y-97670952D01*
X45969523Y-97718571D01*
X45874285Y-97766190D01*
X45493333Y-97766190D01*
X46350476Y-97242380D02*
X46683809Y-98242380D01*
X47017142Y-97242380D01*
X47255238Y-97242380D02*
X47874285Y-97242380D01*
X47540952Y-97623333D01*
X47683809Y-97623333D01*
X47779047Y-97670952D01*
X47826666Y-97718571D01*
X47874285Y-97813809D01*
X47874285Y-98051904D01*
X47826666Y-98147142D01*
X47779047Y-98194761D01*
X47683809Y-98242380D01*
X47398095Y-98242380D01*
X47302857Y-98194761D01*
X47255238Y-98147142D01*
%TO.C,SW1*%
X46536666Y-39974761D02*
X46679523Y-40022380D01*
X46917619Y-40022380D01*
X47012857Y-39974761D01*
X47060476Y-39927142D01*
X47108095Y-39831904D01*
X47108095Y-39736666D01*
X47060476Y-39641428D01*
X47012857Y-39593809D01*
X46917619Y-39546190D01*
X46727142Y-39498571D01*
X46631904Y-39450952D01*
X46584285Y-39403333D01*
X46536666Y-39308095D01*
X46536666Y-39212857D01*
X46584285Y-39117619D01*
X46631904Y-39070000D01*
X46727142Y-39022380D01*
X46965238Y-39022380D01*
X47108095Y-39070000D01*
X47441428Y-39022380D02*
X47679523Y-40022380D01*
X47870000Y-39308095D01*
X48060476Y-40022380D01*
X48298571Y-39022380D01*
X49203333Y-40022380D02*
X48631904Y-40022380D01*
X48917619Y-40022380D02*
X48917619Y-39022380D01*
X48822380Y-39165238D01*
X48727142Y-39260476D01*
X48631904Y-39308095D01*
%TO.C,SW2*%
X46656666Y-46924761D02*
X46799523Y-46972380D01*
X47037619Y-46972380D01*
X47132857Y-46924761D01*
X47180476Y-46877142D01*
X47228095Y-46781904D01*
X47228095Y-46686666D01*
X47180476Y-46591428D01*
X47132857Y-46543809D01*
X47037619Y-46496190D01*
X46847142Y-46448571D01*
X46751904Y-46400952D01*
X46704285Y-46353333D01*
X46656666Y-46258095D01*
X46656666Y-46162857D01*
X46704285Y-46067619D01*
X46751904Y-46020000D01*
X46847142Y-45972380D01*
X47085238Y-45972380D01*
X47228095Y-46020000D01*
X47561428Y-45972380D02*
X47799523Y-46972380D01*
X47990000Y-46258095D01*
X48180476Y-46972380D01*
X48418571Y-45972380D01*
X48751904Y-46067619D02*
X48799523Y-46020000D01*
X48894761Y-45972380D01*
X49132857Y-45972380D01*
X49228095Y-46020000D01*
X49275714Y-46067619D01*
X49323333Y-46162857D01*
X49323333Y-46258095D01*
X49275714Y-46400952D01*
X48704285Y-46972380D01*
X49323333Y-46972380D01*
%TO.C,SW3*%
X46676666Y-53964761D02*
X46819523Y-54012380D01*
X47057619Y-54012380D01*
X47152857Y-53964761D01*
X47200476Y-53917142D01*
X47248095Y-53821904D01*
X47248095Y-53726666D01*
X47200476Y-53631428D01*
X47152857Y-53583809D01*
X47057619Y-53536190D01*
X46867142Y-53488571D01*
X46771904Y-53440952D01*
X46724285Y-53393333D01*
X46676666Y-53298095D01*
X46676666Y-53202857D01*
X46724285Y-53107619D01*
X46771904Y-53060000D01*
X46867142Y-53012380D01*
X47105238Y-53012380D01*
X47248095Y-53060000D01*
X47581428Y-53012380D02*
X47819523Y-54012380D01*
X48010000Y-53298095D01*
X48200476Y-54012380D01*
X48438571Y-53012380D01*
X48724285Y-53012380D02*
X49343333Y-53012380D01*
X49010000Y-53393333D01*
X49152857Y-53393333D01*
X49248095Y-53440952D01*
X49295714Y-53488571D01*
X49343333Y-53583809D01*
X49343333Y-53821904D01*
X49295714Y-53917142D01*
X49248095Y-53964761D01*
X49152857Y-54012380D01*
X48867142Y-54012380D01*
X48771904Y-53964761D01*
X48724285Y-53917142D01*
%TO.C,TH1*%
X66994285Y-86122380D02*
X67565714Y-86122380D01*
X67280000Y-87122380D02*
X67280000Y-86122380D01*
X67899047Y-87122380D02*
X67899047Y-86122380D01*
X67899047Y-86598571D02*
X68470476Y-86598571D01*
X68470476Y-87122380D02*
X68470476Y-86122380D01*
X69470476Y-87122380D02*
X68899047Y-87122380D01*
X69184761Y-87122380D02*
X69184761Y-86122380D01*
X69089523Y-86265238D01*
X68994285Y-86360476D01*
X68899047Y-86408095D01*
%TD*%
M02*
