M48
; DRILL file {KiCad (5.1.6)-1} date 11/13/21 00:29:36
; FORMAT={3:3/ absolute / metric / suppress leading zeros}
; #@! TF.CreationDate,2021-11-13T00:29:36-05:00
; #@! TF.GenerationSoftware,Kicad,Pcbnew,(5.1.6)-1
FMAT,2
METRIC,TZ
T1C0.400
T2C0.600
T3C0.800
T4C0.900
T5C1.000
T6C4.300
T7C2.000
%
G90
G05
T1
X70290Y-76910
X71800Y-61030
X71810Y-75100
X72160Y-43420
X72180Y-42220
X72280Y-44660
X72300Y-36810
X72310Y-67780
X72330Y-58820
X72340Y-53040
X72360Y-50310
X72360Y-59960
X73200Y-41290
X73270Y-58050
X74330Y-50260
X74890Y-77150
X74930Y-39370
X75060Y-55310
X75260Y-59340
X75290Y-60720
X75310Y-57890
X75320Y-43560
X75340Y-40680
X75420Y-42110
X77340Y-57210
X77340Y-62150
X80460Y-73260
X80490Y-76350
X81780Y-74160
X83800Y-77020
X88590Y-77190
X92340Y-29490
X94860Y-74200
X96690Y-76930
X101580Y-77210
X108030Y-26420
X108420Y-73240
X108480Y-76360
X108860Y-56510
X108880Y-59230
X109490Y-74200
X110460Y-41310
X110500Y-40220
X111340Y-76670
X111500Y-39230
X111570Y-69870
X111690Y-55000
X112320Y-49740
X112320Y-50870
X112460Y-64620
X112460Y-65790
X113490Y-40180
X113600Y-41280
X114250Y-53010
X114270Y-37180
X114270Y-68020
X114360Y-32180
X114420Y-62960
X114500Y-64620
X114520Y-65770
X114570Y-48060
X114720Y-49800
X114740Y-50910
X116140Y-77160
T2
X133255Y-27420
X134200Y-25140
X134200Y-29700
X136480Y-24195
X136480Y-30645
X138760Y-25140
X138760Y-29700
X139705Y-27420
X44755Y-105170
X45700Y-102890
X45700Y-107450
X47980Y-101945
X47980Y-108395
X50260Y-102890
X50260Y-107450
X51205Y-105170
X44215Y-27390
X45160Y-25110
X45160Y-29670
X47440Y-24165
X47440Y-30615
X49720Y-25110
X49720Y-29670
X50665Y-27390
X133255Y-105400
X134200Y-103120
X134200Y-107680
X136480Y-102175
X136480Y-108625
X138760Y-103120
X138760Y-107680
X139705Y-105400
T3
X44060Y-36460
X51680Y-36460
X114380Y-84510
X114380Y-94670
X44200Y-50450
X51820Y-50450
X55990Y-50500
X66150Y-50500
X44180Y-43410
X51800Y-43410
X121690Y-44340
X131850Y-44340
X121690Y-52310
X131850Y-52310
X80130Y-85480
X90290Y-85480
X61970Y-24970
X72130Y-24970
X121600Y-60310
X131760Y-60310
X121520Y-68230
X131680Y-68230
X55910Y-43450
X66070Y-43450
X56010Y-36440
X66170Y-36440
X121390Y-76460
X131550Y-76460
X121770Y-36340
X131930Y-36340
X80240Y-94590
X90400Y-94590
T4
X136570Y-44330
X139110Y-44330
X136650Y-60340
X139190Y-60340
X136610Y-52250
X139150Y-52250
X136560Y-68270
X139100Y-68270
X54830Y-27380
X57370Y-27380
X136490Y-36280
X139030Y-36280
X136520Y-76400
X139060Y-76400
T5
X44440Y-89210
X44440Y-91710
X44440Y-94210
X44440Y-74150
X44440Y-76650
X44440Y-79150
X79980Y-29460
X79980Y-32000
X79980Y-34540
X79980Y-37080
X79980Y-39620
X79980Y-42160
X79980Y-44700
X79980Y-47240
X79980Y-49780
X79980Y-52320
X79980Y-54860
X79980Y-57400
X79980Y-59940
X79980Y-62480
X79980Y-65020
X123160Y-29280
X125700Y-29280
X128240Y-29280
X44400Y-59150
X44400Y-61650
X44400Y-64150
X65740Y-89790
X68280Y-89790
X70820Y-89790
X85300Y-29480
X85300Y-32020
X85300Y-34560
X85300Y-37100
X85300Y-39640
X85300Y-42180
X85300Y-44720
X85300Y-47260
X85300Y-49800
X85300Y-52340
X85300Y-54880
X85300Y-57420
X85300Y-59960
X85300Y-62500
X85300Y-65040
X100540Y-29480
X100540Y-32020
X100540Y-34560
X100540Y-37100
X100540Y-39640
X100540Y-42180
X100540Y-44720
X100540Y-47260
X100540Y-49800
X100540Y-52340
X100540Y-54880
X100540Y-57420
X100540Y-59960
X100540Y-62500
X100540Y-65040
X115540Y-24700
X118080Y-24700
X120620Y-24700
X123160Y-24700
X125700Y-24700
X128240Y-24700
X77510Y-24660
X80050Y-24660
X101790Y-89610
X106790Y-89610
X105860Y-29490
X105860Y-32030
X105860Y-34570
X105860Y-37110
X105860Y-39650
X105860Y-42190
X105860Y-44730
X105860Y-47270
X105860Y-49810
X105860Y-52350
X105860Y-54890
X105860Y-57430
X105860Y-59970
X105860Y-62510
X105860Y-65050
T6
X47980Y-105170
X47440Y-27390
X136480Y-105400
X136480Y-27420
T7
X51440Y-87310
X51440Y-96110
X51440Y-72250
X51440Y-81050
X51400Y-57250
X51400Y-66050
T0
M30
